<svg width="46" height="42" viewBox="0 0 46 42" fill="none" xmlns="http://www.w3.org/2000/svg">
<g id="Ayuda">
<path id="Mensaje" d="M29.5 14V16.5C29.5 19.2614 27.2614 21.5 24.5 21.5H17M29.5 14V6.5C29.5 3.73858 27.2614 1.5 24.5 1.5H6C3.23858 1.5 1 3.73858 1 6.5V16.7168C1 18.8826 2.60326 20.7138 4.75 21V21C6.89674 21.2862 8.5 23.1174 8.5 25.2832V26V26.8597C8.5 27.1177 8.7985 27.2612 9 27.1V27.1L15.2191 22.1247C15.7246 21.7203 16.3527 21.5 17 21.5V21.5M29.5 14H39.5C42.2614 14 44.5 16.2386 44.5 19V29.401C44.5 31.7844 42.8177 33.8365 40.4806 34.3039L40.3311 34.3338C38.3204 34.7359 36.7591 36.3249 36.3923 38.3423L36.1429 39.7143M17 21.5V30C17 32.7614 19.2386 35 22 35H27.2707C28.391 35 29.4789 35.3763 30.3598 36.0684L35 39.7143M35 39.7143L35.3721 40.0066C35.6571 40.2306 36.078 40.0709 36.1429 39.7143V39.7143M35 39.7143H36.1429" stroke="black" stroke-width="2"/>
</g>
</svg>
