<?xml version="1.0" encoding="UTF-8"?><svg id="OBJECTS" xmlns="http://www.w3.org/2000/svg" viewBox="0 0 1041 560"><defs><style>.cls-1{opacity:.2;}.cls-2,.cls-3,.cls-4,.cls-5,.cls-6{fill:none;stroke:#d7be8a;stroke-linejoin:round;}.cls-2,.cls-4{stroke-width:1.67px;}.cls-3{stroke-width:1.7px;}.cls-3,.cls-4,.cls-5,.cls-6{stroke-linecap:round;}.cls-5{stroke-width:1.66px;}.cls-6{stroke-width:1.66px;}</style></defs><g class="cls-1"><line class="cls-2" x1="760.34" y1="280.92" x2="767.45" y2="280.88"/><line class="cls-2" x1="760.37" y1="278.77" x2="767.48" y2="278.66"/><line class="cls-2" x1="760.24" y1="276.95" x2="767.35" y2="276.79"/><line class="cls-2" x1="760.26" y1="274.79" x2="767.38" y2="274.57"/><line class="cls-2" x1="760.14" y1="272.97" x2="767.25" y2="272.69"/><line class="cls-2" x1="760.17" y1="270.81" x2="767.27" y2="270.47"/><line class="cls-2" x1="759.97" y1="269" x2="767.07" y2="268.6"/><line class="cls-2" x1="759.89" y1="266.84" x2="766.99" y2="266.38"/><line class="cls-2" x1="759.67" y1="265.03" x2="766.76" y2="264.51"/><line class="cls-2" x1="759.59" y1="262.88" x2="766.67" y2="262.29"/><line class="cls-2" x1="759.37" y1="261.07" x2="766.45" y2="260.42"/><line class="cls-2" x1="759.28" y1="258.91" x2="766.36" y2="258.2"/><line class="cls-2" x1="758.99" y1="257.11" x2="766.06" y2="256.34"/><line class="cls-2" x1="758.79" y1="254.96" x2="765.86" y2="254.13"/><line class="cls-2" x1="758.49" y1="253.17" x2="765.54" y2="252.28"/><line class="cls-2" x1="758.29" y1="251.02" x2="765.34" y2="250.06"/><line class="cls-2" x1="757.98" y1="249.22" x2="765.03" y2="248.21"/><line class="cls-2" x1="757.79" y1="247.07" x2="764.82" y2="246"/><line class="cls-2" x1="757.39" y1="245.29" x2="764.41" y2="244.16"/><line class="cls-2" x1="757.09" y1="243.16" x2="764.1" y2="241.96"/><line class="cls-2" x1="756.69" y1="241.38" x2="763.69" y2="240.12"/><line class="cls-2" x1="756.39" y1="239.24" x2="763.38" y2="237.92"/><line class="cls-2" x1="755.99" y1="237.46" x2="762.97" y2="236.09"/><line class="cls-2" x1="755.66" y1="235.33" x2="762.63" y2="233.89"/><line class="cls-2" x1="755.18" y1="233.57" x2="762.13" y2="232.07"/><line class="cls-2" x1="754.77" y1="231.46" x2="761.71" y2="229.89"/><line class="cls-2" x1="754.28" y1="229.7" x2="761.21" y2="228.08"/><line class="cls-2" x1="753.87" y1="227.58" x2="760.79" y2="225.9"/><line class="cls-2" x1="753.39" y1="225.82" x2="760.29" y2="224.09"/><line class="cls-2" x1="752.93" y1="223.72" x2="759.81" y2="221.91"/><line class="cls-2" x1="752.35" y1="221.99" x2="759.22" y2="220.13"/><line class="cls-2" x1="751.84" y1="219.89" x2="758.69" y2="217.97"/><line class="cls-2" x1="751.27" y1="218.16" x2="758.1" y2="216.18"/><line class="cls-2" x1="750.76" y1="216.07" x2="757.57" y2="214.02"/><line class="cls-2" x1="750.18" y1="214.34" x2="756.98" y2="212.24"/><line class="cls-2" x1="749.59" y1="212.27" x2="756.37" y2="210.1"/><line class="cls-2" x1="748.93" y1="210.56" x2="755.69" y2="208.35"/><line class="cls-2" x1="748.32" y1="208.5" x2="755.06" y2="206.22"/><line class="cls-2" x1="747.66" y1="206.8" x2="754.38" y2="204.46"/><line class="cls-2" x1="747.04" y1="204.73" x2="753.74" y2="202.33"/><line class="cls-2" x1="746.38" y1="203.03" x2="753.05" y2="200.58"/><line class="cls-2" x1="745.66" y1="201" x2="752.32" y2="198.49"/><line class="cls-2" x1="744.92" y1="199.34" x2="751.55" y2="196.77"/><line class="cls-2" x1="744.2" y1="197.3" x2="750.81" y2="194.67"/><line class="cls-2" x1="743.46" y1="195.64" x2="750.05" y2="192.96"/><line class="cls-2" x1="742.74" y1="193.6" x2="749.31" y2="190.86"/><line class="cls-2" x1="741.96" y1="191.96" x2="748.5" y2="189.16"/><line class="cls-2" x1="741.15" y1="189.96" x2="747.66" y2="187.1"/><line class="cls-2" x1="740.32" y1="188.33" x2="746.81" y2="185.42"/><line class="cls-2" x1="739.51" y1="186.34" x2="745.97" y2="183.37"/><line class="cls-2" x1="738.69" y1="184.71" x2="745.13" y2="181.69"/><line class="cls-2" x1="737.87" y1="182.71" x2="744.28" y2="179.63"/><line class="cls-2" x1="736.98" y1="181.12" x2="743.36" y2="177.99"/><line class="cls-2" x1="736.07" y1="179.17" x2="742.42" y2="175.97"/><line class="cls-2" x1="735.16" y1="177.58" x2="741.49" y2="174.34"/><line class="cls-2" x1="734.25" y1="175.63" x2="740.55" y2="172.32"/><line class="cls-2" x1="733.35" y1="174.04" x2="739.62" y2="170.69"/><line class="cls-2" x1="732.41" y1="172.1" x2="738.66" y2="168.69"/><line class="cls-2" x1="731.43" y1="170.56" x2="737.65" y2="167.1"/><line class="cls-2" x1="730.43" y1="168.65" x2="736.61" y2="165.13"/><line class="cls-2" x1="729.45" y1="167.11" x2="735.61" y2="163.54"/><line class="cls-2" x1="728.45" y1="165.21" x2="734.57" y2="161.58"/><line class="cls-2" x1="727.47" y1="163.67" x2="733.56" y2="159.99"/><line class="cls-2" x1="726.41" y1="161.79" x2="732.46" y2="158.06"/><line class="cls-2" x1="725.35" y1="160.3" x2="731.38" y2="156.52"/><line class="cls-2" x1="724.26" y1="158.45" x2="730.25" y2="154.61"/><line class="cls-2" x1="723.21" y1="156.95" x2="729.17" y2="153.07"/><line class="cls-2" x1="722.11" y1="155.1" x2="728.04" y2="151.16"/><line class="cls-2" x1="721.06" y1="153.61" x2="726.95" y2="149.62"/><line class="cls-2" x1="719.87" y1="151.81" x2="725.73" y2="147.77"/><line class="cls-2" x1="718.75" y1="150.37" x2="724.57" y2="146.28"/><line class="cls-2" x1="717.57" y1="148.57" x2="723.35" y2="144.43"/><line class="cls-2" x1="716.45" y1="147.13" x2="722.2" y2="142.94"/><line class="cls-2" x1="715.26" y1="145.33" x2="720.97" y2="141.09"/><line class="cls-2" x1="714.1" y1="143.92" x2="719.78" y2="139.63"/><line class="cls-2" x1="712.84" y1="142.18" x2="718.47" y2="137.84"/><line class="cls-2" x1="711.65" y1="140.79" x2="717.25" y2="136.41"/><line class="cls-2" x1="710.38" y1="139.05" x2="715.94" y2="134.61"/><line class="cls-2" x1="709.19" y1="137.67" x2="714.72" y2="133.19"/><line class="cls-2" x1="707.92" y1="135.92" x2="713.4" y2="131.39"/><line class="cls-2" x1="706.66" y1="134.6" x2="712.11" y2="130.02"/><line class="cls-2" x1="705.31" y1="132.92" x2="710.72" y2="128.29"/><line class="cls-2" x1="704.06" y1="131.59" x2="709.43" y2="126.92"/><line class="cls-2" x1="702.71" y1="129.91" x2="708.03" y2="125.19"/><line class="cls-2" x1="701.45" y1="128.59" x2="706.74" y2="123.83"/><line class="cls-2" x1="700.07" y1="126.94" x2="705.31" y2="122.13"/><line class="cls-2" x1="698.75" y1="125.67" x2="703.96" y2="120.82"/><line class="cls-2" x1="697.32" y1="124.06" x2="702.48" y2="119.16"/><line class="cls-2" x1="696.01" y1="122.79" x2="701.13" y2="117.85"/><line class="cls-2" x1="694.58" y1="121.18" x2="699.65" y2="116.19"/><line class="cls-2" x1="693.26" y1="119.91" x2="698.3" y2="114.89"/><line class="cls-2" x1="691.77" y1="118.36" x2="696.76" y2="113.29"/><line class="cls-2" x1="690.39" y1="117.16" x2="695.34" y2="112.05"/><line class="cls-2" x1="688.89" y1="115.62" x2="693.79" y2="110.46"/><line class="cls-2" x1="687.51" y1="114.42" x2="692.37" y2="109.22"/><line class="cls-2" x1="686.01" y1="112.87" x2="690.82" y2="107.63"/><line class="cls-2" x1="684.62" y1="111.7" x2="689.39" y2="106.42"/><line class="cls-2" x1="683.04" y1="110.23" x2="687.76" y2="104.9"/><line class="cls-2" x1="681.61" y1="109.09" x2="686.29" y2="103.73"/><line class="cls-2" x1="680.03" y1="107.62" x2="684.66" y2="102.22"/><line class="cls-2" x1="678.6" y1="106.49" x2="683.19" y2="101.05"/><line class="cls-2" x1="677.03" y1="105.02" x2="681.56" y2="99.54"/><line class="cls-2" x1="675.55" y1="103.94" x2="680.04" y2="98.43"/><line class="cls-2" x1="673.91" y1="102.55" x2="678.35" y2="96.99"/><line class="cls-2" x1="672.42" y1="101.49" x2="676.82" y2="95.89"/><line class="cls-2" x1="670.78" y1="100.09" x2="675.12" y2="94.46"/><line class="cls-2" x1="669.3" y1="99.03" x2="673.6" y2="93.36"/><line class="cls-2" x1="667.63" y1="97.66" x2="671.88" y2="91.95"/><line class="cls-2" x1="666.1" y1="96.67" x2="670.3" y2="90.92"/><line class="cls-2" x1="664.39" y1="95.35" x2="668.54" y2="89.57"/><line class="cls-2" x1="662.86" y1="94.36" x2="666.96" y2="88.55"/><line class="cls-2" x1="661.15" y1="93.05" x2="665.2" y2="87.2"/><line class="cls-2" x1="659.62" y1="92.06" x2="663.62" y2="86.17"/><line class="cls-2" x1="657.87" y1="90.8" x2="661.81" y2="84.88"/><line class="cls-2" x1="656.29" y1="89.89" x2="660.19" y2="83.93"/><line class="cls-2" x1="654.52" y1="88.66" x2="658.36" y2="82.67"/><line class="cls-2" x1="652.94" y1="87.74" x2="656.73" y2="81.72"/><line class="cls-2" x1="651.17" y1="86.51" x2="654.91" y2="80.46"/><line class="cls-2" x1="649.59" y1="85.6" x2="653.28" y2="79.52"/><line class="cls-2" x1="647.76" y1="84.46" x2="651.39" y2="78.34"/><line class="cls-2" x1="646.14" y1="83.62" x2="649.72" y2="77.47"/><line class="cls-2" x1="644.31" y1="82.48" x2="647.84" y2="76.3"/><line class="cls-2" x1="642.7" y1="81.64" x2="646.17" y2="75.43"/><line class="cls-2" x1="640.87" y1="80.49" x2="644.28" y2="74.25"/><line class="cls-2" x1="639.22" y1="79.7" x2="642.59" y2="73.43"/><line class="cls-2" x1="637.34" y1="78.65" x2="640.65" y2="72.35"/><line class="cls-2" x1="635.69" y1="77.89" x2="638.94" y2="71.56"/><line class="cls-2" x1="633.8" y1="76.84" x2="637" y2="70.48"/><line class="cls-2" x1="632.15" y1="76.08" x2="635.29" y2="69.7"/><line class="cls-2" x1="630.26" y1="75.02" x2="633.35" y2="68.61"/><line class="cls-2" x1="628.57" y1="74.34" x2="631.6" y2="67.91"/><line class="cls-2" x1="626.64" y1="73.38" x2="629.61" y2="66.92"/><line class="cls-2" x1="624.95" y1="72.71" x2="627.87" y2="66.22"/><line class="cls-2" x1="623.02" y1="71.75" x2="625.88" y2="65.23"/><line class="cls-2" x1="621.32" y1="71.07" x2="624.13" y2="64.53"/><line class="cls-2" x1="619.38" y1="70.14" x2="622.12" y2="63.58"/><line class="cls-2" x1="617.65" y1="69.55" x2="620.35" y2="62.97"/><line class="cls-2" x1="615.68" y1="68.68" x2="618.31" y2="62.08"/><line class="cls-2" x1="613.95" y1="68.09" x2="616.53" y2="61.46"/><line class="cls-2" x1="611.98" y1="67.22" x2="614.49" y2="60.57"/><line class="cls-2" x1="610.25" y1="66.63" x2="612.72" y2="59.96"/><line class="cls-2" x1="608.25" y1="65.84" x2="610.65" y2="59.14"/><line class="cls-2" x1="606.5" y1="65.33" x2="608.85" y2="58.61"/><line class="cls-2" x1="604.48" y1="64.56" x2="606.77" y2="57.82"/><line class="cls-2" x1="602.73" y1="64.05" x2="604.96" y2="57.3"/><line class="cls-2" x1="600.72" y1="63.29" x2="602.88" y2="56.51"/><line class="cls-2" x1="598.97" y1="62.78" x2="601.08" y2="55.98"/><line class="cls-2" x1="596.92" y1="62.11" x2="598.97" y2="55.3"/><line class="cls-2" x1="595.14" y1="61.69" x2="597.13" y2="54.86"/><line class="cls-2" x1="593.09" y1="61.03" x2="595.02" y2="54.18"/><line class="cls-2" x1="591.32" y1="60.61" x2="593.19" y2="53.74"/><line class="cls-2" x1="589.27" y1="59.94" x2="591.07" y2="53.06"/><line class="cls-2" x1="587.48" y1="59.55" x2="589.24" y2="52.65"/><line class="cls-2" x1="585.4" y1="58.99" x2="587.09" y2="52.08"/><line class="cls-2" x1="583.61" y1="58.66" x2="585.24" y2="51.73"/><line class="cls-2" x1="581.53" y1="58.09" x2="583.1" y2="51.15"/><line class="cls-2" x1="579.74" y1="57.76" x2="581.25" y2="50.81"/><line class="cls-2" x1="577.65" y1="57.2" x2="579.1" y2="50.23"/><line class="cls-2" x1="575.85" y1="56.92" x2="577.24" y2="49.95"/><line class="cls-2" x1="573.75" y1="56.47" x2="575.07" y2="49.48"/><line class="cls-2" x1="571.94" y1="56.22" x2="573.21" y2="49.22"/><line class="cls-2" x1="569.83" y1="55.77" x2="571.03" y2="48.76"/><line class="cls-2" x1="568.02" y1="55.52" x2="569.17" y2="48.5"/><line class="cls-2" x1="565.92" y1="55.07" x2="567" y2="48.04"/><line class="cls-2" x1="564.1" y1="54.9" x2="565.12" y2="47.86"/><line class="cls-2" x1="561.97" y1="54.55" x2="562.93" y2="47.5"/><line class="cls-2" x1="560.15" y1="54.4" x2="561.06" y2="47.35"/><line class="cls-2" x1="558.02" y1="54.05" x2="558.86" y2="46.99"/><line class="cls-2" x1="556.21" y1="53.9" x2="556.99" y2="46.83"/><line class="cls-2" x1="554.08" y1="53.55" x2="554.8" y2="46.48"/><line class="cls-2" x1="552.25" y1="53.49" x2="552.91" y2="46.41"/><line class="cls-2" x1="550.11" y1="53.25" x2="550.71" y2="46.16"/><line class="cls-2" x1="548.29" y1="53.19" x2="548.83" y2="46.1"/><line class="cls-2" x1="546.15" y1="52.95" x2="546.62" y2="45.85"/><line class="cls-2" x1="544.32" y1="52.89" x2="544.74" y2="45.79"/><line class="cls-2" x1="542.18" y1="52.66" x2="542.53" y2="45.56"/><line class="cls-2" x1="540.35" y1="52.7" x2="540.65" y2="45.59"/><line class="cls-2" x1="538.2" y1="52.56" x2="538.43" y2="45.45"/><line class="cls-2" x1="536.38" y1="52.6" x2="536.55" y2="45.49"/><line class="cls-2" x1="534.22" y1="52.46" x2="534.33" y2="45.35"/><line class="cls-2" x1="532.4" y1="52.5" x2="532.45" y2="45.38"/><line class="cls-2" x1="530.25" y1="52.38" x2="530.23" y2="45.27"/><line class="cls-2" x1="528.42" y1="52.51" x2="528.36" y2="45.4"/><line class="cls-2" x1="526.27" y1="52.48" x2="526.13" y2="45.37"/><line class="cls-2" x1="524.45" y1="52.61" x2="524.26" y2="45.5"/><line class="cls-2" x1="522.29" y1="52.59" x2="522.04" y2="45.48"/><line class="cls-2" x1="520.47" y1="52.71" x2="520.16" y2="45.6"/><line class="cls-2" x1="518.32" y1="52.71" x2="517.94" y2="45.61"/><line class="cls-2" x1="516.5" y1="52.93" x2="516.07" y2="45.83"/><line class="cls-2" x1="514.35" y1="53.01" x2="513.85" y2="45.92"/><line class="cls-2" x1="512.54" y1="53.23" x2="511.98" y2="46.14"/><line class="cls-2" x1="510.38" y1="53.32" x2="509.76" y2="46.23"/><line class="cls-2" x1="508.57" y1="53.53" x2="507.9" y2="46.45"/><line class="cls-2" x1="506.42" y1="53.65" x2="505.68" y2="46.58"/><line class="cls-2" x1="504.62" y1="53.96" x2="503.82" y2="46.89"/><line class="cls-2" x1="502.47" y1="54.16" x2="501.61" y2="47.09"/><line class="cls-2" x1="500.68" y1="54.46" x2="499.76" y2="47.41"/><line class="cls-2" x1="498.53" y1="54.66" x2="497.54" y2="47.61"/><line class="cls-2" x1="496.73" y1="54.97" x2="495.69" y2="47.93"/><line class="cls-2" x1="494.59" y1="55.21" x2="493.48" y2="48.19"/><line class="cls-2" x1="492.81" y1="55.61" x2="491.64" y2="48.59"/><line class="cls-2" x1="490.67" y1="55.91" x2="489.44" y2="48.91"/><line class="cls-2" x1="488.89" y1="56.31" x2="487.61" y2="49.31"/><line class="cls-2" x1="486.76" y1="56.61" x2="485.41" y2="49.63"/><line class="cls-2" x1="484.98" y1="57.01" x2="483.57" y2="50.04"/><line class="cls-2" x1="482.86" y1="57.38" x2="481.39" y2="50.43"/><line class="cls-2" x1="481.1" y1="57.87" x2="479.57" y2="50.93"/><line class="cls-2" x1="478.98" y1="58.28" x2="477.39" y2="51.35"/><line class="cls-2" x1="477.23" y1="58.77" x2="475.58" y2="51.85"/><line class="cls-2" x1="475.11" y1="59.17" x2="473.39" y2="52.27"/><line class="cls-2" x1="473.35" y1="59.66" x2="471.58" y2="52.77"/><line class="cls-2" x1="471.26" y1="60.17" x2="469.42" y2="53.29"/><line class="cls-2" x1="469.53" y1="60.74" x2="467.64" y2="53.88"/><line class="cls-2" x1="467.43" y1="61.25" x2="465.48" y2="54.41"/><line class="cls-2" x1="465.7" y1="61.83" x2="463.69" y2="55"/><line class="cls-2" x1="463.61" y1="62.34" x2="461.53" y2="55.53"/><line class="cls-2" x1="461.88" y1="62.94" x2="459.76" y2="56.15"/><line class="cls-2" x1="459.82" y1="63.55" x2="457.63" y2="56.78"/><line class="cls-2" x1="458.12" y1="64.21" x2="455.87" y2="57.46"/><line class="cls-2" x1="456.05" y1="64.83" x2="453.74" y2="58.1"/><line class="cls-2" x1="454.35" y1="65.49" x2="451.99" y2="58.78"/><line class="cls-2" x1="452.28" y1="66.1" x2="449.86" y2="59.41"/><line class="cls-2" x1="450.61" y1="66.81" x2="448.13" y2="60.15"/><line class="cls-2" x1="448.57" y1="67.53" x2="446.03" y2="60.89"/><line class="cls-2" x1="446.91" y1="68.27" x2="444.31" y2="61.65"/><line class="cls-2" x1="444.87" y1="68.99" x2="442.22" y2="62.39"/><line class="cls-2" x1="443.21" y1="69.73" x2="440.5" y2="63.15"/><line class="cls-2" x1="441.17" y1="70.45" x2="438.4" y2="63.9"/><line class="cls-2" x1="439.55" y1="71.27" x2="436.72" y2="64.74"/><line class="cls-2" x1="437.55" y1="72.09" x2="434.66" y2="65.59"/><line class="cls-2" x1="435.92" y1="72.91" x2="432.98" y2="66.43"/><line class="cls-2" x1="433.93" y1="73.73" x2="430.93" y2="67.27"/><line class="cls-2" x1="432.3" y1="74.55" x2="429.25" y2="68.12"/><line class="cls-2" x1="430.32" y1="75.4" x2="427.21" y2="69"/><line class="cls-2" x1="428.73" y1="76.3" x2="425.57" y2="69.93"/><line class="cls-2" x1="426.78" y1="77.21" x2="423.56" y2="70.87"/><line class="cls-2" x1="425.19" y1="78.11" x2="421.92" y2="71.8"/><line class="cls-2" x1="423.24" y1="79.03" x2="419.91" y2="72.74"/><line class="cls-2" x1="421.65" y1="79.93" x2="418.27" y2="73.67"/><line class="cls-2" x1="419.74" y1="80.91" x2="416.3" y2="74.68"/><line class="cls-2" x1="418.19" y1="81.89" x2="414.71" y2="75.69"/><line class="cls-2" x1="416.29" y1="82.89" x2="412.74" y2="76.72"/><line class="cls-2" x1="414.75" y1="83.87" x2="411.15" y2="77.73"/><line class="cls-2" x1="412.84" y1="84.87" x2="409.19" y2="78.77"/><line class="cls-2" x1="411.31" y1="85.86" x2="407.61" y2="79.79"/><line class="cls-2" x1="409.45" y1="86.96" x2="405.69" y2="80.92"/><line class="cls-2" x1="407.96" y1="88.01" x2="404.15" y2="82"/><line class="cls-2" x1="406.1" y1="89.1" x2="402.24" y2="83.13"/><line class="cls-2" x1="404.61" y1="90.15" x2="400.7" y2="84.21"/><line class="cls-2" x1="402.75" y1="91.25" x2="398.79" y2="85.34"/><line class="cls-2" x1="401.3" y1="92.35" x2="397.28" y2="86.47"/><line class="cls-2" x1="399.5" y1="93.53" x2="395.43" y2="87.69"/><line class="cls-2" x1="398.06" y1="94.65" x2="393.94" y2="88.85"/><line class="cls-2" x1="396.25" y1="95.83" x2="392.09" y2="90.07"/><line class="cls-2" x1="394.82" y1="96.95" x2="390.6" y2="91.22"/><line class="cls-2" x1="393.02" y1="98.15" x2="388.75" y2="92.45"/><line class="cls-2" x1="391.63" y1="99.34" x2="387.32" y2="93.68"/><line class="cls-2" x1="389.89" y1="100.6" x2="385.53" y2="94.99"/><line class="cls-2" x1="388.51" y1="101.79" x2="384.1" y2="96.21"/><line class="cls-2" x1="386.76" y1="103.06" x2="382.3" y2="97.52"/><line class="cls-2" x1="385.38" y1="104.25" x2="380.88" y2="98.74"/><line class="cls-2" x1="383.67" y1="105.56" x2="379.11" y2="100.09"/><line class="cls-2" x1="382.34" y1="106.81" x2="377.74" y2="101.39"/><line class="cls-2" x1="380.66" y1="108.17" x2="376.01" y2="102.78"/><line class="cls-2" x1="379.34" y1="109.42" x2="374.65" y2="104.07"/><line class="cls-2" x1="377.65" y1="110.77" x2="372.91" y2="105.46"/><line class="cls-2" x1="376.33" y1="112.02" x2="371.55" y2="106.75"/><line class="cls-2" x1="374.71" y1="113.44" x2="369.88" y2="108.22"/><line class="cls-2" x1="373.45" y1="114.76" x2="368.58" y2="109.58"/><line class="cls-2" x1="371.83" y1="116.19" x2="366.91" y2="111.05"/><line class="cls-2" x1="370.57" y1="117.5" x2="365.61" y2="112.4"/><line class="cls-2" x1="368.95" y1="118.93" x2="363.95" y2="113.88"/><line class="cls-2" x1="367.71" y1="120.27" x2="362.67" y2="115.26"/><line class="cls-2" x1="366.17" y1="121.78" x2="361.08" y2="116.81"/><line class="cls-2" x1="364.97" y1="123.15" x2="359.84" y2="118.23"/><line class="cls-2" x1="363.43" y1="124.66" x2="358.25" y2="119.78"/><line class="cls-2" x1="362.23" y1="126.03" x2="357.01" y2="121.19"/><line class="cls-2" x1="360.68" y1="127.53" x2="355.42" y2="122.75"/><line class="cls-2" x1="359.54" y1="128.96" x2="354.24" y2="124.21"/><line class="cls-2" x1="358.07" y1="130.54" x2="352.73" y2="125.84"/><line class="cls-2" x1="356.94" y1="131.97" x2="351.56" y2="127.31"/><line class="cls-2" x1="355.47" y1="133.54" x2="350.04" y2="128.94"/><line class="cls-2" x1="354.33" y1="134.97" x2="348.88" y2="130.41"/><line class="cls-2" x1="352.89" y1="136.57" x2="347.39" y2="132.06"/><line class="cls-2" x1="351.82" y1="138.06" x2="346.29" y2="133.59"/><line class="cls-2" x1="350.43" y1="139.7" x2="344.85" y2="135.29"/><line class="cls-2" x1="349.37" y1="141.18" x2="343.76" y2="136.81"/><line class="cls-2" x1="347.97" y1="142.83" x2="342.32" y2="138.51"/><line class="cls-2" x1="346.91" y1="144.31" x2="341.22" y2="140.04"/><line class="cls-2" x1="345.58" y1="146" x2="339.85" y2="141.78"/><line class="cls-2" x1="344.59" y1="147.53" x2="338.83" y2="143.36"/><line class="cls-2" x1="343.27" y1="149.24" x2="337.47" y2="145.12"/><line class="cls-2" x1="342.28" y1="150.78" x2="336.45" y2="146.7"/><line class="cls-2" x1="340.97" y1="152.49" x2="335.1" y2="148.47"/><line class="cls-2" x1="339.99" y1="154.02" x2="334.09" y2="150.05"/><line class="cls-2" x1="338.76" y1="155.79" x2="332.82" y2="151.88"/><line class="cls-2" x1="337.84" y1="157.37" x2="331.88" y2="153.5"/><line class="cls-2" x1="336.62" y1="159.14" x2="330.61" y2="155.33"/><line class="cls-2" x1="335.7" y1="160.72" x2="329.66" y2="156.95"/><line class="cls-2" x1="334.47" y1="162.49" x2="328.4" y2="158.78"/><line class="cls-2" x1="333.6" y1="164.1" x2="327.5" y2="160.44"/><line class="cls-2" x1="332.46" y1="165.92" x2="326.33" y2="162.32"/><line class="cls-2" x1="331.62" y1="167.54" x2="325.46" y2="163.99"/><line class="cls-2" x1="330.48" y1="169.37" x2="324.28" y2="165.87"/><line class="cls-2" x1="329.64" y1="170.99" x2="323.42" y2="167.54"/><line class="cls-2" x1="328.5" y1="172.83" x2="322.25" y2="169.44"/><line class="cls-2" x1="327.74" y1="174.49" x2="321.46" y2="171.15"/><line class="cls-2" x1="326.69" y1="176.37" x2="320.38" y2="173.09"/><line class="cls-2" x1="325.93" y1="178.02" x2="319.59" y2="174.79"/><line class="cls-2" x1="324.88" y1="179.91" x2="318.51" y2="176.74"/><line class="cls-2" x1="324.12" y1="181.56" x2="317.72" y2="178.44"/><line class="cls-2" x1="323.11" y1="183.47" x2="316.69" y2="180.41"/><line class="cls-2" x1="322.43" y1="185.16" x2="315.98" y2="182.15"/><line class="cls-2" x1="321.47" y1="187.09" x2="315" y2="184.14"/><line class="cls-2" x1="320.79" y1="188.79" x2="314.29" y2="185.89"/><line class="cls-2" x1="319.83" y1="190.72" x2="313.31" y2="187.88"/><line class="cls-2" x1="319.15" y1="192.41" x2="312.61" y2="189.63"/><line class="cls-2" x1="318.27" y1="194.37" x2="311.7" y2="191.65"/><line class="cls-2" x1="317.68" y1="196.1" x2="311.08" y2="193.43"/><line class="cls-2" x1="316.82" y1="198.07" x2="310.2" y2="195.47"/><line class="cls-2" x1="316.22" y1="199.8" x2="309.58" y2="197.25"/><line class="cls-2" x1="315.36" y1="201.77" x2="308.69" y2="199.28"/><line class="cls-2" x1="314.78" y1="203.5" x2="308.09" y2="201.07"/><line class="cls-2" x1="314.01" y1="205.52" x2="307.31" y2="203.14"/><line class="cls-2" x1="313.5" y1="207.27" x2="306.78" y2="204.95"/><line class="cls-2" x1="312.74" y1="209.28" x2="305.99" y2="207.03"/><line class="cls-2" x1="312.23" y1="211.03" x2="305.46" y2="208.83"/><line class="cls-2" x1="311.46" y1="213.05" x2="304.68" y2="210.91"/><line class="cls-2" x1="311" y1="214.82" x2="304.2" y2="212.73"/><line class="cls-2" x1="310.34" y1="216.86" x2="303.52" y2="214.85"/><line class="cls-2" x1="309.92" y1="218.64" x2="303.08" y2="216.68"/><line class="cls-2" x1="309.25" y1="220.69" x2="302.4" y2="218.79"/><line class="cls-2" x1="308.83" y1="222.46" x2="301.96" y2="220.62"/><line class="cls-2" x1="308.16" y1="224.52" x2="301.28" y2="222.74"/><line class="cls-2" x1="307.82" y1="226.31" x2="300.92" y2="224.58"/><line class="cls-2" x1="307.26" y1="228.39" x2="300.34" y2="226.73"/><line class="cls-2" x1="306.93" y1="230.18" x2="300" y2="228.58"/><line class="cls-2" x1="306.37" y1="232.26" x2="299.42" y2="230.73"/><line class="cls-2" x1="306.03" y1="234.06" x2="299.08" y2="232.57"/><line class="cls-2" x1="305.48" y1="236.14" x2="298.51" y2="234.73"/><line class="cls-2" x1="305.24" y1="237.95" x2="298.26" y2="236.59"/><line class="cls-2" x1="304.79" y1="240.06" x2="297.79" y2="238.76"/><line class="cls-2" x1="304.54" y1="241.87" x2="297.54" y2="240.63"/><line class="cls-2" x1="304.09" y1="243.97" x2="297.07" y2="242.8"/><line class="cls-2" x1="303.84" y1="245.78" x2="296.82" y2="244.66"/><line class="cls-2" x1="303.42" y1="247.89" x2="296.39" y2="246.84"/><line class="cls-2" x1="303.27" y1="249.71" x2="296.23" y2="248.72"/><line class="cls-2" x1="302.92" y1="251.84" x2="295.87" y2="250.91"/><line class="cls-2" x1="302.77" y1="253.66" x2="295.71" y2="252.78"/><line class="cls-2" x1="302.42" y1="255.79" x2="295.35" y2="254.98"/><line class="cls-2" x1="302.27" y1="257.6" x2="295.2" y2="256.85"/><line class="cls-2" x1="301.97" y1="259.74" x2="294.89" y2="259.05"/><line class="cls-2" x1="301.92" y1="261.56" x2="294.83" y2="260.93"/><line class="cls-2" x1="301.67" y1="263.7" x2="294.58" y2="263.14"/><line class="cls-2" x1="301.61" y1="265.53" x2="294.52" y2="265.02"/><line class="cls-2" x1="301.37" y1="267.67" x2="294.27" y2="267.23"/><line class="cls-2" x1="301.31" y1="269.49" x2="294.21" y2="269.11"/><line class="cls-2" x1="301.13" y1="271.64" x2="294.03" y2="271.32"/><line class="cls-2" x1="301.17" y1="273.47" x2="294.06" y2="273.2"/><line class="cls-2" x1="301.03" y1="275.62" x2="293.92" y2="275.42"/><line class="cls-2" x1="301.07" y1="277.44" x2="293.96" y2="277.3"/><line class="cls-2" x1="300.93" y1="279.6" x2="293.82" y2="279.52"/><line class="cls-2" x1="300.97" y1="281.42" x2="293.85" y2="281.4"/><line class="cls-2" x1="300.9" y1="283.57" x2="293.79" y2="283.62"/><line class="cls-2" x1="301.03" y1="285.39" x2="293.92" y2="285.49"/><line class="cls-2" x1="301.01" y1="287.55" x2="293.89" y2="287.71"/><line class="cls-2" x1="301.13" y1="289.37" x2="294.02" y2="289.59"/><line class="cls-2" x1="301.11" y1="291.53" x2="294" y2="291.81"/><line class="cls-2" x1="301.23" y1="293.35" x2="294.13" y2="293.69"/><line class="cls-2" x1="301.28" y1="295.5" x2="294.18" y2="295.91"/><line class="cls-2" x1="301.5" y1="297.31" x2="294.4" y2="297.78"/><line class="cls-2" x1="301.58" y1="299.47" x2="294.49" y2="300"/><line class="cls-2" x1="301.8" y1="301.28" x2="294.71" y2="301.86"/><line class="cls-2" x1="301.89" y1="303.43" x2="294.8" y2="304.08"/><line class="cls-2" x1="302.1" y1="305.24" x2="295.02" y2="305.95"/><line class="cls-2" x1="302.28" y1="307.39" x2="295.2" y2="308.16"/><line class="cls-2" x1="302.58" y1="309.19" x2="295.52" y2="310.02"/><line class="cls-2" x1="302.78" y1="311.34" x2="295.72" y2="312.23"/><line class="cls-2" x1="303.09" y1="313.14" x2="296.04" y2="314.09"/><line class="cls-2" x1="303.28" y1="315.28" x2="296.24" y2="316.3"/><line class="cls-2" x1="303.59" y1="317.08" x2="296.55" y2="318.15"/><line class="cls-2" x1="303.88" y1="319.21" x2="296.86" y2="320.35"/><line class="cls-2" x1="304.28" y1="320.99" x2="297.27" y2="322.19"/><line class="cls-2" x1="304.58" y1="323.13" x2="297.58" y2="324.39"/><line class="cls-2" x1="304.98" y1="324.91" x2="297.99" y2="326.22"/><line class="cls-2" x1="305.28" y1="327.04" x2="298.3" y2="328.43"/><line class="cls-2" x1="305.7" y1="328.82" x2="298.73" y2="330.26"/><line class="cls-2" x1="306.1" y1="330.93" x2="299.15" y2="332.44"/><line class="cls-2" x1="306.59" y1="332.69" x2="299.65" y2="334.25"/><line class="cls-2" x1="307" y1="334.81" x2="300.07" y2="336.43"/><line class="cls-2" x1="307.49" y1="336.57" x2="300.57" y2="338.25"/><line class="cls-2" x1="307.89" y1="338.69" x2="301" y2="340.43"/><line class="cls-2" x1="308.42" y1="340.43" x2="301.54" y2="342.23"/><line class="cls-2" x1="308.93" y1="342.52" x2="302.07" y2="344.39"/><line class="cls-2" x1="309.51" y1="344.25" x2="302.66" y2="346.17"/><line class="cls-2" x1="310.02" y1="346.35" x2="303.19" y2="348.33"/><line class="cls-2" x1="310.6" y1="348.08" x2="303.78" y2="350.12"/><line class="cls-2" x1="311.11" y1="350.18" x2="304.31" y2="352.28"/><line class="cls-2" x1="311.75" y1="351.88" x2="304.97" y2="354.04"/><line class="cls-2" x1="312.37" y1="353.95" x2="305.61" y2="356.17"/><line class="cls-2" x1="313.03" y1="355.65" x2="306.29" y2="357.92"/><line class="cls-2" x1="313.64" y1="357.71" x2="306.92" y2="360.05"/><line class="cls-2" x1="314.3" y1="359.41" x2="307.6" y2="361.81"/><line class="cls-2" x1="314.93" y1="361.48" x2="308.25" y2="363.93"/><line class="cls-2" x1="315.67" y1="363.14" x2="309.02" y2="365.65"/><line class="cls-2" x1="316.39" y1="365.18" x2="309.76" y2="367.75"/><line class="cls-2" x1="317.13" y1="366.84" x2="310.52" y2="369.47"/><line class="cls-2" x1="317.85" y1="368.88" x2="311.26" y2="371.56"/><line class="cls-2" x1="318.59" y1="370.54" x2="312.02" y2="373.28"/><line class="cls-2" x1="319.35" y1="372.56" x2="312.81" y2="375.36"/><line class="cls-2" x1="320.18" y1="374.19" x2="313.66" y2="377.04"/><line class="cls-2" x1="320.99" y1="376.18" x2="314.5" y2="379.09"/><line class="cls-2" x1="321.82" y1="377.81" x2="315.35" y2="380.77"/><line class="cls-2" x1="322.63" y1="379.8" x2="316.19" y2="382.83"/><line class="cls-2" x1="323.45" y1="381.43" x2="317.04" y2="384.51"/><line class="cls-2" x1="324.35" y1="383.39" x2="317.96" y2="386.53"/><line class="cls-2" x1="325.25" y1="384.98" x2="318.89" y2="388.17"/><line class="cls-2" x1="326.16" y1="386.93" x2="319.83" y2="390.18"/><line class="cls-2" x1="327.06" y1="388.52" x2="320.76" y2="391.82"/><line class="cls-2" x1="327.97" y1="390.47" x2="321.7" y2="393.83"/><line class="cls-2" x1="328.89" y1="392.05" x2="322.65" y2="395.45"/><line class="cls-2" x1="329.9" y1="393.95" x2="323.69" y2="397.42"/><line class="cls-2" x1="330.88" y1="395.49" x2="324.69" y2="399.01"/><line class="cls-2" x1="331.88" y1="397.4" x2="325.73" y2="400.97"/><line class="cls-2" x1="332.86" y1="398.94" x2="326.74" y2="402.56"/><line class="cls-2" x1="333.86" y1="400.85" x2="327.78" y2="404.53"/><line class="cls-2" x1="334.89" y1="402.35" x2="328.83" y2="406.08"/><line class="cls-2" x1="335.99" y1="404.21" x2="329.97" y2="407.99"/><line class="cls-2" x1="337.04" y1="405.7" x2="331.05" y2="409.53"/><line class="cls-2" x1="338.14" y1="407.56" x2="332.18" y2="411.45"/><line class="cls-2" x1="339.19" y1="409.05" x2="333.26" y2="412.98"/><line class="cls-2" x1="340.29" y1="410.9" x2="334.41" y2="414.89"/><line class="cls-2" x1="341.42" y1="412.34" x2="335.56" y2="416.38"/><line class="cls-2" x1="342.6" y1="414.14" x2="336.78" y2="418.23"/><line class="cls-2" x1="343.72" y1="415.58" x2="337.93" y2="419.72"/><line class="cls-2" x1="344.91" y1="417.38" x2="339.16" y2="421.57"/><line class="cls-2" x1="346.03" y1="418.82" x2="340.31" y2="423.06"/><line class="cls-2" x1="347.26" y1="420.59" x2="341.58" y2="424.88"/><line class="cls-2" x1="348.45" y1="421.97" x2="342.81" y2="426.31"/><line class="cls-2" x1="349.71" y1="423.72" x2="344.11" y2="428.1"/><line class="cls-2" x1="350.9" y1="425.1" x2="345.34" y2="429.53"/><line class="cls-2" x1="352.17" y1="426.84" x2="346.65" y2="431.33"/><line class="cls-2" x1="353.36" y1="428.23" x2="347.87" y2="432.75"/><line class="cls-2" x1="354.71" y1="429.91" x2="349.26" y2="434.49"/><line class="cls-2" x1="355.96" y1="431.24" x2="350.55" y2="435.86"/><line class="cls-2" x1="357.31" y1="432.92" x2="351.95" y2="437.59"/><line class="cls-2" x1="358.56" y1="434.24" x2="353.24" y2="438.95"/><line class="cls-2" x1="359.92" y1="435.92" x2="354.63" y2="440.68"/><line class="cls-2" x1="361.2" y1="437.22" x2="355.95" y2="442.02"/><line class="cls-2" x1="362.63" y1="438.83" x2="357.42" y2="443.69"/><line class="cls-2" x1="363.94" y1="440.1" x2="358.78" y2="444.99"/><line class="cls-2" x1="365.37" y1="441.71" x2="360.25" y2="446.65"/><line class="cls-2" x1="366.69" y1="442.98" x2="361.61" y2="447.96"/><line class="cls-2" x1="368.12" y1="444.59" x2="363.08" y2="449.62"/><line class="cls-2" x1="369.49" y1="445.8" x2="364.5" y2="450.86"/><line class="cls-2" x1="370.99" y1="447.34" x2="366.05" y2="452.45"/><line class="cls-2" x1="372.37" y1="448.54" x2="367.46" y2="453.69"/><line class="cls-2" x1="373.87" y1="450.08" x2="369.02" y2="455.28"/><line class="cls-2" x1="375.24" y1="451.28" x2="370.43" y2="456.52"/><line class="cls-2" x1="376.78" y1="452.8" x2="372.01" y2="458.08"/><line class="cls-2" x1="378.21" y1="453.93" x2="373.48" y2="459.25"/><line class="cls-2" x1="379.78" y1="455.4" x2="375.11" y2="460.77"/><line class="cls-2" x1="381.21" y1="456.54" x2="376.58" y2="461.94"/><line class="cls-2" x1="382.79" y1="458.01" x2="378.21" y2="463.45"/><line class="cls-2" x1="384.22" y1="459.14" x2="379.68" y2="464.62"/><line class="cls-2" x1="385.85" y1="460.55" x2="381.36" y2="466.07"/><line class="cls-2" x1="387.33" y1="461.61" x2="382.89" y2="467.17"/><line class="cls-2" x1="388.98" y1="463.01" x2="384.59" y2="468.6"/><line class="cls-2" x1="390.46" y1="464.07" x2="386.11" y2="469.7"/><line class="cls-2" x1="392.11" y1="465.47" x2="387.81" y2="471.14"/><line class="cls-2" x1="393.6" y1="466.51" x2="389.35" y2="472.22"/><line class="cls-2" x1="395.31" y1="467.82" x2="391.11" y2="473.57"/><line class="cls-2" x1="396.84" y1="468.81" x2="392.69" y2="474.59"/><line class="cls-2" x1="398.55" y1="470.13" x2="394.45" y2="475.95"/><line class="cls-2" x1="400.08" y1="471.12" x2="396.03" y2="476.97"/><line class="cls-2" x1="401.79" y1="472.43" x2="397.8" y2="478.32"/><line class="cls-2" x1="403.36" y1="473.37" x2="399.41" y2="479.29"/><line class="cls-2" x1="405.13" y1="474.6" x2="401.24" y2="480.55"/><line class="cls-2" x1="406.71" y1="475.52" x2="402.86" y2="481.5"/><line class="cls-2" x1="408.48" y1="476.75" x2="404.69" y2="482.77"/><line class="cls-2" x1="410.05" y1="477.66" x2="406.31" y2="483.71"/><line class="cls-2" x1="411.83" y1="478.88" x2="408.15" y2="484.96"/><line class="cls-2" x1="413.45" y1="479.72" x2="409.82" y2="485.83"/><line class="cls-2" x1="415.28" y1="480.86" x2="411.7" y2="487.01"/><line class="cls-2" x1="416.9" y1="481.7" x2="413.37" y2="487.88"/><line class="cls-2" x1="418.73" y1="482.84" x2="415.26" y2="489.05"/><line class="cls-2" x1="420.35" y1="483.68" x2="416.93" y2="489.92"/><line class="cls-2" x1="422.21" y1="484.77" x2="418.84" y2="491.04"/><line class="cls-2" x1="423.87" y1="485.53" x2="420.55" y2="491.83"/><line class="cls-2" x1="425.75" y1="486.59" x2="422.49" y2="492.91"/><line class="cls-2" x1="427.41" y1="487.35" x2="424.2" y2="493.7"/><line class="cls-2" x1="429.29" y1="488.4" x2="426.14" y2="494.78"/><line class="cls-2" x1="430.94" y1="489.16" x2="427.85" y2="495.57"/><line class="cls-2" x1="432.87" y1="490.13" x2="429.84" y2="496.56"/><line class="cls-2" x1="434.56" y1="490.8" x2="431.58" y2="497.26"/><line class="cls-2" x1="436.49" y1="491.76" x2="433.57" y2="498.25"/><line class="cls-2" x1="438.19" y1="492.44" x2="435.32" y2="498.95"/><line class="cls-2" x1="440.12" y1="493.4" x2="437.31" y2="499.94"/><line class="cls-2" x1="441.82" y1="494.05" x2="439.07" y2="500.61"/><line class="cls-2" x1="443.79" y1="494.92" x2="441.1" y2="501.5"/><line class="cls-2" x1="445.52" y1="495.51" x2="442.88" y2="502.12"/><line class="cls-2" x1="447.49" y1="496.37" x2="444.92" y2="503.01"/><line class="cls-2" x1="449.22" y1="496.97" x2="446.7" y2="503.62"/><line class="cls-2" x1="451.19" y1="497.83" x2="448.73" y2="504.51"/><line class="cls-2" x1="452.94" y1="498.37" x2="450.53" y2="505.06"/><line class="cls-2" x1="454.95" y1="499.13" x2="452.61" y2="505.85"/><line class="cls-2" x1="456.71" y1="499.64" x2="454.42" y2="506.37"/><line class="cls-2" x1="458.72" y1="500.41" x2="456.5" y2="507.16"/><line class="cls-2" x1="460.47" y1="500.91" x2="458.3" y2="507.69"/><line class="cls-2" x1="462.49" y1="501.67" x2="460.38" y2="508.47"/><line class="cls-2" x1="464.27" y1="502.09" x2="462.21" y2="508.9"/><line class="cls-2" x1="466.32" y1="502.76" x2="464.33" y2="509.59"/><line class="cls-2" x1="468.09" y1="503.18" x2="466.16" y2="510.03"/><line class="cls-2" x1="470.14" y1="503.85" x2="468.27" y2="510.71"/><line class="cls-2" x1="471.92" y1="504.27" x2="470.1" y2="511.14"/><line class="cls-2" x1="473.98" y1="504.89" x2="472.23" y2="511.79"/><line class="cls-2" x1="475.77" y1="505.23" x2="474.08" y2="512.14"/><line class="cls-2" x1="477.85" y1="505.79" x2="476.22" y2="512.71"/><line class="cls-2" x1="479.65" y1="506.12" x2="478.07" y2="513.06"/><line class="cls-2" x1="481.73" y1="506.68" x2="480.22" y2="513.64"/><line class="cls-2" x1="483.52" y1="507.02" x2="482.07" y2="513.98"/><line class="cls-2" x1="485.62" y1="507.51" x2="484.23" y2="514.49"/><line class="cls-2" x1="487.43" y1="507.76" x2="486.1" y2="514.74"/><line class="cls-2" x1="489.53" y1="508.21" x2="488.27" y2="515.21"/><line class="cls-2" x1="491.34" y1="508.46" x2="490.13" y2="515.47"/><line class="cls-2" x1="493.45" y1="508.91" x2="492.3" y2="515.93"/><line class="cls-2" x1="495.25" y1="509.16" x2="494.17" y2="516.19"/><line class="cls-2" x1="497.38" y1="509.53" x2="496.36" y2="516.57"/><line class="cls-2" x1="499.2" y1="509.68" x2="498.23" y2="516.72"/><line class="cls-2" x1="501.32" y1="510.03" x2="500.42" y2="517.08"/><line class="cls-2" x1="503.14" y1="510.18" x2="502.3" y2="517.24"/><line class="cls-2" x1="505.27" y1="510.53" x2="504.49" y2="517.6"/><line class="cls-2" x1="507.08" y1="510.68" x2="506.36" y2="517.76"/><line class="cls-2" x1="509.23" y1="510.93" x2="508.57" y2="518.01"/><line class="cls-2" x1="511.05" y1="510.98" x2="510.45" y2="518.07"/><line class="cls-2" x1="513.19" y1="511.23" x2="512.66" y2="518.32"/><line class="cls-2" x1="515.02" y1="511.29" x2="514.54" y2="518.38"/><line class="cls-2" x1="517.16" y1="511.53" x2="516.75" y2="518.63"/><line class="cls-2" x1="518.98" y1="511.58" x2="518.62" y2="518.69"/><line class="cls-2" x1="521.13" y1="511.71" x2="520.84" y2="518.82"/><line class="cls-2" x1="522.96" y1="511.68" x2="522.72" y2="518.79"/><line class="cls-2" x1="525.11" y1="511.82" x2="524.94" y2="518.93"/><line class="cls-2" x1="526.93" y1="511.78" x2="526.82" y2="518.89"/><line class="cls-2" x1="529.09" y1="511.92" x2="529.04" y2="519.03"/><line class="cls-2" x1="530.91" y1="511.87" x2="530.92" y2="518.98"/><line class="cls-2" x1="533.06" y1="511.9" x2="533.14" y2="519.01"/><line class="cls-2" x1="534.88" y1="511.77" x2="535.01" y2="518.88"/><line class="cls-2" x1="537.04" y1="511.79" x2="537.24" y2="518.91"/><line class="cls-2" x1="538.86" y1="511.67" x2="539.11" y2="518.78"/><line class="cls-2" x1="541.02" y1="511.69" x2="541.33" y2="518.8"/><line class="cls-2" x1="542.84" y1="511.55" x2="543.21" y2="518.66"/><line class="cls-2" x1="544.99" y1="511.47" x2="545.43" y2="518.57"/><line class="cls-2" x1="546.8" y1="511.25" x2="547.29" y2="518.35"/><line class="cls-2" x1="548.96" y1="511.16" x2="549.51" y2="518.26"/><line class="cls-2" x1="550.77" y1="510.95" x2="551.38" y2="518.03"/><line class="cls-2" x1="552.92" y1="510.86" x2="553.6" y2="517.94"/><line class="cls-2" x1="554.73" y1="510.62" x2="555.47" y2="517.69"/><line class="cls-2" x1="556.87" y1="510.42" x2="557.68" y2="517.49"/><line class="cls-2" x1="558.67" y1="510.12" x2="559.53" y2="517.18"/><line class="cls-2" x1="560.82" y1="509.92" x2="561.75" y2="516.98"/><line class="cls-2" x1="562.62" y1="509.61" x2="563.6" y2="516.66"/><line class="cls-2" x1="564.77" y1="509.42" x2="565.81" y2="516.46"/><line class="cls-2" x1="566.56" y1="509.07" x2="567.66" y2="516.1"/><line class="cls-2" x1="568.69" y1="508.77" x2="569.86" y2="515.78"/><line class="cls-2" x1="570.47" y1="508.37" x2="571.69" y2="515.38"/><line class="cls-2" x1="572.6" y1="508.07" x2="573.89" y2="515.06"/><line class="cls-2" x1="574.38" y1="507.67" x2="575.73" y2="514.65"/><line class="cls-2" x1="576.52" y1="507.37" x2="577.93" y2="514.34"/><line class="cls-2" x1="578.28" y1="506.9" x2="579.75" y2="513.86"/><line class="cls-2" x1="580.4" y1="506.5" x2="581.93" y2="513.44"/><line class="cls-2" x1="582.16" y1="506.01" x2="583.75" y2="512.94"/><line class="cls-2" x1="584.27" y1="505.6" x2="585.93" y2="512.52"/><line class="cls-2" x1="586.03" y1="505.12" x2="587.74" y2="512.02"/><line class="cls-2" x1="588.15" y1="504.71" x2="589.92" y2="511.59"/><line class="cls-2" x1="589.88" y1="504.13" x2="591.71" y2="511"/><line class="cls-2" x1="591.98" y1="503.62" x2="593.87" y2="510.48"/><line class="cls-2" x1="593.71" y1="503.04" x2="595.66" y2="509.89"/><line class="cls-2" x1="595.8" y1="502.53" x2="597.81" y2="509.36"/><line class="cls-2" x1="597.53" y1="501.96" x2="599.6" y2="508.76"/><line class="cls-2" x1="599.62" y1="501.42" x2="601.75" y2="508.2"/><line class="cls-2" x1="601.32" y1="500.75" x2="603.51" y2="507.52"/><line class="cls-2" x1="603.38" y1="500.14" x2="605.64" y2="506.89"/><line class="cls-2" x1="605.09" y1="499.48" x2="607.39" y2="506.21"/><line class="cls-2" x1="607.15" y1="498.87" x2="609.52" y2="505.57"/><line class="cls-2" x1="608.85" y1="498.21" x2="611.27" y2="504.9"/><line class="cls-2" x1="610.9" y1="497.53" x2="613.38" y2="504.2"/><line class="cls-2" x1="612.56" y1="496.79" x2="615.1" y2="503.43"/><line class="cls-2" x1="614.6" y1="496.07" x2="617.2" y2="502.69"/><line class="cls-2" x1="616.26" y1="495.33" x2="618.92" y2="501.93"/><line class="cls-2" x1="618.3" y1="494.61" x2="621.01" y2="501.19"/><line class="cls-2" x1="619.96" y1="493.87" x2="622.73" y2="500.42"/><line class="cls-2" x1="621.96" y1="493.06" x2="624.79" y2="499.59"/><line class="cls-2" x1="623.59" y1="492.24" x2="626.47" y2="498.74"/><line class="cls-2" x1="625.58" y1="491.42" x2="628.52" y2="497.9"/><line class="cls-2" x1="627.21" y1="490.6" x2="630.2" y2="497.05"/><line class="cls-2" x1="629.21" y1="489.78" x2="632.26" y2="496.21"/><line class="cls-2" x1="630.82" y1="488.93" x2="633.93" y2="495.33"/><line class="cls-2" x1="632.77" y1="488.02" x2="635.94" y2="494.39"/><line class="cls-2" x1="634.36" y1="487.12" x2="637.57" y2="493.47"/><line class="cls-2" x1="636.31" y1="486.21" x2="639.59" y2="492.52"/><line class="cls-2" x1="637.9" y1="485.31" x2="641.22" y2="491.6"/><line class="cls-2" x1="639.85" y1="484.4" x2="643.24" y2="490.65"/><line class="cls-2" x1="641.4" y1="483.43" x2="644.84" y2="489.66"/><line class="cls-2" x1="643.31" y1="482.43" x2="646.8" y2="488.63"/><line class="cls-2" x1="644.85" y1="481.45" x2="648.39" y2="487.62"/><line class="cls-2" x1="646.76" y1="480.45" x2="650.36" y2="486.58"/><line class="cls-2" x1="648.3" y1="479.47" x2="651.95" y2="485.58"/><line class="cls-2" x1="650.19" y1="478.45" x2="653.9" y2="484.52"/><line class="cls-2" x1="651.69" y1="477.39" x2="655.44" y2="483.44"/><line class="cls-2" x1="653.54" y1="476.3" x2="657.35" y2="482.31"/><line class="cls-2" x1="655.03" y1="475.25" x2="658.89" y2="481.23"/><line class="cls-2" x1="656.89" y1="474.15" x2="660.8" y2="480.09"/><line class="cls-2" x1="658.38" y1="473.1" x2="662.34" y2="479.01"/><line class="cls-2" x1="660.2" y1="471.95" x2="664.22" y2="477.83"/><line class="cls-2" x1="661.64" y1="470.83" x2="665.71" y2="476.67"/><line class="cls-2" x1="663.45" y1="469.65" x2="667.56" y2="475.45"/><line class="cls-2" x1="664.89" y1="468.53" x2="669.05" y2="474.3"/><line class="cls-2" x1="666.69" y1="467.34" x2="670.9" y2="473.07"/><line class="cls-2" x1="668.13" y1="466.22" x2="672.39" y2="471.92"/><line class="cls-2" x1="669.87" y1="464.95" x2="674.18" y2="470.61"/><line class="cls-2" x1="671.25" y1="463.76" x2="675.61" y2="469.39"/><line class="cls-2" x1="672.99" y1="462.5" x2="677.41" y2="468.08"/><line class="cls-2" x1="674.38" y1="461.31" x2="678.83" y2="466.85"/><line class="cls-2" x1="676.12" y1="460.04" x2="680.63" y2="465.54"/><line class="cls-2" x1="677.48" y1="458.82" x2="682.03" y2="464.29"/><line class="cls-2" x1="679.16" y1="457.47" x2="683.76" y2="462.89"/><line class="cls-2" x1="680.48" y1="456.21" x2="685.13" y2="461.6"/><line class="cls-2" x1="682.16" y1="454.86" x2="686.86" y2="460.21"/><line class="cls-2" x1="683.49" y1="453.61" x2="688.22" y2="458.92"/><line class="cls-2" x1="685.17" y1="452.26" x2="689.96" y2="457.52"/><line class="cls-2" x1="686.44" y1="450.94" x2="691.26" y2="456.17"/><line class="cls-2" x1="688.05" y1="449.51" x2="692.92" y2="454.69"/><line class="cls-2" x1="689.31" y1="448.2" x2="694.23" y2="453.34"/><line class="cls-2" x1="690.93" y1="446.77" x2="695.89" y2="451.86"/><line class="cls-2" x1="692.19" y1="445.45" x2="697.19" y2="450.51"/><line class="cls-2" x1="693.78" y1="443.99" x2="698.83" y2="449"/><line class="cls-2" x1="694.98" y1="442.62" x2="700.07" y2="447.59"/><line class="cls-2" x1="696.52" y1="441.11" x2="701.66" y2="446.04"/><line class="cls-2" x1="697.72" y1="439.74" x2="702.9" y2="444.62"/><line class="cls-2" x1="699.27" y1="438.23" x2="704.49" y2="443.07"/><line class="cls-2" x1="700.47" y1="436.86" x2="705.72" y2="441.65"/><line class="cls-2" x1="701.95" y1="435.3" x2="707.25" y2="440.04"/><line class="cls-2" x1="703.08" y1="433.87" x2="708.42" y2="438.57"/><line class="cls-2" x1="704.55" y1="432.29" x2="709.93" y2="436.94"/><line class="cls-2" x1="705.68" y1="430.86" x2="711.1" y2="435.47"/><line class="cls-2" x1="707.16" y1="429.28" x2="712.62" y2="433.84"/><line class="cls-2" x1="708.27" y1="427.84" x2="713.77" y2="432.35"/><line class="cls-2" x1="709.66" y1="426.19" x2="715.2" y2="430.66"/><line class="cls-2" x1="710.72" y1="424.71" x2="716.3" y2="429.13"/><line class="cls-2" x1="712.12" y1="423.07" x2="717.73" y2="427.43"/><line class="cls-2" x1="713.18" y1="421.58" x2="718.83" y2="425.91"/><line class="cls-2" x1="714.58" y1="419.94" x2="720.27" y2="424.21"/><line class="cls-2" x1="715.58" y1="418.42" x2="721.31" y2="422.64"/><line class="cls-2" x1="716.9" y1="416.71" x2="722.66" y2="420.88"/><line class="cls-2" x1="717.89" y1="415.17" x2="723.68" y2="419.3"/><line class="cls-2" x1="719.2" y1="413.46" x2="725.03" y2="417.53"/><line class="cls-2" x1="720.19" y1="411.93" x2="726.06" y2="415.96"/><line class="cls-2" x1="721.49" y1="410.21" x2="727.39" y2="414.18"/><line class="cls-2" x1="722.4" y1="408.63" x2="728.34" y2="412.55"/><line class="cls-2" x1="723.63" y1="406.86" x2="729.6" y2="410.73"/><line class="cls-2" x1="724.55" y1="405.28" x2="730.55" y2="409.1"/><line class="cls-2" x1="725.78" y1="403.51" x2="731.82" y2="407.27"/><line class="cls-2" x1="726.7" y1="401.94" x2="732.76" y2="405.65"/><line class="cls-2" x1="727.87" y1="400.13" x2="733.97" y2="403.79"/><line class="cls-2" x1="728.71" y1="398.51" x2="734.84" y2="402.12"/><line class="cls-2" x1="729.85" y1="396.68" x2="736.02" y2="400.23"/><line class="cls-2" x1="730.69" y1="395.06" x2="736.88" y2="398.56"/><line class="cls-2" x1="731.83" y1="393.23" x2="738.06" y2="396.68"/><line class="cls-2" x1="732.67" y1="391.61" x2="738.92" y2="395.01"/><line class="cls-2" x1="733.72" y1="389.73" x2="740.01" y2="393.07"/><line class="cls-2" x1="734.48" y1="388.07" x2="740.79" y2="391.36"/><line class="cls-2" x1="735.54" y1="386.19" x2="741.88" y2="389.42"/><line class="cls-2" x1="736.3" y1="384.54" x2="742.66" y2="387.71"/><line class="cls-2" x1="737.35" y1="382.65" x2="743.75" y2="385.77"/><line class="cls-2" x1="738.07" y1="380.98" x2="744.49" y2="384.04"/><line class="cls-2" x1="739.03" y1="379.05" x2="745.48" y2="382.05"/><line class="cls-2" x1="739.71" y1="377.36" x2="746.18" y2="380.31"/><line class="cls-2" x1="740.67" y1="375.43" x2="747.17" y2="378.32"/><line class="cls-2" x1="741.35" y1="373.73" x2="747.87" y2="376.57"/><line class="cls-2" x1="742.31" y1="371.8" x2="748.86" y2="374.58"/><line class="cls-2" x1="742.91" y1="370.08" x2="749.48" y2="372.8"/><line class="cls-2" x1="743.78" y1="368.11" x2="750.37" y2="370.77"/><line class="cls-2" x1="744.37" y1="366.38" x2="750.99" y2="368.99"/><line class="cls-2" x1="745.24" y1="364.41" x2="751.88" y2="366.95"/><line class="cls-2" x1="745.83" y1="362.68" x2="752.49" y2="365.18"/><line class="cls-2" x1="746.67" y1="360.7" x2="753.36" y2="363.13"/><line class="cls-2" x1="747.18" y1="358.94" x2="753.88" y2="361.32"/><line class="cls-2" x1="747.95" y1="356.93" x2="754.67" y2="359.24"/><line class="cls-2" x1="748.45" y1="355.18" x2="755.2" y2="357.44"/><line class="cls-2" x1="749.22" y1="353.16" x2="755.99" y2="355.36"/><line class="cls-2" x1="749.73" y1="351.41" x2="756.51" y2="353.55"/><line class="cls-2" x1="750.44" y1="349.38" x2="757.24" y2="351.46"/><line class="cls-2" x1="750.86" y1="347.6" x2="757.68" y2="349.63"/><line class="cls-2" x1="751.53" y1="345.55" x2="758.36" y2="347.51"/><line class="cls-2" x1="751.95" y1="343.78" x2="758.8" y2="345.68"/><line class="cls-2" x1="752.61" y1="341.73" x2="759.48" y2="343.57"/><line class="cls-2" x1="753.03" y1="339.95" x2="759.92" y2="341.74"/><line class="cls-2" x1="753.61" y1="337.88" x2="760.52" y2="339.6"/><line class="cls-2" x1="753.95" y1="336.08" x2="760.86" y2="337.75"/><line class="cls-2" x1="754.51" y1="334" x2="761.44" y2="335.6"/><line class="cls-2" x1="754.84" y1="332.21" x2="761.78" y2="333.75"/><line class="cls-2" x1="755.4" y1="330.13" x2="762.36" y2="331.61"/><line class="cls-2" x1="755.73" y1="328.33" x2="762.7" y2="329.76"/><line class="cls-2" x1="756.19" y1="326.23" x2="763.17" y2="327.59"/><line class="cls-2" x1="756.43" y1="324.42" x2="763.42" y2="325.72"/><line class="cls-2" x1="756.88" y1="322.31" x2="763.89" y2="323.55"/><line class="cls-2" x1="757.13" y1="320.51" x2="764.14" y2="321.68"/><line class="cls-2" x1="757.58" y1="318.4" x2="764.61" y2="319.51"/><line class="cls-2" x1="757.8" y1="316.59" x2="764.83" y2="317.64"/><line class="cls-2" x1="758.15" y1="314.46" x2="765.19" y2="315.45"/><line class="cls-2" x1="758.3" y1="312.64" x2="765.35" y2="313.58"/><line class="cls-2" x1="758.65" y1="310.52" x2="765.71" y2="311.38"/><line class="cls-2" x1="758.8" y1="308.7" x2="765.87" y2="309.51"/><line class="cls-2" x1="759.15" y1="306.57" x2="766.22" y2="307.32"/><line class="cls-2" x1="759.26" y1="304.75" x2="766.34" y2="305.44"/><line class="cls-2" x1="759.5" y1="302.61" x2="766.58" y2="303.23"/><line class="cls-2" x1="759.56" y1="300.78" x2="766.65" y2="301.35"/><line class="cls-2" x1="759.8" y1="298.64" x2="766.89" y2="299.14"/><line class="cls-2" x1="759.86" y1="296.82" x2="766.96" y2="297.27"/><line class="cls-2" x1="760.1" y1="294.67" x2="767.2" y2="295.06"/><line class="cls-2" x1="760.1" y1="292.85" x2="767.21" y2="293.18"/><line class="cls-2" x1="760.24" y1="290.7" x2="767.34" y2="290.96"/><line class="cls-2" x1="760.2" y1="288.87" x2="767.31" y2="289.08"/><line class="cls-2" x1="760.34" y1="286.72" x2="767.45" y2="286.86"/><line class="cls-2" x1="760.3" y1="284.9" x2="767.42" y2="284.98"/><line class="cls-2" x1="760.44" y1="282.74" x2="767.55" y2="282.76"/><circle class="cls-6" cx="531.03" cy="282.11" r="247.25"/><circle class="cls-5" cx="531.03" cy="282.16" r="236.9"/><line class="cls-6" x1="767.55" y1="268.18" x2="777.84" y2="267.58"/><line class="cls-6" x1="766.56" y1="256.21" x2="776.8" y2="255.09"/><line class="cls-6" x1="764.51" y1="241.78" x2="774.66" y2="240.04"/><line class="cls-6" x1="762.18" y1="230" x2="772.23" y2="227.74"/><line class="cls-6" x1="758.55" y1="215.89" x2="768.44" y2="213.02"/><line class="cls-6" x1="754.91" y1="204.45" x2="764.64" y2="201.07"/><line class="cls-6" x1="749.75" y1="190.82" x2="759.26" y2="186.85"/><line class="cls-6" x1="744.85" y1="179.86" x2="754.14" y2="175.41"/><line class="cls-6" x1="738.12" y1="166.93" x2="747.12" y2="161.92"/><line class="cls-6" x1="732" y1="156.6" x2="740.73" y2="151.13"/><line class="cls-6" x1="723.88" y1="144.5" x2="732.26" y2="138.51"/><line class="cls-6" x1="716.65" y1="134.9" x2="724.72" y2="128.5"/><line class="cls-6" x1="707.28" y1="123.75" x2="714.94" y2="116.86"/><line class="cls-6" x1="699.03" y1="115.01" x2="706.34" y2="107.75"/><line class="cls-6" x1="688.42" y1="105.02" x2="695.27" y2="97.33"/><line class="cls-6" x1="679.24" y1="97.27" x2="685.69" y2="89.24"/><line class="cls-6" x1="667.6" y1="88.51" x2="673.54" y2="80.1"/><line class="cls-6" x1="657.62" y1="81.83" x2="663.13" y2="73.13"/><line class="cls-6" x1="645.09" y1="74.38" x2="650.06" y2="65.36"/><line class="cls-6" x1="634.43" y1="68.85" x2="638.93" y2="59.58"/><line class="cls-6" x1="621.12" y1="62.92" x2="625.04" y2="53.39"/><line class="cls-6" x1="609.9" y1="58.64" x2="613.33" y2="48.93"/><line class="cls-6" x1="596.02" y1="54.24" x2="598.84" y2="44.33"/><line class="cls-6" x1="584.39" y1="51.25" x2="586.7" y2="41.21"/><line class="cls-6" x1="570.1" y1="48.41" x2="571.78" y2="38.24"/><line class="cls-6" x1="558.2" y1="46.74" x2="559.37" y2="36.51"/><line class="cls-6" x1="543.68" y1="45.49" x2="544.22" y2="35.2"/><line class="cls-6" x1="531.01" y1="45.16" x2="531.04" y2="34.86"/><line class="cls-6" x1="517.1" y1="45.58" x2="516.5" y2="35.3"/><line class="cls-6" x1="505.13" y1="46.58" x2="504.01" y2="36.34"/><line class="cls-6" x1="490.7" y1="48.63" x2="488.96" y2="38.48"/><line class="cls-6" x1="478.92" y1="50.96" x2="476.67" y2="40.91"/><line class="cls-6" x1="464.81" y1="54.59" x2="461.94" y2="44.7"/><line class="cls-6" x1="453.37" y1="58.23" x2="449.99" y2="48.5"/><line class="cls-6" x1="439.75" y1="63.39" x2="435.77" y2="53.88"/><line class="cls-6" x1="428.78" y1="68.29" x2="424.33" y2="59"/><line class="cls-6" x1="415.86" y1="75.02" x2="410.84" y2="66.02"/><line class="cls-6" x1="405.52" y1="81.14" x2="400.06" y2="72.41"/><line class="cls-6" x1="393.42" y1="89.26" x2="387.43" y2="80.87"/><line class="cls-6" x1="383.83" y1="96.48" x2="377.42" y2="88.42"/><line class="cls-6" x1="372.67" y1="105.86" x2="365.78" y2="98.2"/><line class="cls-6" x1="363.93" y1="114.11" x2="356.67" y2="106.8"/><line class="cls-6" x1="353.95" y1="124.72" x2="346.25" y2="117.87"/><line class="cls-6" x1="346.2" y1="133.9" x2="338.16" y2="127.45"/><line class="cls-6" x1="337.44" y1="145.54" x2="329.02" y2="139.6"/><line class="cls-6" x1="330.75" y1="155.52" x2="322.05" y2="150.01"/><line class="cls-6" x1="323.31" y1="168.04" x2="314.28" y2="163.08"/><line class="cls-6" x1="317.77" y1="178.71" x2="308.51" y2="174.21"/><line class="cls-6" x1="311.84" y1="192.01" x2="302.31" y2="188.09"/><line class="cls-6" x1="307.56" y1="203.24" x2="297.85" y2="199.81"/><line class="cls-6" x1="303.16" y1="217.12" x2="293.25" y2="214.3"/><line class="cls-6" x1="300.17" y1="228.75" x2="290.13" y2="226.44"/><line class="cls-6" x1="297.33" y1="243.04" x2="287.17" y2="241.35"/><line class="cls-6" x1="295.66" y1="254.94" x2="285.43" y2="253.77"/><line class="cls-6" x1="294.41" y1="269.45" x2="284.12" y2="268.91"/><line class="cls-6" x1="294.08" y1="281.47" x2="283.78" y2="281.44"/><line class="cls-6" x1="294.51" y1="296.04" x2="284.22" y2="296.63"/><line class="cls-6" x1="295.5" y1="308.01" x2="285.26" y2="309.12"/><line class="cls-6" x1="297.55" y1="322.44" x2="287.4" y2="324.18"/><line class="cls-6" x1="299.89" y1="334.22" x2="289.83" y2="336.47"/><line class="cls-6" x1="303.51" y1="348.32" x2="293.62" y2="351.2"/><line class="cls-6" x1="307.15" y1="359.77" x2="297.42" y2="363.14"/><line class="cls-6" x1="312.31" y1="373.39" x2="302.81" y2="377.37"/><line class="cls-6" x1="317.21" y1="384.36" x2="307.92" y2="388.81"/><line class="cls-6" x1="323.94" y1="397.28" x2="314.94" y2="402.3"/><line class="cls-6" x1="330.06" y1="407.62" x2="321.33" y2="413.08"/><line class="cls-6" x1="338.18" y1="419.72" x2="329.8" y2="425.71"/><line class="cls-6" x1="345.41" y1="429.31" x2="337.34" y2="435.72"/><line class="cls-6" x1="354.78" y1="440.47" x2="347.12" y2="447.35"/><line class="cls-6" x1="363.03" y1="449.2" x2="355.73" y2="456.47"/><line class="cls-6" x1="373.64" y1="459.19" x2="366.79" y2="466.89"/><line class="cls-6" x1="382.82" y1="466.94" x2="376.37" y2="474.97"/><line class="cls-6" x1="394.46" y1="475.7" x2="388.52" y2="484.12"/><line class="cls-6" x1="404.44" y1="482.39" x2="398.93" y2="491.09"/><line class="cls-6" x1="416.97" y1="489.83" x2="412" y2="498.86"/><line class="cls-6" x1="427.63" y1="495.36" x2="423.13" y2="504.63"/><line class="cls-6" x1="440.94" y1="501.3" x2="437.02" y2="510.82"/><line class="cls-6" x1="452.16" y1="505.57" x2="448.73" y2="515.29"/><line class="cls-6" x1="466.04" y1="509.98" x2="463.22" y2="519.88"/><line class="cls-6" x1="477.67" y1="512.97" x2="475.36" y2="523.01"/><line class="cls-6" x1="491.96" y1="515.81" x2="490.28" y2="525.97"/><line class="cls-6" x1="503.86" y1="517.47" x2="502.69" y2="527.71"/><line class="cls-6" x1="518.38" y1="518.73" x2="517.84" y2="529.02"/><line class="cls-6" x1="531.04" y1="519.06" x2="531.01" y2="529.36"/><line class="cls-6" x1="544.96" y1="518.63" x2="545.56" y2="528.92"/><line class="cls-6" x1="556.93" y1="517.64" x2="558.05" y2="527.88"/><line class="cls-6" x1="571.36" y1="515.58" x2="573.1" y2="525.74"/><line class="cls-6" x1="583.14" y1="513.25" x2="585.39" y2="523.31"/><line class="cls-6" x1="597.25" y1="509.63" x2="600.12" y2="519.52"/><line class="cls-6" x1="608.69" y1="505.98" x2="612.07" y2="515.72"/><line class="cls-6" x1="622.32" y1="500.83" x2="626.29" y2="510.33"/><line class="cls-6" x1="633.28" y1="495.92" x2="637.73" y2="505.22"/><line class="cls-6" x1="646.2" y1="489.19" x2="651.22" y2="498.19"/><line class="cls-6" x1="656.54" y1="483.08" x2="662.01" y2="491.81"/><line class="cls-6" x1="668.64" y1="474.96" x2="674.63" y2="483.34"/><line class="cls-6" x1="678.23" y1="467.73" x2="684.64" y2="475.8"/><line class="cls-6" x1="689.39" y1="458.35" x2="696.28" y2="466.02"/><line class="cls-6" x1="698.13" y1="450.11" x2="705.39" y2="457.41"/><line class="cls-6" x1="708.11" y1="439.5" x2="715.81" y2="446.34"/><line class="cls-6" x1="715.86" y1="430.32" x2="723.9" y2="436.77"/><line class="cls-6" x1="724.62" y1="418.67" x2="733.04" y2="424.62"/><line class="cls-6" x1="731.31" y1="408.7" x2="740.01" y2="414.21"/><line class="cls-6" x1="738.76" y1="396.17" x2="747.78" y2="401.14"/><line class="cls-6" x1="744.29" y1="385.51" x2="753.55" y2="390.01"/><line class="cls-6" x1="750.22" y1="372.2" x2="759.75" y2="376.12"/><line class="cls-6" x1="754.5" y1="360.98" x2="764.21" y2="364.41"/><line class="cls-6" x1="758.9" y1="347.09" x2="768.81" y2="349.91"/><line class="cls-6" x1="761.89" y1="335.46" x2="771.93" y2="337.77"/><line class="cls-6" x1="764.73" y1="321.18" x2="774.9" y2="322.86"/><line class="cls-6" x1="766.4" y1="309.28" x2="776.63" y2="310.45"/><line class="cls-6" x1="767.65" y1="294.76" x2="777.94" y2="295.3"/><line class="cls-6" x1="767.98" y1="282.75" x2="778.28" y2="282.78"/><circle class="cls-4" cx="531.03" cy="282.16" r="229.76"/></g><g class="cls-1"><path class="cls-3" d="m31.58,40.14c-1.18-.26-2.09-1.19-2.3-2.38-.07-.36-.15-.71-.26-.98h0c-.11.27-.19.61-.26.98-.21,1.19-1.13,2.13-2.31,2.38-.29.06-.49.11-.49.11.2.08.42.15.64.2,1.12.28,1.96,1.22,2.18,2.35.06.34.14.66.24.91h0c.1-.25.18-.57.24-.91.21-1.14,1.05-2.07,2.18-2.35.22-.06.44-.12.64-.2,0,0-.2-.05-.5-.11Z"/><path class="cls-3" d="m212.8,49.63c-1.18-.26-2.09-1.19-2.3-2.38-.07-.36-.15-.71-.26-.98h0c-.11.27-.19.61-.26.98-.21,1.19-1.13,2.13-2.31,2.38-.29.06-.49.11-.49.11.2.08.42.15.64.2,1.12.28,1.96,1.22,2.18,2.35.06.34.14.66.24.91h0c.1-.25.18-.57.24-.91.21-1.14,1.05-2.07,2.18-2.35.22-.06.44-.12.64-.2,0,0-.2-.05-.5-.11Z"/><path class="cls-3" d="m88.95,178.54c-1.18-.26-2.09-1.19-2.3-2.38-.07-.36-.15-.71-.26-.98h0c-.11.27-.19.61-.26.98-.21,1.19-1.13,2.13-2.31,2.38-.29.06-.49.11-.49.11.2.08.42.15.64.2,1.12.28,1.96,1.22,2.18,2.35.06.34.14.66.24.91h0c.1-.25.18-.57.24-.91.21-1.14,1.05-2.07,2.18-2.35.22-.06.44-.12.64-.2,0,0-.2-.05-.5-.11Z"/><path class="cls-3" d="m69.84,163.63c-2.22-.48-3.95-2.25-4.35-4.49-.12-.69-.28-1.34-.48-1.85h0c-.2.51-.36,1.16-.48,1.85-.4,2.25-2.14,4.02-4.37,4.5-.55.12-.93.2-.93.2.38.15.79.28,1.21.38,2.12.53,3.71,2.3,4.12,4.45.12.64.27,1.24.46,1.72h0c.19-.48.34-1.08.46-1.72.4-2.15,1.99-3.92,4.12-4.45.42-.11.83-.23,1.21-.38,0,0-.38-.09-.95-.21Z"/><path class="cls-3" d="m182.27,132.1c-2.22-.48-3.95-2.25-4.35-4.49-.12-.69-.28-1.34-.48-1.85h0c-.2.51-.36,1.16-.48,1.85-.4,2.25-2.14,4.02-4.37,4.5-.55.12-.93.2-.93.2.38.15.79.28,1.21.38,2.12.53,3.71,2.3,4.12,4.45.12.64.27,1.24.46,1.72h0c.19-.48.34-1.08.46-1.72.4-2.15,1.99-3.92,4.12-4.45.42-.11.83-.23,1.21-.38,0,0-.38-.09-.95-.21Z"/><path class="cls-3" d="m120,210.7c-2.22-.48-3.95-2.25-4.35-4.49-.12-.69-.28-1.34-.48-1.85h0c-.2.51-.36,1.16-.48,1.85-.4,2.25-2.14,4.02-4.37,4.5-.55.12-.93.2-.93.2.38.15.79.28,1.21.38,2.12.53,3.71,2.3,4.12,4.45.12.64.27,1.24.46,1.72h0c.19-.48.34-1.08.46-1.72.4-2.15,1.99-3.92,4.12-4.45.42-.11.83-.23,1.21-.38,0,0-.38-.09-.95-.21Z"/><path class="cls-3" d="m150.89,116.78c-2.22-.48-3.95-2.25-4.35-4.49-.12-.69-.28-1.34-.48-1.85h0c-.2.51-.36,1.16-.48,1.85-.4,2.25-2.14,4.02-4.37,4.5-.55.12-.93.2-.93.2.38.15.79.28,1.21.38,2.12.53,3.71,2.3,4.12,4.45.12.64.27,1.24.46,1.72h0c.19-.48.34-1.08.46-1.72.4-2.15,1.99-3.92,4.12-4.45.42-.11.83-.23,1.21-.38,0,0-.38-.09-.95-.21Z"/><path class="cls-3" d="m186.56,56.22c-3.9-.85-6.93-3.95-7.64-7.88-.22-1.21-.49-2.34-.85-3.24h0c-.35.9-.63,2.04-.85,3.25-.71,3.94-3.75,7.05-7.67,7.89-.97.21-1.63.36-1.63.36.67.26,1.38.48,2.12.67,3.73.94,6.51,4.03,7.22,7.81.21,1.13.48,2.18.81,3.02h0c.33-.84.6-1.89.81-3.02.71-3.78,3.49-6.87,7.22-7.81.74-.19,1.45-.41,2.12-.67,0,0-.67-.16-1.66-.37Z"/><path class="cls-3" d="m147.3,177.95c-3.9-.85-6.93-3.95-7.64-7.88-.22-1.21-.49-2.34-.85-3.24h0c-.35.9-.63,2.04-.85,3.25-.71,3.94-3.75,7.05-7.67,7.89-.97.21-1.63.36-1.63.36.67.26,1.38.48,2.12.67,3.73.94,6.51,4.03,7.22,7.81.21,1.13.48,2.18.81,3.02h0c.33-.84.6-1.89.81-3.02.71-3.78,3.49-6.87,7.22-7.81.74-.19,1.45-.41,2.12-.67,0,0-.67-.16-1.66-.37Z"/><path class="cls-3" d="m29.64,116.78c-2.22-.48-3.95-2.25-4.35-4.49-.12-.69-.28-1.34-.48-1.85h0c-.2.51-.36,1.16-.48,1.85-.4,2.25-2.14,4.02-4.37,4.5-.55.12-.93.2-.93.2.38.15.79.28,1.21.38,2.12.53,3.71,2.3,4.12,4.45.12.64.27,1.24.46,1.72h0c.19-.48.34-1.08.46-1.72.4-2.15,1.99-3.92,4.12-4.45.42-.11.83-.23,1.21-.38,0,0-.38-.09-.95-.21Z"/><line class="cls-3" x1="133.09" y1="38.46" x2="136.02" y2="38.46"/><line class="cls-3" x1="137.35" y1="38.46" x2="140.29" y2="38.46"/><line class="cls-3" x1="136.69" y1="34.86" x2="136.69" y2="37.59"/><line class="cls-3" x1="136.69" y1="39.33" x2="136.69" y2="42.06"/><path class="cls-3" d="m136.69,36.4c0,1.95-.1,2.06-1.82,2.06,1.72,0,1.82.11,1.82,2.06,0-1.95.1-2.06,1.82-2.06-1.72,0-1.82-.11-1.82-2.06Z"/><line class="cls-3" x1="143.79" y1="79.93" x2="148.91" y2="79.93"/><line class="cls-3" x1="151.24" y1="79.93" x2="156.37" y2="79.93"/><line class="cls-3" x1="150.08" y1="73.64" x2="150.08" y2="78.41"/><line class="cls-3" x1="150.08" y1="81.45" x2="150.08" y2="86.22"/><path class="cls-3" d="m150.08,76.33c0,3.41-.17,3.6-3.18,3.6,3.01,0,3.18.19,3.18,3.6,0-3.41.17-3.6,3.18-3.6-3.01,0-3.18-.19-3.18-3.6Z"/><line class="cls-3" x1="110.89" y1="148.42" x2="113.83" y2="148.42"/><line class="cls-3" x1="115.16" y1="148.42" x2="118.1" y2="148.42"/><line class="cls-3" x1="114.49" y1="144.82" x2="114.49" y2="147.55"/><line class="cls-3" x1="114.49" y1="149.29" x2="114.49" y2="152.02"/><path class="cls-3" d="m114.49,146.36c0,1.95-.1,2.06-1.82,2.06,1.72,0,1.82.11,1.82,2.06,0-1.95.1-2.06,1.82-2.06-1.72,0-1.82-.11-1.82-2.06Z"/><line class="cls-3" x1="194.89" y1="78" x2="197.82" y2="78"/><line class="cls-3" x1="199.15" y1="78" x2="202.09" y2="78"/><line class="cls-3" x1="198.49" y1="74.4" x2="198.49" y2="77.13"/><line class="cls-3" x1="198.49" y1="78.87" x2="198.49" y2="81.6"/><path class="cls-3" d="m198.49,75.94c0,1.95-.1,2.06-1.82,2.06,1.72,0,1.82.11,1.82,2.06,0-1.95.1-2.06,1.82-2.06-1.72,0-1.82-.11-1.82-2.06Z"/><line class="cls-3" x1="242.29" y1="47.41" x2="245.22" y2="47.41"/><line class="cls-3" x1="246.55" y1="47.41" x2="249.49" y2="47.41"/><line class="cls-3" x1="245.89" y1="43.81" x2="245.89" y2="46.54"/><line class="cls-3" x1="245.89" y1="48.28" x2="245.89" y2="51.01"/><path class="cls-3" d="m245.89,45.35c0,1.95-.1,2.06-1.82,2.06,1.72,0,1.82.11,1.82,2.06,0-1.95.1-2.06,1.82-2.06-1.72,0-1.82-.11-1.82-2.06Z"/><line class="cls-3" x1="34.57" y1="198.96" x2="39.7" y2="198.96"/><line class="cls-3" x1="42.03" y1="198.96" x2="47.15" y2="198.96"/><line class="cls-3" x1="40.86" y1="192.67" x2="40.86" y2="197.44"/><line class="cls-3" x1="40.86" y1="200.48" x2="40.86" y2="205.25"/><path class="cls-3" d="m40.86,195.36c0,3.41-.17,3.6-3.18,3.6,3.01,0,3.18.19,3.18,3.6,0-3.41.17-3.6,3.18-3.6-3.01,0-3.18-.19-3.18-3.6Z"/><line class="cls-3" x1="24.3" y1="158.08" x2="29.43" y2="158.08"/><line class="cls-3" x1="31.75" y1="158.08" x2="36.88" y2="158.08"/><line class="cls-3" x1="30.59" y1="151.79" x2="30.59" y2="156.56"/><line class="cls-3" x1="30.59" y1="159.6" x2="30.59" y2="164.37"/><path class="cls-3" d="m30.59,154.48c0,3.41-.17,3.6-3.18,3.6,3.01,0,3.18.19,3.18,3.6,0-3.41.17-3.6,3.18-3.6-3.01,0-3.18-.19-3.18-3.6Z"/><circle class="cls-3" cx="80.32" cy="86.76" r="19.7" transform="translate(-17.86 152.64) rotate(-81.07)"/><line class="cls-3" x1="80.32" y1="61.94" x2="80.32" y2="36.78"/><line class="cls-3" x1="80.32" y1="136.74" x2="80.32" y2="111.58"/><line class="cls-3" x1="105.14" y1="86.76" x2="130.31" y2="86.76"/><line class="cls-3" x1="30.34" y1="86.76" x2="55.51" y2="86.76"/><line class="cls-3" x1="97.88" y1="69.21" x2="110.44" y2="56.65"/><line class="cls-3" x1="50.21" y1="116.88" x2="62.77" y2="104.31"/><line class="cls-3" x1="97.88" y1="104.31" x2="110.44" y2="116.88"/><line class="cls-3" x1="50.21" y1="56.65" x2="62.77" y2="69.21"/><line class="cls-3" x1="89.59" y1="63.74" x2="96.22" y2="47.25"/><line class="cls-3" x1="64.43" y1="126.27" x2="71.06" y2="109.79"/><line class="cls-3" x1="103.35" y1="96.03" x2="119.84" y2="102.66"/><line class="cls-3" x1="40.81" y1="70.86" x2="57.3" y2="77.5"/><line class="cls-3" x1="103.16" y1="77.03" x2="119.51" y2="70.07"/><line class="cls-3" x1="41.14" y1="103.46" x2="57.49" y2="96.49"/><line class="cls-3" x1="90.05" y1="109.6" x2="97.02" y2="125.94"/><line class="cls-3" x1="63.63" y1="47.58" x2="70.6" y2="63.93"/><line class="cls-3" x1="100.59" y1="72.43" x2="108.19" y2="67.06"/><line class="cls-3" x1="52.46" y1="106.46" x2="60.06" y2="101.09"/><line class="cls-3" x1="94.65" y1="107.03" x2="100.03" y2="114.62"/><line class="cls-3" x1="60.62" y1="58.9" x2="66" y2="66.5"/><line class="cls-3" x1="104.63" y1="81.72" x2="113.74" y2="79.83"/><line class="cls-3" x1="46.91" y1="93.69" x2="56.02" y2="91.8"/><line class="cls-3" x1="85.37" y1="111.06" x2="87.25" y2="120.17"/><line class="cls-3" x1="73.4" y1="53.35" x2="75.28" y2="62.46"/><line class="cls-3" x1="104.79" y1="90.96" x2="113.96" y2="92.53"/><line class="cls-3" x1="46.69" y1="80.99" x2="55.86" y2="82.57"/><line class="cls-3" x1="76.13" y1="111.22" x2="74.55" y2="120.39"/><line class="cls-3" x1="86.1" y1="53.13" x2="84.52" y2="62.3"/><line class="cls-3" x1="93.9" y1="65.98" x2="98.98" y2="58.19"/><line class="cls-3" x1="61.67" y1="115.33" x2="66.75" y2="107.54"/><line class="cls-3" x1="101.11" y1="100.33" x2="108.9" y2="105.42"/><line class="cls-3" x1="51.75" y1="68.1" x2="59.54" y2="73.19"/><path class="cls-3" d="m93,86.76c0-9.35-7.58-16.94-16.94-16.94-3.64,0-7,1.15-9.76,3.1,3.57-3.62,8.53-5.86,14.02-5.86,10.88,0,19.7,8.82,19.7,19.7s-8.82,19.7-19.7,19.7c-5.49,0-10.45-2.24-14.02-5.86,2.76,1.95,6.12,3.1,9.76,3.1,9.35,0,16.94-7.58,16.94-16.94Z"/><path class="cls-3" d="m41.47,400.27c-1.18-.26-2.09-1.19-2.3-2.38-.07-.36-.15-.71-.26-.98h0c-.11.27-.19.61-.26.98-.21,1.19-1.13,2.13-2.31,2.38-.29.06-.49.11-.49.11.2.08.42.15.64.2,1.12.28,1.96,1.22,2.18,2.35.06.34.14.66.24.91h0c.1-.25.18-.57.24-.91.21-1.14,1.05-2.07,2.18-2.35.22-.06.44-.12.64-.2,0,0-.2-.05-.5-.11Z"/><path class="cls-3" d="m18.52,375.56c-1.18-.26-2.09-1.19-2.3-2.38-.07-.36-.15-.71-.26-.98h0c-.11.27-.19.61-.26.98-.21,1.19-1.13,2.13-2.31,2.38-.29.06-.49.11-.49.11.2.08.42.15.64.2,1.12.28,1.96,1.22,2.18,2.35.06.34.14.66.24.91h0c.1-.25.18-.57.24-.91.21-1.14,1.05-2.07,2.18-2.35.22-.06.44-.12.64-.2,0,0-.2-.05-.5-.11Z"/><path class="cls-3" d="m138.65,360.58c-1.18-.26-2.09-1.19-2.3-2.38-.07-.36-.15-.71-.26-.98h0c-.11.27-.19.61-.26.98-.21,1.19-1.13,2.13-2.31,2.38-.29.06-.49.11-.49.11.2.08.42.15.64.2,1.12.28,1.96,1.22,2.18,2.35.06.34.14.66.24.91h0c.1-.25.18-.57.24-.91.21-1.14,1.05-2.07,2.18-2.35.22-.06.44-.12.64-.2,0,0-.2-.05-.5-.11Z"/><path class="cls-3" d="m29.42,518.27c-1.18-.26-2.09-1.19-2.3-2.38-.07-.36-.15-.71-.26-.98h0c-.11.27-.19.61-.26.98-.21,1.19-1.13,2.13-2.31,2.38-.29.06-.49.11-.49.11.2.08.42.15.64.2,1.12.28,1.96,1.22,2.18,2.35.06.34.14.66.24.91h0c.1-.25.18-.57.24-.91.21-1.14,1.05-2.07,2.18-2.35.22-.06.44-.12.64-.2,0,0-.2-.05-.5-.11Z"/><path class="cls-3" d="m224.48,520.78c-1.18-.26-2.09-1.19-2.3-2.38-.07-.36-.15-.71-.26-.98h0c-.11.27-.19.61-.26.98-.21,1.19-1.13,2.13-2.31,2.38-.29.06-.49.11-.49.11.2.08.42.15.64.2,1.12.28,1.96,1.22,2.18,2.35.06.34.14.66.24.91h0c.1-.25.18-.57.24-.91.21-1.14,1.05-2.07,2.18-2.35.22-.06.44-.12.64-.2,0,0-.2-.05-.5-.11Z"/><path class="cls-3" d="m144.89,518.12c-2.22-.48-3.95-2.25-4.35-4.49-.12-.69-.28-1.34-.48-1.85h0c-.2.51-.36,1.16-.48,1.85-.4,2.25-2.14,4.02-4.37,4.5-.55.12-.93.2-.93.2.38.15.79.28,1.21.38,2.12.53,3.71,2.3,4.12,4.45.12.64.27,1.24.46,1.72h0c.19-.48.34-1.08.46-1.72.4-2.15,1.99-3.92,4.12-4.45.42-.11.83-.23,1.21-.38,0,0-.38-.09-.95-.21Z"/><path class="cls-3" d="m169.96,445.43c-2.22-.48-3.95-2.25-4.35-4.49-.12-.69-.28-1.34-.48-1.85h0c-.2.51-.36,1.16-.48,1.85-.4,2.25-2.14,4.02-4.37,4.5-.55.12-.93.2-.93.2.38.15.79.28,1.21.38,2.12.53,3.71,2.3,4.12,4.45.12.64.27,1.24.46,1.72h0c.19-.48.34-1.08.46-1.72.4-2.15,1.99-3.92,4.12-4.45.42-.11.83-.23,1.21-.38,0,0-.38-.09-.95-.21Z"/><path class="cls-3" d="m69.84,312.02c-2.22-.48-3.95-2.25-4.35-4.49-.12-.69-.28-1.34-.48-1.85h0c-.2.51-.36,1.16-.48,1.85-.4,2.25-2.14,4.02-4.37,4.5-.55.12-.93.2-.93.2.38.15.79.28,1.21.38,2.12.53,3.71,2.3,4.12,4.45.12.64.27,1.24.46,1.72h0c.19-.48.34-1.08.46-1.72.4-2.15,1.99-3.92,4.12-4.45.42-.11.83-.23,1.21-.38,0,0-.38-.09-.95-.21Z"/><path class="cls-3" d="m49.35,350.04c-3.9-.85-6.93-3.95-7.64-7.88-.22-1.21-.49-2.34-.85-3.24h0c-.35.9-.63,2.04-.85,3.25-.71,3.94-3.75,7.05-7.67,7.89-.97.21-1.63.36-1.63.36.67.26,1.38.48,2.12.67,3.73.94,6.51,4.03,7.22,7.81.21,1.13.48,2.18.81,3.02h0c.33-.84.6-1.89.81-3.02.71-3.78,3.49-6.87,7.22-7.81.74-.19,1.45-.41,2.12-.67,0,0-.67-.16-1.66-.37Z"/><line class="cls-3" x1="68.89" y1="518.33" x2="74.01" y2="518.33"/><line class="cls-3" x1="76.34" y1="518.33" x2="81.47" y2="518.33"/><line class="cls-3" x1="75.18" y1="512.04" x2="75.18" y2="516.81"/><line class="cls-3" x1="75.18" y1="519.85" x2="75.18" y2="524.62"/><path class="cls-3" d="m75.18,514.73c0,3.41-.17,3.6-3.18,3.6,3.01,0,3.18.19,3.18,3.6,0-3.41.17-3.6,3.18-3.6-3.01,0-3.18-.19-3.18-3.6Z"/><line class="cls-3" x1="25.46" y1="439.35" x2="30.59" y2="439.35"/><line class="cls-3" x1="32.92" y1="439.35" x2="38.04" y2="439.35"/><line class="cls-3" x1="31.75" y1="433.06" x2="31.75" y2="437.83"/><line class="cls-3" x1="31.75" y1="440.87" x2="31.75" y2="445.64"/><path class="cls-3" d="m31.75,435.75c0,3.41-.17,3.6-3.18,3.6,3.01,0,3.18.19,3.18,3.6,0-3.41.17-3.6,3.18-3.6-3.01,0-3.18-.19-3.18-3.6Z"/><line class="cls-3" x1="178.93" y1="505.22" x2="184.06" y2="505.22"/><line class="cls-3" x1="186.39" y1="505.22" x2="191.51" y2="505.22"/><line class="cls-3" x1="185.22" y1="498.93" x2="185.22" y2="503.7"/><line class="cls-3" x1="185.22" y1="506.73" x2="185.22" y2="511.51"/><path class="cls-3" d="m185.22,501.62c0,3.41-.17,3.6-3.18,3.6,3.01,0,3.18.19,3.18,3.6,0-3.41.17-3.6,3.18-3.6-3.01,0-3.18-.19-3.18-3.6Z"/><line class="cls-3" x1="117.4" y1="406.3" x2="127.92" y2="406.3"/><line class="cls-3" x1="132.7" y1="406.3" x2="143.22" y2="406.3"/><line class="cls-3" x1="130.31" y1="393.39" x2="130.31" y2="403.19"/><line class="cls-3" x1="130.31" y1="409.42" x2="130.31" y2="419.21"/><path class="cls-3" d="m130.31,398.91c0,7-.34,7.39-6.52,7.39,6.18,0,6.52.39,6.52,7.39,0-7,.34-7.39,6.52-7.39-6.18,0-6.52-.39-6.52-7.39Z"/><path class="cls-3" d="m126.65,458.76c-.85-3.39-6.65-13.38-8.33-16.79s-10.94-12.83-14.17-14.61c-3.23-1.78-14.6-10.32-14.6-10.32,0,0,1.39-.96,3.99-2.55,2.6-1.59,2.97-4.41,1.48-5.23-1.49-.82-11.12,3.15-11.12,3.15l-1.8-1.43s4.48-.88,7.94-3.82c3.46-2.95,3.59-5.14,2.47-5.65-1.12-.51-8.82,1.72-11.03,2.01-1.98.26-5.52,2.7-6.22,3.2-.11-.08-.46-.21-1.33-.47-2.05-.59-3.39.29-4.03,1.44-.64,1.16.35,2.89.35,2.89l-4.05,4.02,3.46-10.39s3.46-2.95,6.44-5.62c2.98-2.67,4.1-8.42,1.86-8.47-2.24-.05-10.99,6.24-12.04,6.96-1.04.72-4.24,7.69-4.24,7.69,0,0-1.52-8.39-5.14-12.98-3.62-4.59-4.97-1.55-4.97-1.55l5.47,24.71,10.29,28.65c.94,2.61,2.79,4.79,5.22,6.13l12.8,7.06c2.71,1.49,12.37,8.06,18.15,11.89,1.04.69-1.53,5.93-4.56,11.32-3.92,6.98-1.37,15.83,5.65,19.69h0c9.26,5.11,20.69-1.13,21.41-11.69.84-12.4,1.49-25.93.66-29.27Zm-51.9-38.07c-.14.35-.6,2.26-.6,2.26,0,0-1.8-1.66-.97-2.64.83-.98,2.11-2.66,2.11-2.66l1.37.75s-1.77,1.94-1.91,2.29Zm6.43,7.91l-.41-2.98,1.62-2.38,7.55,6.3s-4.75.78-8.76-.95Z"/><path class="cls-3" d="m89.55,417.04l-4.54,2.35-4.25,6.24,1.23,8.93s23.94,9.7,29.55,21.48"/><path class="cls-3" d="m71.9,439.35s1.89-16.92,2.85-18.66c.96-1.74,7.17-7.5,9.15-8.28"/><path class="cls-3" d="m75.12,406.81l-4.89,3.78-4.05,4.02-1.15,1.1c-.65.63-1.01,1.5-.97,2.41l.48,11.98"/><line class="cls-3" x1="61.67" y1="404.79" x2="58.41" y2="410.71"/><polyline class="cls-3" points="82.1 410.99 79.37 412.31 75.29 417.65"/><line class="cls-3" x1="80.58" y1="370.68" x2="75.58" y2="375.67"/><line class="cls-3" x1="104.29" y1="346.97" x2="99.29" y2="351.96"/><line class="cls-3" x1="99.29" y1="370.68" x2="104.29" y2="375.67"/><line class="cls-3" x1="75.58" y1="346.97" x2="80.58" y2="351.97"/><path class="cls-3" d="m70.58,361.32s5.21-1.22,10.08-2.1c1.46-.26,2.77-.9,3.85-1.81-1.06-1.4-2.05-2.87-2.59-4.12h0c1.22.53,2.67,1.5,4.05,2.54.81-1.14,1.34-2.5,1.49-3.96.44-4.35,1.2-9.25,2.48-12.49,1.28,3.25,2.04,8.16,2.48,12.51.16,1.57.76,3.01,1.67,4.2,1.87-1.33,3.87-2.8,3.87-2.8-.48,1.11-1.66,2.74-2.66,4.07,1.1.94,2.44,1.6,3.93,1.87,4.82.88,10.07,2.08,10.07,2.08-2.92,1.15-6.35,1.88-9.62,2.34-1.56.22-2.98.85-4.15,1.78,1,1.33,1.92,2.72,2.43,3.9-1.17-.51-2.56-1.42-3.89-2.42-.92,1.2-1.53,2.64-1.69,4.23-.45,4.25-1.2,8.95-2.44,12.1-1.24-3.15-1.99-7.85-2.44-12.1-.17-1.62-.8-3.09-1.75-4.3-1.28.96-2.79,2.04-3.84,2.49,0,0,1.37-1.88,2.67-3.71-1.21-1.04-2.72-1.74-4.39-1.97-3.28-.46-6.7-1.18-9.62-2.34Z"/><path class="cls-3" d="m146.8,478.8c.51.2,1.06.37,1.62.51,2.85.72,4.99,3.09,5.53,5.98.16.86.36,1.67.62,2.31h0c.25-.64.46-1.45.62-2.31.54-2.89,2.67-5.26,5.53-5.98.56-.14,1.11-.31,1.62-.51,0,0-.51-.12-1.25-.27-3-.64-5.33-3.02-5.87-6.04-.17-.93-.38-1.8-.65-2.49h0c-.27.69-.48,1.56-.65,2.48-.54,3.01-2.86,5.39-5.85,6.04-.76.16-1.27.28-1.27.28Z"/><path class="cls-3" d="m49.77,467.7c0,12.94-.63,13.66-12.06,13.66,11.43,0,12.06.72,12.06,13.66,0-12.94.63-13.66,12.06-13.66-11.43,0-12.06-.72-12.06-13.66Z"/></g><g class="cls-1"><path class="cls-3" d="m1010.98,40.25c.2.08.42.15.64.2,1.12.28,1.96,1.22,2.18,2.35.06.34.14.66.24.91h0c.1-.25.18-.57.24-.91.21-1.14,1.05-2.07,2.18-2.35.22-.06.44-.12.64-.2,0,0-.2-.05-.49-.11-1.18-.25-2.1-1.19-2.31-2.38-.07-.37-.15-.71-.26-.98h0c-.11.27-.19.61-.26.98-.21,1.19-1.13,2.12-2.3,2.38-.3.06-.5.11-.5.11Z"/><path class="cls-3" d="m829.76,49.74c.2.08.42.15.64.2,1.12.28,1.96,1.22,2.18,2.35.06.34.14.66.24.91h0c.1-.25.18-.57.24-.91.21-1.14,1.05-2.07,2.18-2.35.22-.06.44-.12.64-.2,0,0-.2-.05-.49-.11-1.18-.25-2.1-1.19-2.31-2.38-.07-.36-.15-.71-.26-.98h0c-.11.27-.19.61-.26.98-.21,1.19-1.13,2.12-2.3,2.38-.3.06-.5.11-.5.11Z"/><path class="cls-3" d="m953.61,178.65c.2.08.42.15.64.2,1.12.28,1.96,1.22,2.18,2.35.06.34.14.66.24.91h0c.1-.25.18-.57.24-.91.21-1.14,1.05-2.07,2.18-2.35.22-.06.44-.12.64-.2,0,0-.2-.05-.49-.11-1.18-.25-2.1-1.19-2.31-2.38-.07-.36-.15-.71-.26-.98h0c-.11.27-.19.61-.26.98-.21,1.19-1.13,2.12-2.3,2.38-.3.06-.5.11-.5.11Z"/><path class="cls-3" d="m972.27,163.84c.38.15.79.28,1.21.38,2.12.53,3.71,2.3,4.12,4.45.12.64.27,1.24.46,1.72h0c.19-.48.34-1.08.46-1.72.4-2.15,1.99-3.92,4.12-4.45.42-.11.83-.23,1.21-.38,0,0-.38-.09-.93-.2-2.23-.48-3.97-2.25-4.37-4.5-.12-.69-.28-1.34-.48-1.85h0c-.2.51-.36,1.16-.48,1.85-.4,2.24-2.13,4.01-4.35,4.49-.56.12-.95.21-.95.21Z"/><path class="cls-3" d="m859.84,132.31c.38.15.79.28,1.21.38,2.12.53,3.71,2.3,4.12,4.45.12.64.27,1.24.46,1.72h0c.19-.48.34-1.08.46-1.72.4-2.15,1.99-3.92,4.12-4.45.42-.11.83-.23,1.21-.38,0,0-.38-.09-.93-.2-2.23-.48-3.97-2.25-4.37-4.5-.12-.69-.28-1.34-.48-1.85h0c-.2.51-.36,1.16-.48,1.85-.4,2.24-2.13,4.01-4.35,4.49-.56.12-.95.21-.95.21Z"/><path class="cls-3" d="m922.12,210.91c.38.15.79.28,1.21.38,2.12.53,3.71,2.3,4.12,4.45.12.64.27,1.24.46,1.72h0c.19-.48.34-1.08.46-1.72.4-2.15,1.99-3.92,4.12-4.45.42-.11.83-.23,1.21-.38,0,0-.38-.09-.93-.2-2.23-.48-3.97-2.25-4.37-4.5-.12-.69-.28-1.34-.48-1.85h0c-.2.51-.36,1.16-.48,1.85-.4,2.24-2.13,4.01-4.35,4.49-.56.12-.95.21-.95.21Z"/><path class="cls-3" d="m891.22,117c.38.15.79.28,1.21.38,2.12.53,3.71,2.3,4.12,4.45.12.64.27,1.24.46,1.72h0c.19-.48.34-1.08.46-1.72.4-2.15,1.99-3.92,4.12-4.45.42-.11.83-.23,1.21-.38,0,0-.38-.09-.93-.2-2.23-.48-3.97-2.25-4.37-4.5-.12-.69-.28-1.34-.48-1.85h0c-.2.51-.36,1.16-.48,1.85-.4,2.24-2.13,4.01-4.35,4.49-.56.12-.95.21-.95.21Z"/><path class="cls-3" d="m854.84,56.59c.67.26,1.38.48,2.12.67,3.73.94,6.51,4.03,7.22,7.81.21,1.13.48,2.18.81,3.02h0c.33-.84.6-1.89.81-3.02.71-3.78,3.49-6.87,7.22-7.81.74-.19,1.45-.41,2.12-.67,0,0-.66-.15-1.63-.36-3.92-.84-6.96-3.95-7.67-7.89-.22-1.21-.49-2.35-.85-3.25h0c-.35.89-.63,2.03-.85,3.24-.71,3.93-3.73,7.04-7.64,7.88-.99.21-1.66.37-1.66.37Z"/><path class="cls-3" d="m894.09,178.32c.67.26,1.38.48,2.12.67,3.73.94,6.51,4.03,7.22,7.81.21,1.13.48,2.18.81,3.02h0c.33-.84.6-1.89.81-3.02.71-3.78,3.49-6.87,7.22-7.81.74-.19,1.45-.41,2.12-.67,0,0-.66-.15-1.63-.36-3.92-.84-6.96-3.95-7.67-7.89-.22-1.21-.49-2.35-.85-3.25h0c-.35.89-.63,2.03-.85,3.24-.71,3.93-3.73,7.04-7.64,7.88-.99.21-1.66.37-1.66.37Z"/><path class="cls-3" d="m1012.47,117c.38.15.79.28,1.21.38,2.12.53,3.71,2.3,4.12,4.45.12.64.27,1.24.46,1.72h0c.19-.48.34-1.08.46-1.72.4-2.15,1.99-3.92,4.12-4.45.42-.11.83-.23,1.21-.38,0,0-.38-.09-.93-.2-2.23-.48-3.97-2.25-4.37-4.5-.12-.69-.28-1.34-.48-1.85h0c-.2.51-.36,1.16-.48,1.85-.4,2.24-2.13,4.01-4.35,4.49-.56.12-.95.21-.95.21Z"/><line class="cls-3" x1="909.97" y1="38.46" x2="907.04" y2="38.46"/><line class="cls-3" x1="905.71" y1="38.46" x2="902.77" y2="38.46"/><line class="cls-3" x1="906.37" y1="34.86" x2="906.37" y2="37.59"/><line class="cls-3" x1="906.37" y1="39.33" x2="906.37" y2="42.06"/><path class="cls-3" d="m906.37,36.4c0,1.95.1,2.06,1.82,2.06-1.72,0-1.82.11-1.82,2.06,0-1.95-.1-2.06-1.82-2.06,1.72,0,1.82-.11,1.82-2.06Z"/><line class="cls-3" x1="899.28" y1="79.93" x2="894.15" y2="79.93"/><line class="cls-3" x1="891.82" y1="79.93" x2="886.69" y2="79.93"/><line class="cls-3" x1="892.98" y1="73.64" x2="892.98" y2="78.41"/><line class="cls-3" x1="892.98" y1="81.45" x2="892.98" y2="86.22"/><path class="cls-3" d="m892.98,76.33c0,3.41.17,3.6,3.18,3.6-3.01,0-3.18.19-3.18,3.6,0-3.41-.17-3.6-3.18-3.6,3.01,0,3.18-.19,3.18-3.6Z"/><line class="cls-3" x1="932.17" y1="148.42" x2="929.23" y2="148.42"/><line class="cls-3" x1="927.9" y1="148.42" x2="924.97" y2="148.42"/><line class="cls-3" x1="928.57" y1="144.82" x2="928.57" y2="147.55"/><line class="cls-3" x1="928.57" y1="149.29" x2="928.57" y2="152.02"/><path class="cls-3" d="m928.57,146.36c0,1.95.1,2.06,1.82,2.06-1.72,0-1.82.11-1.82,2.06,0-1.95-.1-2.06-1.82-2.06,1.72,0,1.82-.11,1.82-2.06Z"/><line class="cls-3" x1="848.17" y1="78" x2="845.24" y2="78"/><line class="cls-3" x1="843.91" y1="78" x2="840.97" y2="78"/><line class="cls-3" x1="844.57" y1="74.4" x2="844.57" y2="77.13"/><line class="cls-3" x1="844.57" y1="78.87" x2="844.57" y2="81.6"/><path class="cls-3" d="m844.57,75.94c0,1.95.1,2.06,1.82,2.06-1.72,0-1.82.11-1.82,2.06,0-1.95-.1-2.06-1.82-2.06,1.72,0,1.82-.11,1.82-2.06Z"/><line class="cls-3" x1="800.78" y1="47.41" x2="797.84" y2="47.41"/><line class="cls-3" x1="796.51" y1="47.41" x2="793.57" y2="47.41"/><line class="cls-3" x1="797.17" y1="43.81" x2="797.17" y2="46.54"/><line class="cls-3" x1="797.17" y1="48.28" x2="797.17" y2="51.01"/><path class="cls-3" d="m797.17,45.35c0,1.95.1,2.06,1.82,2.06-1.72,0-1.82.11-1.82,2.06,0-1.95-.1-2.06-1.82-2.06,1.72,0,1.82-.11,1.82-2.06Z"/><line class="cls-3" x1="1008.49" y1="198.96" x2="1003.36" y2="198.96"/><line class="cls-3" x1="1001.03" y1="198.96" x2="995.91" y2="198.96"/><line class="cls-3" x1="1002.2" y1="192.67" x2="1002.2" y2="197.44"/><line class="cls-3" x1="1002.2" y1="200.48" x2="1002.2" y2="205.25"/><path class="cls-3" d="m1002.2,195.36c0,3.41.17,3.6,3.18,3.6-3.01,0-3.18.19-3.18,3.6,0-3.41-.17-3.6-3.18-3.6,3.01,0,3.18-.19,3.18-3.6Z"/><line class="cls-3" x1="1018.76" y1="158.08" x2="1013.63" y2="158.08"/><line class="cls-3" x1="1011.31" y1="158.08" x2="1006.18" y2="158.08"/><line class="cls-3" x1="1012.47" y1="151.79" x2="1012.47" y2="156.56"/><line class="cls-3" x1="1012.47" y1="159.6" x2="1012.47" y2="164.37"/><path class="cls-3" d="m1012.47,154.48c0,3.41.17,3.6,3.18,3.6-3.01,0-3.18.19-3.18,3.6,0-3.41-.17-3.6-3.18-3.6,3.01,0,3.18-.19,3.18-3.6Z"/><circle class="cls-3" cx="962.74" cy="86.76" r="19.7" transform="translate(-1.47 155.33) rotate(-9.22)"/><line class="cls-3" x1="962.74" y1="61.94" x2="962.74" y2="36.78"/><line class="cls-3" x1="962.74" y1="136.74" x2="962.74" y2="111.58"/><line class="cls-3" x1="937.92" y1="86.76" x2="912.75" y2="86.76"/><line class="cls-3" x1="1012.72" y1="86.76" x2="987.56" y2="86.76"/><line class="cls-3" x1="945.19" y1="69.21" x2="932.62" y2="56.65"/><line class="cls-3" x1="992.85" y1="116.88" x2="980.29" y2="104.31"/><line class="cls-3" x1="945.19" y1="104.31" x2="932.62" y2="116.88"/><line class="cls-3" x1="992.85" y1="56.65" x2="980.29" y2="69.21"/><line class="cls-3" x1="953.47" y1="63.74" x2="946.84" y2="47.25"/><line class="cls-3" x1="978.63" y1="126.27" x2="972" y2="109.79"/><line class="cls-3" x1="939.71" y1="96.03" x2="923.23" y2="102.66"/><line class="cls-3" x1="1002.25" y1="70.86" x2="985.76" y2="77.5"/><line class="cls-3" x1="939.9" y1="77.03" x2="923.56" y2="70.07"/><line class="cls-3" x1="1001.92" y1="103.46" x2="985.57" y2="96.49"/><line class="cls-3" x1="953.01" y1="109.6" x2="946.04" y2="125.94"/><line class="cls-3" x1="979.43" y1="47.58" x2="972.47" y2="63.93"/><line class="cls-3" x1="942.47" y1="72.43" x2="934.87" y2="67.06"/><line class="cls-3" x1="990.6" y1="106.46" x2="983" y2="101.09"/><line class="cls-3" x1="948.41" y1="107.03" x2="943.03" y2="114.62"/><line class="cls-3" x1="982.44" y1="58.9" x2="977.07" y2="66.5"/><line class="cls-3" x1="938.43" y1="81.72" x2="929.32" y2="79.83"/><line class="cls-3" x1="996.15" y1="93.69" x2="987.04" y2="91.8"/><line class="cls-3" x1="957.7" y1="111.06" x2="955.81" y2="120.17"/><line class="cls-3" x1="969.67" y1="53.35" x2="967.78" y2="62.46"/><line class="cls-3" x1="938.27" y1="90.96" x2="929.1" y2="92.53"/><line class="cls-3" x1="996.37" y1="80.99" x2="987.2" y2="82.57"/><line class="cls-3" x1="966.93" y1="111.22" x2="968.51" y2="120.39"/><line class="cls-3" x1="956.97" y1="53.13" x2="958.54" y2="62.3"/><line class="cls-3" x1="949.16" y1="65.98" x2="944.08" y2="58.19"/><line class="cls-3" x1="981.39" y1="115.33" x2="976.31" y2="107.54"/><line class="cls-3" x1="941.96" y1="100.33" x2="934.17" y2="105.42"/><line class="cls-3" x1="991.31" y1="68.1" x2="983.52" y2="73.19"/><path class="cls-3" d="m950.06,86.76c0-9.35,7.58-16.94,16.94-16.94,3.64,0,7,1.15,9.76,3.1-3.57-3.62-8.53-5.86-14.02-5.86-10.88,0-19.7,8.82-19.7,19.7s8.82,19.7,19.7,19.7c5.49,0,10.45-2.24,14.02-5.86-2.76,1.95-6.12,3.1-9.76,3.1-9.35,0-16.94-7.58-16.94-16.94Z"/><path class="cls-3" d="m1001.09,400.38c.2.08.42.15.64.2,1.12.28,1.96,1.22,2.18,2.35.06.34.14.66.24.91h0c.1-.25.18-.57.24-.91.21-1.14,1.05-2.07,2.18-2.35.22-.06.44-.12.64-.2,0,0-.2-.05-.49-.11-1.18-.25-2.1-1.19-2.31-2.38-.07-.37-.15-.71-.26-.98h0c-.11.27-.19.61-.26.98-.21,1.19-1.13,2.12-2.3,2.38-.3.06-.5.11-.5.11Z"/><path class="cls-3" d="m1024.04,375.67c.2.08.42.15.64.2,1.12.28,1.96,1.22,2.18,2.35.06.34.14.66.24.91h0c.1-.25.18-.57.24-.91.21-1.14,1.05-2.07,2.18-2.35.22-.06.44-.12.64-.2,0,0-.2-.05-.49-.11-1.18-.25-2.1-1.19-2.31-2.38-.07-.37-.15-.71-.26-.98h0c-.11.27-.19.61-.26.98-.21,1.19-1.13,2.12-2.3,2.38-.3.06-.5.11-.5.11Z"/><path class="cls-3" d="m903.91,360.7c.2.08.42.15.64.2,1.12.28,1.96,1.22,2.18,2.35.06.34.14.66.24.91h0c.1-.25.18-.57.24-.91.21-1.14,1.05-2.07,2.18-2.35.22-.06.44-.12.64-.2,0,0-.2-.05-.49-.11-1.18-.25-2.1-1.19-2.31-2.38-.07-.37-.15-.71-.26-.98h0c-.11.27-.19.61-.26.98-.21,1.19-1.13,2.12-2.3,2.38-.3.06-.5.11-.5.11Z"/><path class="cls-3" d="m1013.14,518.38c.2.08.42.15.64.2,1.12.28,1.96,1.22,2.18,2.35.06.34.14.66.24.91h0c.1-.25.18-.57.24-.91.21-1.14,1.05-2.07,2.18-2.35.22-.06.44-.12.64-.2,0,0-.2-.05-.49-.11-1.18-.25-2.1-1.19-2.31-2.38-.07-.37-.15-.71-.26-.98h0c-.11.27-.19.61-.26.98-.21,1.19-1.13,2.12-2.3,2.38-.3.06-.5.11-.5.11Z"/><path class="cls-3" d="m818.08,520.89c.2.08.42.15.64.2,1.12.28,1.96,1.22,2.18,2.35.06.34.14.66.24.91h0c.1-.25.18-.57.24-.91.21-1.14,1.05-2.07,2.18-2.35.22-.06.44-.12.64-.2,0,0-.2-.05-.49-.11-1.18-.25-2.1-1.19-2.31-2.38-.07-.37-.15-.71-.26-.98h0c-.11.27-.19.61-.26.98-.21,1.19-1.13,2.12-2.3,2.38-.3.06-.5.11-.5.11Z"/><path class="cls-3" d="m897.22,518.33c.38.15.79.28,1.21.38,2.12.53,3.71,2.3,4.12,4.45.12.64.27,1.24.46,1.72h0c.19-.48.34-1.08.46-1.72.4-2.15,1.99-3.92,4.12-4.45.42-.11.83-.23,1.21-.38,0,0-.38-.09-.93-.2-2.23-.48-3.97-2.25-4.37-4.5-.12-.69-.28-1.34-.48-1.85h0c-.2.51-.36,1.16-.48,1.85-.4,2.24-2.13,4.01-4.35,4.49-.56.12-.95.21-.95.21Z"/><path class="cls-3" d="m872.15,445.64c.38.15.79.28,1.21.38,2.12.53,3.71,2.3,4.12,4.45.12.64.27,1.24.46,1.72h0c.19-.48.34-1.08.46-1.72.4-2.15,1.99-3.92,4.12-4.45.42-.11.83-.23,1.21-.38,0,0-.38-.09-.93-.2-2.23-.48-3.97-2.25-4.37-4.5-.12-.69-.28-1.34-.48-1.85h0c-.2.51-.36,1.16-.48,1.85-.4,2.24-2.13,4.01-4.35,4.49-.56.12-.95.21-.95.21Z"/><path class="cls-3" d="m972.27,312.23c.38.15.79.28,1.21.38,2.12.53,3.71,2.3,4.12,4.45.12.64.27,1.24.46,1.72h0c.19-.48.34-1.08.46-1.72.4-2.15,1.99-3.92,4.12-4.45.42-.11.83-.23,1.21-.38,0,0-.38-.09-.93-.2-2.23-.48-3.97-2.25-4.37-4.5-.12-.69-.28-1.34-.48-1.85h0c-.2.51-.36,1.16-.48,1.85-.4,2.24-2.13,4.01-4.35,4.49-.56.12-.95.21-.95.21Z"/><path class="cls-3" d="m992.05,350.42c.67.26,1.38.48,2.12.67,3.73.94,6.51,4.03,7.22,7.81.21,1.13.48,2.18.81,3.02h0c.33-.84.6-1.89.81-3.02.71-3.78,3.49-6.87,7.22-7.81.74-.19,1.45-.41,2.12-.67,0,0-.66-.15-1.63-.36-3.92-.84-6.96-3.95-7.67-7.89-.22-1.21-.49-2.35-.85-3.25h0c-.35.89-.63,2.03-.85,3.24-.71,3.93-3.73,7.04-7.64,7.88-.99.21-1.66.37-1.66.37Z"/><line class="cls-3" x1="974.18" y1="518.33" x2="969.05" y2="518.33"/><line class="cls-3" x1="966.72" y1="518.33" x2="961.59" y2="518.33"/><line class="cls-3" x1="967.89" y1="512.04" x2="967.89" y2="516.81"/><line class="cls-3" x1="967.89" y1="519.85" x2="967.89" y2="524.62"/><path class="cls-3" d="m967.89,514.73c0,3.41.17,3.6,3.18,3.6-3.01,0-3.18.19-3.18,3.6,0-3.41-.17-3.6-3.18-3.6,3.01,0,3.18-.19,3.18-3.6Z"/><line class="cls-3" x1="1017.6" y1="439.35" x2="1012.47" y2="439.35"/><line class="cls-3" x1="1010.14" y1="439.35" x2="1005.02" y2="439.35"/><line class="cls-3" x1="1011.31" y1="433.06" x2="1011.31" y2="437.83"/><line class="cls-3" x1="1011.31" y1="440.87" x2="1011.31" y2="445.64"/><path class="cls-3" d="m1011.31,435.75c0,3.41.17,3.6,3.18,3.6-3.01,0-3.18.19-3.18,3.6,0-3.41-.17-3.6-3.18-3.6,3.01,0,3.18-.19,3.18-3.6Z"/><line class="cls-3" x1="864.13" y1="505.22" x2="859" y2="505.22"/><line class="cls-3" x1="856.68" y1="505.22" x2="851.55" y2="505.22"/><line class="cls-3" x1="857.84" y1="498.93" x2="857.84" y2="503.7"/><line class="cls-3" x1="857.84" y1="506.73" x2="857.84" y2="511.51"/><path class="cls-3" d="m857.84,501.62c0,3.41.17,3.6,3.18,3.6-3.01,0-3.18.19-3.18,3.6,0-3.41-.17-3.6-3.18-3.6,3.01,0,3.18-.19,3.18-3.6Z"/><line class="cls-3" x1="925.67" y1="406.3" x2="915.14" y2="406.3"/><line class="cls-3" x1="910.37" y1="406.3" x2="899.84" y2="406.3"/><line class="cls-3" x1="912.75" y1="393.39" x2="912.75" y2="403.19"/><line class="cls-3" x1="912.75" y1="409.42" x2="912.75" y2="419.21"/><path class="cls-3" d="m912.75,398.91c0,7,.34,7.39,6.52,7.39-6.18,0-6.52.39-6.52,7.39,0-7-.34-7.39-6.52-7.39,6.18,0,6.52-.39,6.52-7.39Z"/><path class="cls-3" d="m917.08,488.03c.71,10.55,12.14,16.79,21.41,11.69h0c7.01-3.87,9.57-12.71,5.65-19.69-3.03-5.39-5.6-10.64-4.56-11.32,5.77-3.83,15.44-10.4,18.15-11.89l12.8-7.06c2.43-1.34,4.28-3.52,5.22-6.13l10.29-28.65,5.47-24.71s-1.35-3.03-4.97,1.55c-3.62,4.59-5.14,12.98-5.14,12.98,0,0-3.2-6.98-4.24-7.69-1.04-.72-9.8-7-12.04-6.96-2.24.05-1.12,5.8,1.86,8.47,2.98,2.67,6.44,5.62,6.44,5.62l3.46,10.39-4.05-4.02s.99-1.73.35-2.89c-.64-1.16-1.99-2.03-4.03-1.44-.87.25-1.22.39-1.33.47-.71-.5-4.24-2.94-6.22-3.2-2.21-.29-9.91-2.52-11.03-2.01-1.12.51-.99,2.7,2.47,5.65,3.46,2.95,7.94,3.82,7.94,3.82l-1.8,1.43s-9.63-3.97-11.12-3.15c-1.49.82-1.12,3.64,1.48,5.23,2.6,1.59,3.99,2.55,3.99,2.55,0,0-11.37,8.54-14.6,10.32-3.23,1.78-12.49,11.2-14.17,14.61-1.68,3.41-7.48,13.4-8.33,16.79-.83,3.34-.18,16.87.66,29.27Zm49.32-69.63l1.37-.75s1.29,1.68,2.11,2.66c.83.98-.97,2.64-.97,2.64,0,0-.45-1.91-.6-2.26-.14-.35-1.91-2.29-1.91-2.29Zm-13.27,11.15l7.55-6.3,1.62,2.38-.41,2.98c-4.01,1.73-8.76.95-8.76.95Z"/><path class="cls-3" d="m953.51,417.04l4.54,2.35,4.25,6.24-1.23,8.93s-23.94,9.7-29.55,21.48"/><path class="cls-3" d="m971.16,439.35s-1.89-16.92-2.85-18.66c-.96-1.74-7.17-7.5-9.15-8.28"/><path class="cls-3" d="m967.94,406.81l4.89,3.78,4.05,4.02,1.15,1.1c.65.63,1.01,1.5.97,2.41l-.48,11.98"/><line class="cls-3" x1="981.39" y1="404.79" x2="984.66" y2="410.71"/><polyline class="cls-3" points="960.96 410.99 963.69 412.31 967.77 417.65"/><line class="cls-3" x1="962.48" y1="370.68" x2="967.48" y2="375.67"/><line class="cls-3" x1="938.77" y1="346.97" x2="943.77" y2="351.96"/><line class="cls-3" x1="943.77" y1="370.68" x2="938.77" y2="375.67"/><line class="cls-3" x1="967.48" y1="346.97" x2="962.48" y2="351.97"/><path class="cls-3" d="m972.48,361.32s-5.21-1.22-10.08-2.1c-1.46-.26-2.77-.9-3.85-1.81,1.06-1.4,2.05-2.87,2.59-4.12h0c-1.22.53-2.67,1.5-4.05,2.54-.81-1.14-1.34-2.5-1.49-3.96-.44-4.35-1.2-9.25-2.48-12.49-1.28,3.25-2.04,8.16-2.48,12.51-.16,1.57-.76,3.01-1.67,4.2-1.87-1.33-3.87-2.8-3.87-2.8.48,1.11,1.66,2.74,2.66,4.07-1.1.94-2.44,1.6-3.93,1.87-4.82.88-10.07,2.08-10.07,2.08,2.92,1.15,6.35,1.88,9.62,2.34,1.56.22,2.98.85,4.15,1.78-1,1.33-1.92,2.72-2.43,3.9,1.17-.51,2.56-1.42,3.89-2.42.92,1.2,1.53,2.64,1.69,4.23.45,4.25,1.2,8.95,2.44,12.1,1.24-3.15,1.99-7.85,2.44-12.1.17-1.62.8-3.09,1.75-4.3,1.28.96,2.79,2.04,3.84,2.49,0,0-1.37-1.88-2.67-3.71,1.21-1.04,2.72-1.74,4.39-1.97,3.28-.46,6.7-1.18,9.62-2.34Z"/><path class="cls-3" d="m894.98,478.51c-2.99-.65-5.31-3.03-5.85-6.04-.17-.92-.38-1.79-.65-2.48h0c-.27.69-.48,1.56-.65,2.49-.54,3.02-2.87,5.4-5.87,6.04-.74.16-1.25.27-1.25.27.51.2,1.06.37,1.62.51,2.85.72,4.99,3.09,5.53,5.98.16.86.36,1.67.62,2.31h0c.25-.64.46-1.45.62-2.31.54-2.89,2.67-5.26,5.53-5.98.56-.14,1.11-.31,1.62-.51,0,0-.52-.12-1.27-.28Z"/><path class="cls-3" d="m993.29,467.7c0,12.94.63,13.66,12.06,13.66-11.43,0-12.06.72-12.06,13.66,0-12.94-.63-13.66-12.06-13.66,11.43,0,12.06-.72,12.06-13.66Z"/></g></svg>