<svg width="22" height="26" viewBox="0 0 22 26" fill="none" xmlns="http://www.w3.org/2000/svg">
<g id="Trash">
<path id="Vector 20" d="M7.05212 7.52075V20.6149" stroke="black" stroke-width="1.4519"/>
<path id="Vector 19" d="M0 4.04209H1.82526M21.2946 4.04209H19.4694M19.4694 4.04209V22.1104C19.4694 22.6273 19.3164 23.1325 19.0297 23.5626V23.5626C18.5442 24.2909 17.7268 24.7283 16.8515 24.7283H4.44314C3.56784 24.7283 2.75046 24.2909 2.26493 23.5626V23.5626C1.97824 23.1325 1.82526 22.6273 1.82526 22.1104V4.04209M19.4694 4.04209H15.8189M1.82526 4.04209H5.47577M5.47577 4.04209L6.1991 3.13793C7.28013 1.78663 8.91682 1 10.6473 1V1C12.3778 1 14.0145 1.78663 15.0955 3.13793L15.8189 4.04209M5.47577 4.04209H15.8189" stroke="black" stroke-width="1.41964"/>
<path id="Vector 21" d="M10.7856 7.52075V20.6149" stroke="black" stroke-width="1.4519"/>
<path id="Vector 22" d="M14.5191 7.52075V20.6149" stroke="black" stroke-width="1.4519"/>
</g>
</svg>
