<?xml version="1.0" encoding="UTF-8"?><svg xmlns="http://www.w3.org/2000/svg" viewBox="0 0 1280 720"><defs><style>.cls-1{letter-spacing:0em;}.cls-2{opacity:.5;}.cls-3{font-size:83.58px;}.cls-3,.cls-4{opacity:.8;}.cls-3,.cls-5{font-family:Montserrat-Regular, Montserrat;}.cls-6{fill:#050505;}.cls-6,.cls-7,.cls-8,.cls-9,.cls-10,.cls-11{stroke-width:0px;}.cls-7,.cls-5{fill:#87ada9;}.cls-12{isolation:isolate;}.cls-13{letter-spacing:0em;}.cls-5{font-size:24px;}.cls-8{fill:#fff;}.cls-14{letter-spacing:0em;}.cls-15{font-size:141.86px;}.cls-15,.cls-16{font-family:Montserrat-Bold, Montserrat;font-weight:700;}.cls-9{opacity:.35;}.cls-9,.cls-10{fill:#c3d5d5;mix-blend-mode:multiply;}.cls-17{letter-spacing:0em;}.cls-16{font-size:170.84px;}.cls-10{opacity:.25;}.cls-18{letter-spacing:0em;}.cls-11{fill:#f3f5f6;}</style></defs><g class="cls-12"><g id="Capa_1"><circle class="cls-10" cx="395" cy="360" r="255.34"/><path class="cls-8" d="m271.95,449.8c-9.12,1.68-10.48,3.04-12.16,12.16-1.68-9.12-3.04-10.48-12.16-12.16,9.12-1.68,10.48-3.04,12.16-12.16,1.68,9.12,3.04,10.48,12.16,12.16Z"/><path class="cls-8" d="m234.32,292.51c-7.3,1.34-8.38,2.43-9.73,9.73-1.34-7.3-2.43-8.38-9.73-9.73,7.3-1.34,8.38-2.43,9.73-9.73,1.34,7.3,2.43,8.38,9.73,9.73Z"/><path class="cls-9" d="m212.07,368.29c-5.47,1.01-6.29,1.82-7.3,7.3-1.01-5.47-1.82-6.29-7.3-7.3,5.47-1.01,6.29-1.82,7.3-7.3,1.01,5.47,1.82,6.29,7.3,7.3Z"/><path class="cls-8" d="m550.93,211.22c-5.47,1.01-6.29,1.82-7.3,7.3-1.01-5.47-1.82-6.29-7.3-7.3,5.47-1.01,6.29-1.82,7.3-7.3,1.01,5.47,1.82,6.29,7.3,7.3Z"/><path class="cls-8" d="m595.77,343.31c-3.65.67-4.19,1.22-4.86,4.86-.67-3.65-1.22-4.19-4.86-4.86,3.65-.67,4.19-1.22,4.86-4.86.67,3.65,1.22,4.19,4.86,4.86Z"/><path class="cls-8" d="m550.26,407.33c-5.47,1.01-6.29,1.82-7.3,7.3-1.01-5.47-1.82-6.29-7.3-7.3,5.47-1.01,6.29-1.82,7.3-7.3,1.01,5.47,1.82,6.29,7.3,7.3Z"/><path class="cls-8" d="m188.85,325.83c-5.47,1.01-6.29,1.82-7.3,7.3-1.01-5.47-1.82-6.29-7.3-7.3,5.47-1.01,6.29-1.82,7.3-7.3,1.01,5.47,1.82,6.29,7.3,7.3Z"/><path class="cls-8" d="m579.59,258.99c-7.3,1.34-8.38,2.43-9.73,9.73-1.34-7.3-2.43-8.38-9.73-9.73,7.3-1.34,8.38-2.43,9.73-9.73,1.34,7.3,2.43,8.38,9.73,9.73Z"/><path class="cls-9" d="m528.95,262.37c-3.65.67-4.19,1.22-4.86,4.86-.67-3.65-1.22-4.19-4.86-4.86,3.65-.67,4.19-1.22,4.86-4.86.67,3.65,1.22,4.19,4.86,4.86Z"/><path class="cls-11" d="m342.5,281.22c-3,.91-3.21,1.18-3.52,4.37-.42,4.44-.93,8.88-1.32,13.32-.38,4.25-.7,8.51-.96,12.78-.26,4.07-.44,8.15-.98,12.2-.41,3.1-.81,6.19-1.15,9.3-.22,1.96-.39,3.94-.45,5.91-.08,2.35-.72,4.5-1.75,6.58-1.49,3.04-2.61,6.23-3.47,9.5-1.44,5.43-2.37,10.97-2.9,16.56-.6,6.41-1.08,12.83-1.57,19.25-.33,4.26-.58,8.52-.87,12.8,1.25,1.22,2.58,1.84,3.87,2.54,1.85,1,3.7,2,5.55,2.99,2.41,1.28,3.58,3.34,3.81,6.01.1,1.14.21,2.28.32,3.52.36.05.72.15,1.07.14,7.14-.13,14.28-.23,21.42-.43,3.25-.09,6.49-.39,9.74-.59,1.59-.1,3.18-.2,4.77-.28.85-.04,1.61-.27,2.3-.8.6-.46,1.29-.82,1.96-1.18,1.37-.75,2.84-1.12,4.41-.96.25.03.51,0,.76.04,2.05.32,3.75-.4,5.25-1.76,3.13-2.85,6.74-5.03,10.3-7.25,1.13-.71,2.34-1.3,3.55-1.87,2.46-1.15,4.99-1.53,7.65-.25.18-.3.37-.54.47-.81,3.23-9,7.18-17.72,10.63-26.63,3.3-8.51,6.08-17.18,8.78-25.88,1.3-4.2.54-8.2-1.08-12.11-1.08-2.6-3.24-4.05-5.78-4.96-1.55-.56-3.09-1.11-4.83-.83-.77.13-1.61-.27-2.42-.3-4.36-.2-8.64.39-12.88,1.38-6.88,1.61-13.79,3.11-20.68,4.7-4.53,1.04-9.05,2.16-13.57,3.22-1.29.3-2.6.55-3.86.81-.53,3.18,2.16,16.84,3.97,20.08.63-.03,1.32-.02,2.01-.1,4.13-.48,8.27-.62,12.41-.25,2.09.19,4.17.51,6.25.85,3.19.52,6.37.44,9.51-.2,2.55-.53,5.09-1.21,7.57-2,1.63-.52,3.15-1.36,4.73-2.05.34-.15.7-.28,1.06-.38.08-.02.25.09.29.19.05.1.04.29-.03.35-.29.24-.59.48-.91.66-2.69,1.51-5.59,2.45-8.56,3.23-.49.13-.98.27-1.48.37-1.43.31-2.91.47-4.29.94-1.38.47-2.65,1.24-3.97,1.87-2.12,1.02-4.25,2.05-6.38,3.05-1.14.54-1.88,1.42-2.53,2.48-3.49,5.71-6.98,11.43-10.57,17.08-2.12,3.34-4.42,6.55-6.63,9.83-.64.95-1.21,1.96-1.89,2.88-.66.89-.65,1.74-.19,2.68.34.69.61,1.4.92,2.1.71,1.57.83,3.2.39,4.86-.46,1.72-.94,3.44-1.43,5.15-.09.32-.36.34-.92.14.42-1.52.8-3.05,1.26-4.57.64-2.12.52-4.15-.53-6.11-.96-1.79-1.22-3.71-1.27-5.72-.15-6.63-.41-13.26-.92-19.87-.18-2.35-.26-4.71-.38-7.07-.18-3.5-.38-7-.52-10.51-.18-4.41-.04-8.8.71-13.15.59-3.41.53-6.86.48-10.3-.08-5.48-.28-10.96-.38-16.45-.17-9.88-.29-19.77-.42-29.65-.04-3.32-.04-6.63-.06-9.95,0-.19-.05-.38-.08-.61-1.25-.93-2.75-1.32-4.24-1.56-5.21-.84-10.41-.86-15.53.68Zm-.36,65c2.4,1.03,4.97,1.13,7.52,1.37-1.54.28-3.05.32-4.55,0-.92-.2-1.83-.48-2.73-.76-.19-.06-.47-.23-.24-.62Z"/><path class="cls-7" d="m329.54,408.46c-4.03-1.77-7.45-4.38-10.73-7.24-.48-.42-1.01-.77-1.54-1.12-.14-.1-.35-.1-.52-.14-.67.46-.83,1.18-.96,1.84-.47,2.38-.81,4.77-.83,7.21,0,1.09.31,1.99.98,2.81,1.26,1.52,2.44,3.11,3.78,4.56,2.27,2.46,4.02,5.26,5.57,8.2,1.48,2.8,2.19,5.83,2.61,8.94,1.11,8.25,1.13,16.53.54,24.81-.36,5.08-.82,10.16-1.32,15.24-.31,3.17-.78,6.32-1.18,9.48-.35,2.78-.7,5.56-1.05,8.33,1.84,2.04,2.66,4.53,3.37,7.05,1.37,4.86,2.11,9.84,2.72,14.84.65,5.39.87,10.8.93,16.22.01,1.21.11,2.41.18,3.7,2.27,1.44,4.85,2.25,7.13,3.76.18-.26.36-.44.44-.65,1.1-3.2,2.63-6.22,4.09-9.26,1.26-2.6,3.06-4.84,4.88-7.06.2-.25.42-.48.64-.71.44-.46.55-.98.34-1.59-.19-.54-.38-1.08-.53-1.64-.06-.23-.01-.48-.01-.83,1.19.01,1.93,1.05,3.12,1.13.18-.13.44-.29.69-.48,2.87-2.23,5.73-4.46,8.6-6.7.4-.31.81-.62,1.18-.96,1.25-1.14,1.71-1.14,3.02.07.79.74,1.72,1.28,2.64,1.98.32-.49.57-.85.8-1.23,1.33-2.2,3.02-4.1,4.77-5.96.34-.36.69-.8,1.38-.46.33.66.26,1.43.21,2.18-.1,1.65-.24,3.31-.34,4.96-.11,1.72-.25,3.43.14,5.14.15.65.35,1.2.88,1.64.73.61,1.41,1.27,2.11,1.9.92-.25,1.13-1.51,2.32-1.41.75,1.5.52,3.17.62,4.86,3.58,4.43,5.47,9.81,7.78,15.03,2.4-1.2,4.78-2.39,7.22-3.61.06-.93.17-1.81.18-2.69.04-4.02.09-8.03.43-12.04.57-6.68,1.4-13.31,3.14-19.8.31-1.17.73-2.31,1.15-3.44.51-1.38,1.15-2.69,2.29-3.85-.19-1.59-.36-3.23-.57-4.87-.45-3.6-.97-7.2-1.37-10.81-.52-4.69-1.03-9.38-1.4-14.08-.63-8.14-.88-16.3-.09-24.45.19-1.97.47-3.92.79-5.87.46-2.86,1.49-5.53,2.92-8.04,1.48-2.61,3.14-5.09,5.21-7.29,1.18-1.25,2.2-2.65,3.28-3.99.19-.23.29-.53.49-.89-2.02-.96-4.02-1.41-6.14-1.48-2.3-.07-4.45.42-6.35,1.72-1.47,1.01-2.88,2.11-4.25,3.24-1.18.97-2.28,2.04-3.41,3.07-1.91,1.73-4.16,2.69-6.73,2.85-1.4.09-2.8.2-4.2.21-2.6.02-4.88.92-6.84,2.57-1.46,1.23-2.85,2.55-4.18,3.92-1.6,1.64-3.13,3.36-4.67,5.06-4.09,4.5-8.96,7.92-14.41,10.57-1.88.91-3.9,1.19-5.95,1.22-2.12.03-4.16-.41-6.12-1.29-3.76-1.69-5.75-4.68-6.47-8.64-.5-2.74-.22-5.47.23-8.18.45-2.7,1.08-5.37,1.49-8.08.23-1.5.21-3.04.26-4.57.04-1.19-.54-2.08-1.54-2.68-1.26-.75-2.47-1.61-3.81-2.19Zm52.07,69.74c.62-.2.85-.33,1.09-.34,3.7-.2,7.21.56,10.53,2.19.28.14.56.33.74.57.1.13,0,.41-.03.76-.9-.42-1.63-.79-2.39-1.09-.77-.31-1.55-.58-2.35-.8-.8-.22-1.61-.39-2.42-.52-.82-.13-1.64-.18-2.47-.27-.77-.09-1.61.21-2.7-.51Zm-47.34,3.18c.02-.38-.04-.7.07-.78.51-.36,1.04-.72,1.62-.97,2.84-1.22,5.79-1.88,8.9-1.81,1.02.02,1.59.25,1.38.55-.35.51-.91.32-1.38.32-3.37,0-6.54.78-9.55,2.27-.27.14-.57.23-1.04.41Z"/><path class="cls-11" d="m407.79,208.55c-2.14-2.93-3.49-6.21-4.41-9.68-.14-.53-.14-1.11-.22-1.76.59-.1,1.08-.23,1.57-.25,1.75-.06,3.17-.86,4.45-1.97,1.5-1.29,3.04-2.53,4.51-3.85.71-.63,1.41-1,2.4-.87,1.15.16,2.3.02,3.38-.43,1.47-.61,2.92-1.27,4.37-1.93.18-.08.3-.29.49-.47-.55-.26-.83.1-1.16.24-1.18.49-2.33,1.03-3.5,1.52-1.07.45-2.18.7-3.35.61-.92-.07-1.39-.52-1.41-1.45-.02-.89,0-1.79.07-2.68.2-2.48.64-3.01,3.04-3.78,1.76-.56,3.51-1.14,5.28-1.66,1.16-.34,2.34-.62,3.52-.87,2.11-.45,4.05-.02,5.78,1.28.81.61,1.62,1.24,2.41,1.88.69.56,1.37,1.15,2.02,1.75.9.82,1.95,1.18,3.16,1.05,1.01-.11,2.04-.15,3.03-.37,3.79-.83,7.6-1.65,11.36-2.62,7.09-1.82,14.15-3.78,21.25-5.61,3.08-.79,6.21-1.42,9.32-2.09.42-.09.87-.01,1.25-.01,1.62,1.47,2.6,4.56,2.97,6.59.77,4.24.73,8.5.24,12.77-.38,3.37-1.24,6.64-2.18,9.88-.69,2.37-.98,4.74-.47,7.43-.57,0-.94.02-1.31,0-1.97-.11-3.95-.23-5.92-.36-4.01-.26-8.03-.4-12.02-.81-4.63-.47-9.24-1.12-13.84-1.79-2.65-.39-5.26-.99-7.89-1.47-1.58-.29-3.16-.24-4.74.15-2.49.61-4.89,1.44-7.2,2.52-2.37,1.1-4.72,2.24-7.08,3.36-1.97.94-4,1.55-6.22,1.64-5.34.21-9.74-1.49-12.96-5.9Z"/><path class="cls-7" d="m326.05,465.01c-.2.85-.77,1.26-1.61,1.4-1.13.18-2.26.38-3.39.61-1.81.37-3.62.74-5.41,1.19-1.43.36-2.71.3-3.98-.58-1.78-1.23-3.63-2.36-5.46-3.52-.2-.13-.44-.19-.72-.3-.06.26-.2.5-.13.59.22.3.49.58.77.83,1.55,1.34,2.9,2.86,4.14,4.49,4.12,5.41,7.28,11.37,10.01,17.57.18.4.35.83.63,1.16.9,1.08,1.77,2.18,2.78,3.15,1.33,1.27,2.23,2.77,2.81,4.49.36,1.09.75,2.17,1.05,3.27.92,3.45,1.54,6.96,2.05,10.5,1.04,7.15,1.43,14.33,1.43,21.54,0,.37-.06.73-.1,1.23-.58-.2-1.06-.32-1.51-.52-2.84-1.3-5.64-2.69-8.5-3.92-2.27-.97-3.96-2.51-5.26-4.54-.14-.21-.28-.42-.43-.63-2.78-4.14-5.16-8.5-7.21-13.04-3.67-8.13-7.27-16.29-11.24-24.29-2.26-4.57-4.26-9.27-7.02-13.58-.17-.27-.3-.56-.45-.84-.94-1.73-1.07-3.52-.4-5.36.79-2.18,1.99-4.12,3.35-5.98.88-1.21,2.02-2.03,3.36-2.7,1.48-.74,2.83-1.72,4.28-2.52,4.54-2.49,9.34-4.39,14.21-6.09,3.19-1.11,6.35-2.27,9.45-3.63.33-.14.69-.2,1.13-.32.33.93.68,1.75.92,2.6,1.39,4.78,1.64,9.66,1.14,14.59-.11,1.07-.46,2.11-.71,3.16Z"/><path class="cls-7" d="m397.91,516.61c.45-4.63,1.02-9.25,2.01-13.8.57-2.61,1.17-5.22,2.25-7.69.49-1.12,1.09-2.13,1.96-3.02,1.11-1.14,2.15-2.35,3.17-3.57.32-.38.54-.85.75-1.31,1.82-4.15,3.81-8.22,6.23-12.04,2.39-3.76,4.83-7.52,8.37-10.36.14-.12.27-.28.36-.44.04-.09,0-.25-.05-.34-.07-.09-.24-.19-.31-.16-.29.12-.56.27-.82.43-2,1.24-4,2.48-5.99,3.74-.63.4-1.28.53-2,.35-.43-.1-.87-.17-1.31-.26-2.31-.47-4.61-.95-6.92-1.42-.69-.14-1.38-.26-2.06-.41-.61-.13-1.03-.49-1.19-1.1-.08-.31-.14-.62-.18-.94-.21-1.84-.43-3.67-.59-5.51-.4-4.57.14-9.03,1.74-13.35.1-.28.26-.53.43-.86.58.24,1.05.41,1.51.62,2.8,1.24,5.67,2.27,8.55,3.29,6.62,2.33,13.12,4.93,19,8.85.21.14.43.31.67.35.77.13,1.2.69,1.67,1.2,1.54,1.65,2.66,3.57,3.67,5.57,1.31,2.58,1.35,5.12-.24,7.63-2.12,3.34-3.77,6.93-5.52,10.48-4.19,8.52-8.18,17.13-12.01,25.81-1.62,3.68-3.42,7.27-5.49,10.71-1.31,2.18-2.81,4.25-4.24,6.35-.55.8-1.29,1.41-2.15,1.86-3.68,1.9-7.4,3.71-11.25,5.24-.11.04-.24,0-.65,0,0-.57,0-1.07,0-1.58.09-4.78.21-9.56.67-14.32Z"/><path class="cls-11" d="m349.41,550.56c-.4,1-.79,2.02-1.08,3.06-1.68,5.95-3.32,11.9-5,17.85-.41,1.44-.54,2.84-.3,4.33.29,1.76.38,3.55.57,5.32.17,1.65.56,3.26,1.09,4.84.26.77.72,1.16,1.5,1.23.44.04.88.12,1.32.2,1.2.23,1.44.55,1.42,1.83-.01.57-.02,1.13-.02,1.7,0,.05.07.1.15.22.21-.06.45-.09.68-.18,2.22-.9,4.57-1.08,6.93-1.23,1.03-.07,2.05,0,2.99.45.7.34,1.35.3,2.01-.06.56-.3,1.11-.62,1.66-.92.54-.3,1.09-.31,1.63,0,.33.19.65.4.97.6.98.59,1.94.81,3.07.27.6-.29,1.36-.35,2.05-.34,2.55.05,5.09.28,7.5,1.23.23.09.47.13.74.2.08-.24.19-.41.18-.58,0-.38-.08-.76-.11-1.14-.12-1.49.14-1.82,1.55-2.08.56-.1,1.13-.2,1.69-.3.12-.02.24-.09.45-.17.9-1.28,1.19-2.86,1.41-4.41.4-2.71.65-5.44.89-8.17.06-.68-.06-1.4-.24-2.07-1.78-6.45-3.61-12.88-5.37-19.33-.79-2.9-2.32-5.25-4.94-6.75-2.21-1.26-4.45-2.48-6.76-3.53-2.48-1.13-5.09-1.14-7.62-.08-3.06,1.27-6.02,2.74-8.62,4.86-1.07.87-1.89,1.9-2.4,3.16Zm7.16,12.79c-1.06-.53-1.05-.54-1.44-1.16-.96-1.55-1.57-3.48-1.45-5.15.58,2.21,1.35,4.29,2.89,6.31Zm14.56-7.67c-1.03.69-2.21.75-3.26,1.18-.74.3-1.47.32-2.23.09-1-.29-2-.26-3.01-.01-.43.1-.91.24-1.31.13-1.39-.37-2.83-.65-4.2-1.39.72-1.63.97-3.3,1.09-5,.07-1.04.39-1.98,1.1-2.78.38-.43.7-.9,1.05-1.35.83-1.1,1.95-1.56,3.31-1.49.31.02.63.01.94,0,1.37-.07,2.48.4,3.31,1.5.42.55.85,1.11,1.28,1.66.48.62.74,1.32.81,2.1.16,1.82.39,3.63,1.1,5.37Zm-12.27,8.17c-.19.04-.41.16-.48.09-1.06-.83-1.15-2.47-.06-3.27.18-.13.42-.31.63,0-1.12,1.42-1.13,1.57-.09,3.18Zm10.55-3.33c.22.06.44.05.55.16,1.02.96,1.08,1.82.23,3.03-.18.26-.43.45-.76.17q1-1.53-.02-3.35Zm5.5-3.95c-.15,2.2-.77,3.82-1.61,5.36-.42.78-.45.77-1.24,1.16.51-1.01,1.01-2.01,1.51-3,.5-1,.48-2.2,1.34-3.52Zm4.75,21.06c-1.01-.12-2.07-.3-3.13-.36-1.08-.05-2.16.06-3.24.02-.63-.02-1.28-.11-1.87-.3-1.17-.39-2.1-1.11-2.6-2.45,1.56-.51,2.88-.92,4.19-1.37,1.05-.36,2.12-.35,3.2-.3,1.09.05,1.98.52,2.53,1.46.44.76.78,1.59,1.13,2.4.12.29.15.62-.21.89Zm-11.96.64c.14-1.06,1.15-1.66,2.1-1.2.74.35,1.45.79,2.12,1.27,2.05,1.47,4.34,2.35,6.81,2.79.37.07.76.08,1.13.18.96.26,1.96.47,2.83,1.28-.28.22-.37.36-.47.37-2.02.15-4.05.29-6.07.4-1.22.07-2.41-.11-3.52-.66-1.79-.88-3.22-2.25-4.67-3.57-.19-.17-.29-.58-.25-.86Zm-5.96-10.62c0-.11.09-.22.24-.59.52,2.08.54,5.26.03,6.58-.09-1.81-.18-3.43-.26-5.05-.02-.31-.02-.63-.01-.94Zm-1.04-5.26c-.07.08-.25.14-.35.11-.21-.07-.39-.21-.69-.39.25-.29.37-.57.56-.63.77-.26,1.57-.46,2.36-.68,2.02-.55,3.86.19,5.69.85.09.03.1.45.04.65-.03.1-.32.19-.48.17-.17-.02-.36-.14-.48-.26-.72-.74-1.63-.93-2.6-.97-1.48-.06-2.93-.04-4.06,1.15Zm-15.16,20.25c1.01-.9,2.1-1.21,3.22-1.38,2.95-.43,5.66-1.43,8.06-3.22.51-.38,1.07-.7,1.64-.97.75-.36,1.32-.2,1.83.48.22.29.32.67.52,1.1-1.23,1.27-2.55,2.35-3.94,3.35-1.51,1.09-3.22,1.47-5.06,1.35-1.84-.12-3.68-.22-5.52-.35-.21-.02-.41-.19-.76-.36Zm4.77-9.11c.45-.38,1.14-.58,1.74-.65,1.13-.13,2.28-.08,3.38.33.59.22,1.18.48,1.78.66.66.2,1.34.33,2.22.55-.14.43-.17.7-.31.89-.65.91-1.5,1.58-2.61,1.76-.93.15-1.89.22-2.83.2-1.53-.03-3.04-.05-4.54.34-.22.06-.47-.02-.82-.04.23-1.65.8-3.03,2-4.04Z"/><path class="cls-11" d="m277.24,196.35c1.24-.31,2.38.1,3.52.5,1.16.41,2.2,1.06,3.06,1.91.85.85,1.7,1.74,2.34,2.75.6.96.92,2.09,1.48,3.41-.01-1.57-.05-2.02-.53-2.86-1.95-3.45-4.65-5.93-8.78-6.28-1.15-.1-1.74-.61-2.07-1.61-.14-.42-.29-.84-.41-1.27-.72-2.62-.83-5.25-.44-7.95.62-4.31,2.4-8.02,5.28-11.24.24-.27.56-.47,1.12-.93.36,1.78.62,3.22.95,4.64.96,4.04,2.7,7.69,5.6,10.71,2.03,2.11,4.36,3.72,7.38,4.06.75.09,1.49.35,2.24.5,2.99.62,5.99,1.23,8.98,1.84.42.09.85.17,1.29.26.33,2.61,1.96,3.96,4.26,4.36,2.5.44,5.06.58,7.59.84.25.03.5-.07.41-.49-.29-.03-.6-.07-.91-.1-1.78-.15-3.56-.28-5.33-.46-1.27-.13-2.54-.37-3.62-1.1-1.1-.74-1.84-1.7-1.72-3.17,1.71-.81,3.33-1.67,5.15-2.1,1.45-.34,2.79-.18,4.02.65.74.5,1.46,1.03,2.13,1.61,1.99,1.7,3.97,3.4,6.22,4.75.1.06.15.2.28.39-1.59,1.97-2.45,4.28-2.51,6.84-.06,2.59.71,5,1.95,7.31-.96,0-1.78.03-2.6,0-2.42-.1-4.84-.19-7.26-.35-2.65-.18-5.16-.71-7.21-2.63-.96-.89-2.21-1.14-3.55-1.15-3.89-.02-7.77-.31-11.63-.82-2.26-.3-4.56-.48-6.48-2.01-.76-.61-1.73-.4-2.47.25-.38.33-.65.77-.97,1.16-.28.33-.56.66-.86,1.02-1.04-.31-2.02-.58-2.98-.9-1.08-.37-2.14-.82-3.22-1.19-1.47-.51-2.03-1.59-2.13-3.07-.12-1.76.19-3.43.92-5.02.47-1.03,1-2.03,1.51-3.06Z"/><path class="cls-11" d="m343.72,529.19c-.82,1.86-1.67,3.7-2.62,5.81,3.1,1.29,5.77,2.88,8.12,4.77.57-.21.49-.57.48-.86-.02-1.08-.07-2.17-.1-3.25-.01-.36-.16-.79.33-.96.31-.11.52.26.56,1.01.03.57.05,1.15.06,1.72.05,2.74.08,5.48.14,8.22,0,.34.13.68.27,1.32.48-.81.77-1.36,1.12-1.88.78-1.16,1.49-2.39,2.4-3.44,2.4-2.77,5.59-4.13,9.13-4.78.43-.08.89-.05,1.32.03,4.75.91,8.53,3.25,10.95,7.55.43.76.88,1.51,1.3,2.23.54-.19.46-.54.46-.84.03-2.8.05-5.61.09-8.41.01-.76.05-1.53.15-2.29.04-.3.27-.58.76-.38.32,1.58-.17,3.23.03,4.99.97-.17,1.47-.89,2.14-1.29.66-.39,1.27-.85,1.93-1.24.71-.42,1.44-.81,2.18-1.19.67-.35,1.36-.67,2.13-1.04-.08-.34-.11-.65-.24-.92-.87-1.91-1.75-3.83-2.64-5.73-.84-1.79-1.84-3.5-3.07-5.05-.42-.53-.61-1.06-.47-1.76.11-.55.06-1.14,0-1.71-.07-.67-.23-1.34-.36-2.04-1.12.21-1.22,1.36-2.06,1.86-.96-.88-1.99-1.73-2.89-2.7-.35-.38-.54-1.01-.6-1.55-.13-1.14-.2-2.29-.16-3.43.06-1.91.24-3.81.34-5.72.05-.95,0-1.89,0-2.82-.38-.24-.63-.02-.84.22-2.04,2.28-4.18,4.49-5.33,7.4-.04.1-.2.15-.39.29-.79-.29-1.4-.96-2.11-1.46-.72-.5-1.37-1.11-2.09-1.71-3.65,2.88-7.29,5.75-10.93,8.62-.2.16-.4.31-.64.49-.85-.38-1.7-.76-2.67-1.2-.13,1.17.55,1.95.74,2.93-.26.31-.52.66-.81.99-2.45,2.79-4.62,5.77-6.13,9.19Zm6.36-3.72c.67-.28.94-.42,1.22-.51,2.37-.75,4.73-1.51,7.11-2.23,1.33-.41,2.42-.97,2.91-2.45.43-1.32,1.53-2.14,2.9-2.11,1.27.03,2.34.81,2.74,2.06.47,1.47,1.54,2.1,2.88,2.48.43.12.86.24,1.28.38,2,.63,4.01,1.26,6.01,1.91.27.09.5.28.76.42-.37.17-.67.13-.94.05-2.43-.75-4.87-1.5-7.29-2.27-.42-.13-.84-.3-1.25-.48-.8-.34-1.4-.85-1.68-1.72-.11-.36-.28-.72-.49-1.03-1.22-1.75-3.11-1.62-4.21.08-.17.26-.32.56-.41.86-.27.94-.93,1.5-1.8,1.85-.29.12-.59.25-.89.35-2.67.85-5.34,1.69-8.02,2.52-.1.03-.23-.04-.83-.16Z"/><path class="cls-11" d="m488.82,200.69c1.56-5.91,2.15-11.9,1.35-17.99-.36-2.74-1.06-5.37-2.63-7.7-.09-.13-.07-.33-.12-.55.79-.26,1.54-.38,2.29-.17.85.24,1.73.47,2.52.85,5.71,2.81,24.58,5.67,30.28,8.51.23.11.43.26.78.48.03.47.07.85.07,1.23-.04,10.01-.08,20.02-.14,30.02,0,.37-.11.73-.17,1.14-.9.13-1.72.02-2.53-.08-3.48-.42-20.07-1.2-23.48-2.04-2.3-.57-4.52-1.32-6.68-2.27-.58-.25-1.18-.47-1.8-.61-.64-.15-.98-.5-1.15-1.12-.35-1.26-.38-2.52-.08-3.78.46-1.98.96-3.96,1.49-5.93Z"/><path class="cls-11" d="m372.12,199.07c10.05-.36,20.09-.98,30.12-1.96.18.25.24.3.25.35.15.62.29,1.24.46,1.85,1.02,3.72,2.49,7.23,4.96,10.25,1.94,2.37,4.28,4.18,7.35,4.85.48.1.95.27,1.55.44-.27.2-.41.38-.56.39-13.01.95-25.96.34-38.79-1.47-2.45-3.32-5.52-11.54-5.49-14.61.05-.03.1-.09.15-.09Z"/><path class="cls-11" d="m348.13,423.83c3.5.07,7,.11,10.5.05,3.55-.06,7.11-.24,11.06-.39-.42.63-.61.94-.82,1.23-.88,1.17-1.74,2.36-2.66,3.49-1.84,2.28-3.69,4.55-5.58,6.78-1.53,1.81-3.35,3.3-5.39,4.49-1.69.99-3.5,1.55-5.47,1.28-2.44-.33-4.69-1.17-6.55-2.85-2.16-1.96-3.82-4.27-4.59-7.13-.41-1.53-.79-3.08-1.08-4.64-.15-.78-.38-1.6-.09-2.55,3.58-.16,7.12.16,10.67.23Z"/><path class="cls-11" d="m340.9,242.46c1.14-.93,2.36-1.71,3.75-2.23,2.79-1.06,5.66-1.42,8.62-1.11,3.32.35,6.03,1.89,8.28,4.29.39.42.75.87.79,1.58-.67,1.47-1.79,2.83-1.88,4.65-.08,1.77-.31,3.54-.49,5.41-5.88,2.37-16.41,5.93-18.15,6.13-.07-.3-.15-.6-.2-.91-.73-4.33-1.14-8.7-1.39-13.09-.06-1.08-.02-2.16-.04-3.24-.02-.63.24-1.09.72-1.48Z"/><path class="cls-11" d="m329.05,351.13c-.04.31-.13.62-.21.93-.69,2.71-1.38,5.42-2.07,8.13-.06.22-.19.41-.31.65-.7-.41-.81-1.08-1.17-1.58-.71-.98-1.34-2.03-2.18-2.87-.93-.94-2.02-1.75-3.11-2.51-1.46-1.02-2.98-1.95-4.47-2.92-2.18-1.41-3.56-3.4-4.39-5.83-1.1-3.22-1.65-6.53-1.92-9.9-.03-.35.08-.72.13-1.12.35.06.6.13.85.14,1.4.04,2.82.23,4.18.05,2.31-.32,4.35-1.31,5.88-3.52,1.15,2.26,2.43,4.24,4.26,5.75,1.81,1.49,3.71,2.88,5.75,4.45,0,.13.02.32,0,.5-.4,3.22-.8,6.44-1.21,9.66Z"/><path class="cls-11" d="m324.94,205.22c.29-1.98,1.14-3.73,2.52-5.14,1.64.1,3.16.22,4.68.28,1.46.06,2.93.01,4.39.08,1.51.07,3.03-.19,4.54.05.52,1.73.99,3.37,1.51,4.99.54,1.7,1.13,3.37,1.69,5.06.52,1.61,1.37,3.11,1.78,4.9-.49.1-.85.23-1.2.24-1.46.04-2.92.06-4.39.06-2.92,0-5.85.01-8.77,0-.88,0-1.77.05-2.63-.28-1.47-.56-2.39-1.65-3.04-3-1.11-2.3-1.43-4.75-1.06-7.25Z"/><path class="cls-7" d="m363.05,596.77c-.35-.96-.76-1.89-1.12-2.84-.31-.83-.57-1.68-.42-2.66.86-.4,1.72-.8,2.62-1.22,1.06.47,2.1.93,3.09,1.37.27,1.19.44,2.33.79,3.41.37,1.15.91,2.24,1.38,3.35.02.06.06.11.08.17,1.28,3.29,2.04,6.68,2.08,10.23.03,3.18-1.17,6.11-1.74,9.16-.77.94-.76,2.12-1.02,3.22-.19.8-.45,1.6-.8,2.34-.84,1.75-1.92,3.4-1.93,5.78-.36-.48-.56-.64-.63-.85-.28-.84-.55-1.69-.77-2.55-.3-1.17-.48-2.38-.87-3.52-.26-.75-.35-1.46-.33-2.23.05-2.44.63-4.8,1.02-7.18.9-5.46.48-10.79-1.43-15.98Z"/><path class="cls-11" d="m268.99,171.61c1.56-.54,3.08-1.21,4.68-1.61,1.68-.42,3.42-.3,5.09.25,1.02.34,1.98.82,2.54,1.7-.02.2,0,.28-.04.32-.11.15-.22.31-.36.44-3.31,3.38-5.36,7.4-5.99,12.09-.47,3.45-.31,6.86,1.1,10.12.1.23.25.46.28.7.03.16-.05.41-.17.51-.11.09-.39.1-.51.01-1.64-1.1-3.16-2.34-4.44-3.88-3.58-4.29-4.89-9.28-4.51-14.76.1-1.44.53-2.87.85-4.29.18-.79.68-1.35,1.47-1.62Z"/><path class="cls-11" d="m398.83,411.63c-1.12.84-2.22,1.7-3.29,2.61-1.02.86-2.02,1.76-2.97,2.7-2.27,2.21-5.02,3.16-8.13,3.22-.89.02-1.78,0-2.67.03-2.56.05-4.9.79-6.92,2.38-1.25.99-2.45,2.04-3.57,3.16-1.49,1.48-2.88,3.07-4.31,4.6-.91.98-1.83,1.95-2.76,2.91-.14.15-.33.42-.71.11.15-.24.28-.51.46-.74,2.26-2.92,4.48-5.88,6.8-8.75,1.28-1.58,2.7-3.05,4.12-4.51,1.12-1.14,2.44-2.03,3.87-2.77,1.45-.76,2.96-1.14,4.6-.86,2.07.35,3.87-.23,5.52-1.52,1.7-1.33,3.46-2.61,5.25-3.82,2.65-1.79,5.48-3.23,8.56-4.15,1.16-.35,2.34-.69,3.56-.52,2.78.37,4.98,1.84,6.89,3.79.16.17.09.55.17,1.14-1.18-.35-2.03-.6-2.88-.86-4.16-1.24-8.06-.79-11.59,1.86Z"/><path class="cls-7" d="m371.15,614.5c.75-2.4.97-4.85.85-7.35-.15-3.28-.94-6.4-2.2-9.42-.37-.88-.78-1.74-1.14-2.63-.45-1.13-.78-2.28-.53-3.63.88-.54,1.72-.73,2.63-.79,1.19-.09,2.08.32,2.84,1.21,1.34,1.56,2.4,3.28,3,5.26.59,1.94.44,3.9.13,5.86-.43,2.72-.68,5.43-.04,8.15.06.25.09.5.12.64-.59,1.1-1.17,2.09-1.65,3.12-.48,1.04-.86,2.12-1.3,3.18-.37.88-.75,1.75-1.18,2.6-.12.24-.41.4-.58.55-.2-.09-.28-.1-.31-.14-1.17-1.61-1.83-3.31-1.01-5.31.17-.41.24-.86.37-1.28Z"/><path class="cls-7" d="m352.92,598.87c.55-2.43.96-4.89.27-7.37-.03-.1.07-.23.14-.43,1.25-.31,2.55-.47,3.85-.2.57.81.8,1.67.98,2.54.5,2.46.55,4.94.21,7.42-.48,3.54-.99,7.07-1.48,10.6-.28,2.04-.21,4.08.42,6.06.46,1.44.03,2.6-.95,3.82-.96-.56-1.17-1.39-1.49-2.13-.61-1.4-1.12-2.85-1.71-4.26-.44-1.06-.92-2.12-1.81-2.9-.37-.33-.48-.72-.53-1.18-.17-1.6-.07-3.2.29-4.75.56-2.42,1.27-4.8,1.82-7.22Z"/><path class="cls-7" d="m357.53,610.06c.3-2.66.85-5.28,1.2-7.94.48-3.62.62-7.24-.6-10.78-.04-.11,0-.24,0-.54,1.07.04,1.83.49,2.46.72.62,1.73,1.13,3.3,1.75,4.83,1.92,4.79,2.41,9.76,1.83,14.84-.31,2.72-.8,5.42-1.22,8.12-.05.34-.2.67-.28.94-1.93-.19-3.33-1.14-4.68-2.33-.95-2.53-.75-5.21-.45-7.87Z"/><path class="cls-7" d="m358.43,231.93c.36.44.75.88,1.01,1.39,1.18,2.32,2.33,4.66,3.47,7,.4.83.42,1.73.27,2.62-.04.27-.24.51-.44.9-.51-.52-.89-.93-1.3-1.32-1.78-1.68-3.75-3.03-6.19-3.58-4.82-1.09-9.34-.36-13.55,2.23-.32.2-.64.39-.96.59-.08-.18-.18-.3-.17-.4.03-.25.06-.53.2-.72.46-.61.9-1.24,1.46-1.75,2.18-1.96,4.24-4.03,5.87-6.5.14-.21.29-.44.49-.58.41-.28.85-.65,1.31-.71,1.96-.22,3.92-.39,5.89-.49,1.07-.05,1.97.47,2.65,1.3Z"/><path class="cls-7" d="m337.1,421.38c-.01-.37,0-.74,0-1.31,1.08-.09,1.9-.19,2.72-.21,1.78-.05,3.56-.06,5.34-.08,3.56-.04,7.13.02,10.69-.14,5.53-.24,11.05-.62,16.58-.93.41-.02.85-.23,1.23.1-.03.16,0,.31-.07.39-.99,1.08-1.98,2.14-2.91,3.14-5.62.64-11.16.61-16.69.65-8.45.06-15.13-.26-16.81-.72-.02-.27-.07-.58-.08-.89Z"/><path class="cls-7" d="m346.06,598.27c1.42-1.69,2.53-3.51,2.51-5.84,1.26-.43,2.35-1.12,3.6-1.15.72.63.74,1.41.76,2.17.07,2.05-.15,4.07-.7,6.05-.39,1.41-.8,2.82-1.16,4.24-.64,2.48-1.13,4.97-.83,7.5-.61.73-1.17,1.4-1.95,2.35-.46-1.11-.87-1.96-1.18-2.85-.42-1.2-.76-2.43-1.12-3.65-.39-1.29-.88-2.52-1.93-3.34-.24-1.49.18-2.74.91-3.9.34-.54.69-1.08,1.09-1.56Z"/><path class="cls-7" d="m377.44,598.63c-.25-2.42-1.38-4.47-2.81-6.37-.3-.39-.59-.79-.99-1.32.43-.02.67-.07.9-.04,1.45.21,2.85.61,4.22,1.13,1.6.61,2.44,1.78,2.75,3.38.19,1,.32,2.01.36,3.02.08,1.98.29,3.93.98,5.8.19.52.16.95-.03,1.46-.38,1.01-.65,2.06-1,3.08-.45,1.32-.93,2.63-1.43,3.94-.1.25-.35.44-.59.72-.38-.53-.61-1-.98-1.32-.41-.35-.94-.56-1.45-.85-.41-1.12-.47-2.32-.51-3.53-.06-2.11.43-4.17.59-6.26.08-.94.08-1.9-.01-2.84Z"/><path class="cls-11" d="m342.38,274.27c5.56-1.75,10.95-3.44,16.5-5.19.32,2.32.24,6.24-.16,7.48-1.31.07-2.64.09-3.97.22-1.33.14-2.65.35-3.96.61-1.37.28-2.72.67-4.08.99-1.28.3-2.44,1.01-3.77,1.16-.64-.85-.44-1.79-.48-2.64-.03-.92-.49-1.87-.08-2.62Z"/><path class="cls-7" d="m317.62,332.56c-1.85,1.14-3.91,1.56-6.03,1.31-2.52-.29-2.52-.19-2.68-2.7-.02-.25-.03-.51-.05-.76-.02-.75.02-1.49.12-2.21.05-.4.12-.79.22-1.18.09-.37.2-.74.33-1.1.65-1.82,1.97-2.59,3.87-2.23,2.1.4,3.79,1.43,4.85,3.34.37.67.7,1.35,1.07,2.02.47.83.31,1.63-.25,2.3-.4.48-.91.89-1.44,1.21Z"/><path class="cls-7" d="m380.38,592.23v-3.46c.17-.03.31-.1.41-.07,2.03.81,3.6,2.11,4.43,4.2.4,1,.84,1.98,1.23,2.99.11.28.19.62.16.91-.25,2.52-.48,5.04-1.02,7.61-.43-.15-.77-.31-1.13-.37-.34-.06-.71-.01-1.08-.01-.14-.37-.26-.66-.35-.96-.54-1.91-.62-3.89-.73-5.85-.11-1.89-.55-3.64-1.92-4.98Z"/><path class="cls-7" d="m343.03,592.59c1.03-1.1,1.81-2.29,1.89-3.85,0-.18.12-.35.2-.59.94-.07,1.87-.14,2.74.41.04.21.11.39.1.58-.08,1.33-.21,2.66-.06,4,.09.84-.16,1.65-.6,2.37-.43.7-.87,1.41-1.39,2.05-1.5,1.82-2.59,3.78-2.56,6.22,0,.19-.19.39-.39.79-.22-.41-.39-.61-.42-.82-.18-1.13-.3-2.27-.47-3.4-.23-1.57-.51-3.13-.72-4.7-.05-.35.01-.78.19-1.07.44-.69.92-1.37,1.49-1.97Z"/><path class="cls-11" d="m343.15,568.8c.32-1.18.67-2.46,1.06-3.89-.51-.03-.88-.14-1.2-.06-2.1.52-3.42,1.87-4,3.93-.17.61-.26,1.25-.26,1.88,0,1.45-.46,2.74-1.18,3.97-.38.65-.74,1.34-.99,2.05-.49,1.43-.47,2.89.16,4.27.2.43.62.78.98,1.11.24.22.54.2,1.54.13.78-2.48.82-5.25,2.6-7.54-.24-.29-.34-.47-.49-.57-.72-.47-.95-1.15-.93-1.96.02-.81.29-1.51.9-2.02.53-.45,1.12-.83,1.78-1.31Zm-4.71,11.95c-.9-1.01-.94-1.48-.25-2.24.08.72.16,1.44.25,2.24Z"/><path class="cls-11" d="m386.44,574.61c1.63,2.22,1.9,4.91,2.47,7.41.54.48,1.03.32,1.51.13.57-.22.94-.65,1.16-1.21.58-1.48.63-2.99.07-4.47-.25-.65-.59-1.27-.94-1.88-.76-1.29-1.21-2.65-1.17-4.17.04-1.31-.39-2.51-1.17-3.57-1.03-1.41-2.34-2.03-4.16-1.94.1,1.34.57,2.58.99,3.82.07.21.35.35.55.5.36.26.76.47,1.09.77,1.41,1.26,1.42,2.75.05,4.1-.13.13-.24.28-.44.51Zm3.46,6.42c.06-1.11.1-1.83.14-2.55.73.74.59,1.46-.14,2.55Z"/><path class="cls-11" d="m363.79,205.53c.17-.26.3-.56.7-.45.53,1.63.98,3.28,1.6,4.87.61,1.57,1.4,3.08,2.11,4.61-1.53.59-5.41.94-7.29.66-.23-.89.12-1.74.3-2.58.54-2.48,1.21-4.92,2.59-7.11Z"/><path class="cls-7" d="m351.11,198.58c.69,1.08,1.36,2.23,2.14,3.29.81,1.1,2.09,1.62,3.33,2.33-.24,1.51-.48,3-.72,4.55-1.3-.19-2.35-.7-3.18-1.46-.98-.89-1.8-1.96-2.68-2.97-.11-.13-.19-.35-.19-.53-.02-1.4-.17-2.81.23-4.18.15-.51.33-.97,1.06-1.04Z"/><path class="cls-7" d="m347.75,202.33c.35.12.69.26,1.1.41.06,1.62.19,3.18.01,4.83-1.78.12-3.32-.28-4.7-1.26-.28-.2-.52-.57-.63-.91-.48-1.5-.93-3.02-1.36-4.54-.08-.3-.08-.63-.05-.94.05-.49.36-.79.81-.96.43-.16.73.05.99.36.29.34.58.67.87,1,.82.91,1.78,1.61,2.94,2.01Z"/><path class="cls-7" d="m342.76,582.72c.47,1.51.83,2.85,1.3,4.16.66,1.81.31,3.4-.95,4.78-.91.99-1.73,2.03-2.46,3.14-.05.07-.22.06-.4.1-.07-.23-.18-.46-.2-.69-.26-2.8-.21-5.61.13-8.38.17-1.36.82-2.69,2.58-3.11Z"/><path class="cls-7" d="m382.93,589.23c-.38-.26-.71-.59-1.34-1.12,1.98.14,2.63-1.03,3.17-2.24,1.92.59,2.27.73,2.92,1.48.28.32.61.74.62,1.12.05,1.9.03,3.81-.01,5.71-.02.73-.45,1.16-1.34,1.19-.67-.6-.8-1.37-1.02-2.09-.53-1.7-1.51-3.05-2.99-4.06Z"/><path class="cls-7" d="m350.2,205.76c.84.76,1.62,1.61,2.54,2.25.92.64,2,1.06,3.05,1.6-.14,1.63-.28,3.21-.43,4.79-.02.17-.14.33-.27.62-2.03-.99-2.65-1.5-3.88-2.94-.76-.9-1.33-1.82-1.24-3.08.07-.88-.07-1.78-.12-2.67-.01-.25-.03-.51.32-.56Z"/><path class="cls-7" d="m351.72,270.39c-1.27.41-2.52.84-3.8,1.22-.26.08-.56-.02-.78-.03.4-2.23.78-4.33,1.16-6.47,1.3-.49,2.58-.98,4.05-1.14.74,2.29.25,4.33-.64,6.42Z"/><path class="cls-7" d="m374.27,210.16c-2.76,1.3-5.12.5-7.41-.72-.39-1.19-.88-2.22-.99-3.48,1.27.31,2.3.73,3.35.77,1.11.04,2.23-.29,3.43-.47.64,1.21,1.13,2.49,1.62,3.9Z"/><path class="cls-7" d="m362.87,205.27c-.63.87-.94,1.92-1.73,2.7-1.42-.49-2.44-1.4-3.22-2.59-.29-.43-.42-.88-.33-1.43.27-1.61.48-3.24.73-4.92.22-.03.45-.06.72-.1.57,1.27.96,2.42,1.58,3.43.62,1.01,1.46,1.89,2.26,2.91Z"/><path class="cls-7" d="m346.23,271.71c-.12.29-.54.52-.88.64-.59.22-1.22.35-1.84.47-.27.05-.56-.01-.83-.03.21-1.06.47-1.99.56-2.93.09-.94.02-1.89.02-2.98,1.44-.56,2.64-1.27,4.14-1.34.26,2.24-.35,4.22-1.17,6.16Z"/><path class="cls-7" d="m365.55,204.85c-.47-2.01-.43-2.26.62-3.77,1.62,1.05,3.33,1.85,5.29,1.74.5.87.75,1.7.86,2.63-2.49,1.37-4.68.79-6.77-.6Z"/><path class="cls-7" d="m354.57,220.83c-.29-.07-.5-.06-.63-.17-2.27-1.91-3.97-4.12-3.78-7.3.01-.19,0-.38,0-.57,0-.25,0-.51.44-.57,1.17,1.55,2.82,2.63,4.6,3.67-.15,1.38-.3,2.7-.45,4.02-.03.29-.11.58-.17.93Z"/><path class="cls-7" d="m371.08,211.36c1.17.05,2.35-.27,3.6-.43.39.77.79,1.56,1.18,2.33-.18.22-.27.41-.42.5-1.67.98-3.5,1.07-5.37.88-.23-.02-.47-.19-.65-.35-.72-.66-1.6-2.42-1.86-3.68,1.18.27,2.34.69,3.51.74Z"/><path class="cls-7" d="m356.87,262.88c.36,2.07-.14,3.94-.87,5.78-.06.16-.23.33-.39.39-.91.36-1.81.8-2.91.9.18-1.14.41-2.12.49-3.11.08-1,.02-2.01.02-3.13,1.13-.46,2.28-.89,3.66-.82Z"/><path class="cls-7" d="m350.45,218.7c0-.22-.09-.53.23-.59,1.23,1.28,2.44,2.54,3.73,3.88.04,1.53-.19,3.14-.56,4.97-.91-.37-1.44-.89-1.97-1.43-.88-.9-1.36-1.94-1.33-3.23.02-1.2-.07-2.4-.1-3.6Z"/><path class="cls-7" d="m356.95,268.43c.24-2.02.47-3.9.7-5.88.74-.32,1.56-.6,2.53-.45.93,1.77.82,3.51,0,5.34-.84.31-1.67.62-2.5.93-.3.11-.59.26-.74.06Z"/><path class="cls-7" d="m363.19,204.49c-1.34-1.13-2.22-2.27-2.8-3.64-.27-.63-.56-1.26-.34-2.08.52-.03,1.02-.12,1.51-.07.88.1,1.78.14,2.55.66.71.48.91.93.71,1.77-.29,1.17-.82,2.22-1.63,3.36Z"/><path class="cls-7" d="m387.93,586.56c-.74-.34-1.47-.67-2.2-1.02-.68-.32-.77-.57-.64-1.37.25-1.57.48-3.13.7-4.7.13-.94.24-1.88.41-3.13,1.46,2.51,2.34,8.1,1.74,10.22Z"/><path class="cls-7" d="m351.88,198.3c1.48-.22,2.78-.26,4.07.2.73.26,1.25.78,1.23,1.54-.03,1.13-.04,2.29-.66,3.35-2.52-.81-3.76-2.69-4.64-5.09Z"/><path class="cls-7" d="m355.02,257.97c-.03,1.67-.65,2.97-1.38,4.22-.06.11-.16.23-.26.27-.53.2-1.07.39-1.62.55-.58.18-1.15.46-1.75.31.08-1.27.15-2.4.23-3.76,1.57-.52,3.01-1.29,4.78-1.6Z"/><path class="cls-7" d="m359.24,256.39c.19,1.83.09,3.31-.6,4.83-1.14.29-2.3.58-3.47.86-.16.04-.36-.05-.55-.08.4-1.48.8-2.92,1.21-4.45,1.02-.34,2.09-.7,3.41-1.15Z"/><path class="cls-7" d="m348.49,212.55c-1.14.09-2.16-.32-2.85-1.19-.41-.52-.6-1.25-.8-1.92-.19-.64-.59-1.25-.44-2.02,1.49.31,2.89.6,4.57.95.07,1.15.16,2.28.21,3.41.02.45-.27.74-.68.78Z"/><path class="cls-7" d="m366.88,200.83c-.5-.34-1.14-.61-1.09-1.44.54-.79,1.42-.98,2.28-1.11.85-.13,1.74-.36,2.59.23.22,1.16.44,2.33.69,3.69-1.88.12-3.22-.52-4.48-1.37Z"/><path class="cls-7" d="m349.32,259.86c.75,1.32.24,2.4-.11,3.45-.26.79-1.1.77-1.72,1.03-.41.17-.84.3-1.27.41-.29.08-.61.24-.86-.09.22-1.18.44-2.35.68-3.65,1.01-.36,2.07-.74,3.27-1.16Z"/><path class="cls-7" d="m357.01,210.48c-.12-.14-.21-.34-.23-.52-.02-.31.01-.63.05-.95.08-.7.15-1.39.27-2.08.05-.3.19-.58.3-.91,1.17.93,2.24,1.79,3.4,2.71-.49,1.13-1.07,2.22-1.88,3.31-.35-.16-.66-.24-.88-.44-.38-.34-.7-.73-1.02-1.12Z"/><path class="cls-7" d="m340.98,268.49c.13-.85.73-1.07,1.65-1.16.45,2.09,0,3.84-.76,5.54-.31.68-1.37.91-1.98.53-.61-.37-.75-1.1-.23-1.8.69-.94,1.15-1.95,1.32-3.11Z"/><path class="cls-7" d="m359.61,260.83c.1-1.52.19-2.97.29-4.61.3-.11.53-.23.77-.27.85-.14,1.23.12,1.31.92.14,1.35-.04,2.65-.71,3.96h-1.66Z"/><path class="cls-7" d="m343.99,265.53c-.54.27-1.08.58-1.8.53.16-1.3.3-2.54.45-3.77.78-.53,1.58-.77,2.53-.86.24,1.37-.19,2.49-.67,3.58-.09.21-.3.42-.51.52Z"/><path class="cls-7" d="m353.74,227.81v1.86c-.94.23-1.79.36-2.77.13-.15-1.36-.11-2.67-.12-4.34,1.14.92,2.02,1.63,2.89,2.34Z"/><path class="cls-7" d="m344.44,198.76c1.7-.19,3.06.25,4.46.77.12.81.09,1.55-.13,2.28-1.82-.12-2.96-.89-4.33-3.05Z"/><path class="cls-7" d="m340.67,583.21c-.07.05-.21,0-.4-.02.27-2.26.54-4.51,1.66-6.77.53,1.08.47,2.04.55,2.97.21,2.46.2,2.46-1.81,3.82Z"/><path class="cls-7" d="m349.27,213.22c.02,1.16.21,2.21-.02,3.27-.73.3-1.27,0-1.73-.47-.39-.41-.98-2.21-1.09-3.2.44.09.85.2,1.27.26.48.07.97.09,1.56.15Z"/><path class="cls-7" d="m362.97,262.66c.09,1.22-.11,2.4-.57,3.53-.17.44-.48.73-1.1.69,0-.91.04-1.73-.01-2.55-.05-.8-.18-1.6-.28-2.5.38-.04.69-.12.98-.1.65.04.93.29.98.93Z"/><path class="cls-7" d="m356.31,214.31c.08-.94.2-1.87.33-3.12.59.49.89.72,1.17.96.26.23.52.47.79.72-.54.88-.72,1.85-1.44,2.43-.61-.17-.89-.48-.85-.99Z"/><path class="cls-7" d="m340.74,266.75c-.58-.44-.59-1.09-.64-1.71-.11-1.36.16-1.7,1.8-2.31.02,2.61-.23,3.44-1.17,4.02Z"/><path class="cls-7" d="m376.41,215.22c-1.56.78-3.18,1.18-4.9.59-.1-.03-.16-.17-.24-.25,1.69-.45,3.4-.9,5.12-1.36.4.6.42.83.02,1.02Z"/><path class="cls-11" d="m341.05,571.57c.24-.71.65-1.32,1.65-1.52-.21,1.25-.5,2.31-.94,3.56-.89-.66-.94-1.35-.71-2.04Z"/><path class="cls-11" d="m387.28,571.8c.11.64.09,1.27-.58,1.65-.63-1.04-.77-1.54-.94-3.38.93.37,1.38.93,1.51,1.73Z"/><path class="cls-7" d="m339.26,270.91c-.02-1.56-.04-1.58.31-2.09.17-.25.45-.48.78-.1-.12.73-.25,1.47-1.09,2.18Z"/><path class="cls-7" d="m349.39,217.83c.09.59.21,1.2-.17,1.99-.52-.87-.93-1.56-.96-2.41.59-.17,1.04-.18,1.12.42Z"/><path class="cls-7" d="m356.74,215.98c.12.52-.06.93-.81,1.45.18-.75.29-1.19.4-1.66.21.1.4.14.41.21Z"/><path class="cls-11" d="m365.76,554.36c-1.08.04-2.16-.06-3.23.03-1.12.09-2.22.33-3.39.51.4-1.54.65-1.82,1.78-1.94.44-.05.89-.04,1.33-.04,1.26,0,2.52,0,3.78,0,.44,0,.9-.03,1.33.05.42.08.88.22,1.2.47.38.3.65.75.55,1.37-1.16.23-2.21-.48-3.35-.44Z"/><path class="cls-11" d="m365.09,556.23c-.61-.22-1.41-.15-2.05.05-1.36.42-2.55.21-3.98-.63,3.48-1.03,6.68-1.15,10.21.07-1.57.76-2.79,1-4.18.51Z"/><path class="cls-11" d="m361.17,546.72c.39-.78.99-1.01,1.61-1.06.88-.07,1.78-.07,2.66,0,.63.04,1.24.25,1.76,1.15-2.16-.55-4.03-.44-6.03-.09Z"/><path class="cls-7" d="m357.77,578.14c.67.47.92,1.04.67,1.68-.25.65-.77,1.1-1.54,1.21-.24-.59-.45-1.1-.77-1.87.6-.37,1.11-.7,1.63-1.02Z"/><path class="cls-7" d="m354.72,582.45c-.1.03-.23-.04-.45-.08-.09-.62-.18-1.27-.27-1.94.51-.27.95-.5,1.49-.79,1.14,1.79.99,2.27-.77,2.81Z"/><path class="cls-7" d="m353.31,580.93c.41.62.41,1.18-.1,1.82-.61.03-1.28.23-2-.18-.07-.31-.15-.66-.25-1.08.81-.26,1.49-.74,2.35-.55Z"/><path class="cls-7" d="m350.44,582.16c.08.24-.27.52-.63.48-.67-.08-1.34-.18-2.01-.27,0-.11-.01-.21-.02-.32.66-.13,1.31-.29,1.98-.38.34-.05.58.17.69.5Z"/><path class="cls-7" d="m359.6,577.63c.65.5.58.91-.41,1.63-.18-.4-.34-.67-.42-.97-.06-.21-.11-.52,0-.66.22-.29.56-.2.83,0Z"/><path class="cls-7" d="m372.94,579.72c.37.19.8.41,1.36.7-.08.79-.14,1.4-.21,2.01-2.13-.28-2.44-.78-1.58-2.46.05-.09.21-.12.42-.25Z"/><path class="cls-7" d="m370.65,578.15c.47.34.96.69,1.47,1.06-.27.69-.49,1.26-.72,1.84-1.9-.95-2.1-1.65-.75-2.9Z"/><path class="cls-7" d="m375.48,580.88c.59.16,1.17.37,1.84.58-.12.48-.21.87-.31,1.29h-2.06c-.08-.44-.22-.85-.22-1.26,0-.41.39-.71.76-.61Z"/><path class="cls-7" d="m378.68,581.67c.67.1,1.32.27,1.98.42-.84.34-1.66.56-2.51.52-.09,0-.26-.14-.26-.22,0-.17.02-.41.13-.49.18-.14.45-.26.66-.23Z"/><path class="cls-7" d="m369.71,577.71c-.2.51-.39,1-.59,1.51-.93-.55-1.03-.7-.84-1.07.27-.56.56-.66,1.43-.43Z"/><path class="cls-11" d="m372.8,576.71c-.25,0-.51-.04-.76-.09-.56-.11-.92-.45-.95-1.04-.02-.31.04-.62.08-1.02,1.61-.82,3.13-1.24,4.33-1.23,2.09.03,2.72.67,2.68,2.76,0,.17-.14.33-.25.59-1.71.01-3.42.03-5.13.04Z"/><path class="cls-11" d="m356.59,574.25c.79.38.94,1.54.26,2.06-.28.22-.69.36-1.04.37-1.82.04-3.65.02-5.63.02-.05-.48-.11-.73-.1-.98.05-1.63.46-2.12,2.1-2.31,1.55-.18,3.02.18,4.41.85Z"/><path class="cls-6" d="m266.3,184.56c1.06,4.46,3.41,8.06,6.89,10.97.73.61,1.5,1.17,2.34,1.82-.19.5-.32.98-.53,1.41-.97,1.95-1.16,4.01-1.03,6.15.09,1.48.73,2.53,2.07,3.18,2.08,1,4.28,1.63,6.48,2.29.82.24,1.5-.03,1.96-.79.26-.43.54-.87.88-1.25.59-.66,1.17-.81,1.85-.27,1.52,1.22,3.32,1.59,5.16,1.8,2.91.34,5.83.63,8.75.87,1.46.12,2.93.15,4.4.14,1.21-.01,2.25.34,3.2,1.06.1.08.22.14.31.23,1.89,1.75,4.22,2.3,6.68,2.44,2.86.17,5.73.3,8.6.4.79.03,1.51.19,2.2.55,1.56.83,3.23,1.11,4.98,1.09,4.59-.05,9.18-.07,13.77-.09.44,0,.88.07,1.32.1.78,1.16,1.21,2.43,1.73,3.66.25.59.34,1.29.73,1.76.82.99.76,2.11.8,3.25.06,1.52.12,3.04.18,4.51-.74.47-1.44.8-2,1.29-.52.46-.91,1.06-1.31,1.64-1.09,1.59-2.4,2.97-3.82,4.27-.61.56-1.2,1.14-1.8,1.71-1.07,1.01-1.61,2.25-1.7,3.73-.17,2.94-.07,5.87.22,8.79.34,3.49.8,6.96,1.23,10.6-.61.66-1.74,1.22-1.67,2.45.05,1,.28,1.99.44,3.05-1.3,1.55-1.38,1.79-1.33,3.7.03,1.38.15,2.71,1.7,3.61h1.35c.15,1.89.29,3.72.44,5.64-.56.28-1.05.54-1.56.76-1.09.47-1.7,1.31-1.86,2.47-.12.82-.24,1.64-.32,2.47-.64,6.73-1.3,13.45-1.91,20.18-.2,2.22-.31,4.45-.39,6.68-.2,5.36-.81,10.68-1.48,15.99-.38,2.97-.61,5.96-.91,8.94-.09.94-.2,1.89-.32,3-.49-.15-.85-.2-1.16-.36-4.51-2.32-8.4-5.3-10.71-9.99-.62-1.26-1.32-2.47-1.97-3.72-1.3-2.48-3.48-3.65-6.12-4.07-1.65-.26-3.38.72-4.08,2.25-.53,1.17-.88,2.4-.89,3.69-.05,5.38.33,10.7,1.92,15.88.22.73.49,1.45.78,2.16.74,1.81,1.87,3.35,3.47,4.48,1.61,1.14,3.3,2.17,4.93,3.29.84.57,1.65,1.2,2.45,1.83,2.09,1.62,3.23,3.9,4.26,6.25.38.87.22,1.75.1,2.64-.25,1.83-.57,3.65-.75,5.49-.38,3.68-.7,7.36-1.02,11.05-.38,4.51-.74,9.02-1.07,13.54-.13,1.78-.13,3.57-.2,5.35-.03.75.02,1.51-.28,2.38-.37-.2-.65-.31-.87-.49-.99-.8-1.96-1.64-2.96-2.42-.45-.35-.94-.67-1.45-.9-.68-.3-1.3-.12-1.65.52-.34.6-.65,1.26-.78,1.93-.31,1.69-.53,3.4-.75,5.1-.07.5.07,1.06-.08,1.52-.54,1.68.18,2.99,1.16,4.21,1.35,1.69,2.72,3.38,4.15,5,2.27,2.55,4,5.43,5.49,8.48,1.27,2.62,1.82,5.43,2.17,8.29.26,2.15.41,4.31.59,6.47.04.44,0,.88,0,1.43-.8.38-1.58.78-2.39,1.13-3.62,1.58-7.26,3.1-11,4.38-6.4,2.19-12.65,4.75-18.4,8.38-.16.1-.32.25-.5.28-1.56.33-2.48,1.49-3.42,2.61-1.45,1.71-2.57,3.65-3.5,5.68-1.2,2.61-1.17,5.17.32,7.68,1.04,1.75,2.11,3.5,3.02,5.32,2.14,4.28,4.24,8.57,6.26,12.9,2.88,6.18,5.7,12.39,8.51,18.6,2.22,4.89,4.69,9.62,7.65,14.11.14.21.29.42.42.64,1.48,2.39,3.43,4.21,6.07,5.33,2.81,1.19,5.56,2.54,8.33,3.83,2.6,1.21,5.19,2.43,7.77,3.69.74.36,1.47.81,2.05,1.37.71.68,1.53.86,2.42.97,1.52.18,3.04.34,4.56.51,1.52.17,2.79.83,3.88,2.05.06,2.08.13,4.06.15,6.03,0,.28-.19.59-.35.85-.98,1.59-1.62,3.31-2.11,5.11-.9,3.32-1.86,6.62-2.81,9.99-.64.15-1.25.29-1.85.45-2.74.72-4.7,2.9-4.81,5.73-.08,1.92-.6,3.6-1.57,5.23-.98,1.65-1.28,3.43-.83,5.34.41,1.73,1.29,2.89,3.19,3.01.12,0,.23.09.48.19.02.3.06.67.05,1.03-.06,3.06-.16,6.12-.18,9.18-.01,1.64.12,1.77,1.59,2.88.21,1.69.43,3.46.67,5.23.13.95.27,1.89.43,2.83.05.31.18.61.32.89.18.37.59.48.98.24.31-.19.58-.43.91-.68.74.82.95,1.76,1.24,2.66.5,1.51.95,3.04,1.49,4.54.23.66.57,1.28.93,1.88.33.55,1.04.59,1.46.09.44-.52.83-1.08,1.27-1.66.85.4,1.18,1.1,1.49,1.78.62,1.4,1.18,2.82,1.78,4.23.3.7.58,1.41.91,2.1.16.34.37.67.62.96.67.81,1.67.78,2.25-.1.38-.57.65-1.2.96-1.78,1.09.42,2.09.83,3.09,1.2,1.01.37,1.46,1.19,1.7,2.15.27,1.11.5,2.24.75,3.36.31,1.38.81,2.69,1.62,3.85.21.3.51.58.82.76.13.07.56-.09.6-.23.11-.35.13-.75.1-1.12-.15-1.58.21-3.03.98-4.41.81-1.45,1.48-2.96,1.82-4.6.02-.1.17-.17.33-.32.27.42.5.85.79,1.23.59.76,1.56.82,2.12.05.52-.71.92-1.53,1.27-2.34.67-1.52,1.23-3.08,1.9-4.59.35-.8.68-1.67,1.59-2.09.65.17.74.82,1.08,1.25.69.88,1.42.88,1.93-.07.42-.78.77-1.61,1.06-2.45.42-1.2.75-2.43,1.15-3.65.29-.9.51-1.84,1.15-2.57.16.02.31-.01.39.05,1.28.91,1.64.83,1.9-.57.3-1.63.51-3.27.74-4.91.15-1.07.27-2.15.4-3.17.46-.42,1.03-.72,1.26-1.18.26-.54.31-1.23.31-1.85,0-2.87-.06-5.74-.09-8.61,0-.44,0-.89,0-1.43.36-.11.7-.24,1.05-.3,1.27-.23,2.01-1.05,2.41-2.21.61-1.76.58-3.51-.2-5.22-.26-.58-.57-1.14-.89-1.69-.66-1.12-1-2.32-1.05-3.63-.03-.82-.15-1.66-.42-2.43-.75-2.13-2.22-3.53-4.46-4.05-.55-.13-1.11-.25-1.76-.4-.21-.63-.44-1.28-.63-1.95-.76-2.7-1.53-5.4-2.26-8.1-.48-1.8-1.13-3.52-2.12-5.1-.16-.26-.34-.57-.34-.86,0-1.97.06-3.95.1-5.92,1.03-1.28,2.35-1.95,3.94-2.14,1.46-.17,2.91-.34,4.37-.49,1.03-.1,1.95-.37,2.76-1.12.64-.6,1.45-1.03,2.25-1.41,3.11-1.48,6.24-2.89,9.36-4.35,2.65-1.25,5.29-2.53,7.93-3.8,1.23-.59,2.28-1.42,3.05-2.55,1.33-1.94,2.71-3.86,3.93-5.88,2.08-3.44,3.92-7.01,5.54-10.69,3.93-8.93,8.05-17.76,12.33-26.53,1.68-3.44,3.31-6.9,5.36-10.14,1.78-2.8,1.73-5.65.27-8.53-1.16-2.28-2.46-4.47-4.3-6.29-.59-.58-1.16-1.18-2.04-1.34-.3-.05-.58-.26-.85-.42-6.09-3.82-12.71-6.45-19.48-8.75-3.69-1.25-7.25-2.8-10.78-4.42-.46-.21-.94-.39-1.55-.64,0-.42-.02-.92,0-1.41.18-3.51.58-6.99,1.28-10.43.2-.99.52-1.97.9-2.92,1.49-3.77,3.59-7.16,6.3-10.2,1.4-1.57,2.71-3.22,4.02-4.87.97-1.22,1.08-1.63,1.25-3.18-1.21-.95-2.44-1.93-3.77-2.99.16-.45.32-.91.48-1.37,2.23-6.66,5.08-13.07,7.72-19.56,4.06-9.98,7.86-20.05,10.94-30.39.51-1.71,1.09-3.4,1.55-5.12.24-.92.36-1.88.41-2.83.14-2.45-.31-4.83-1-7.16-1.11-3.79-3.65-6.2-7.34-7.43-1.57-.52-3.15-.98-4.85-.94-1.91.04-3.82-.15-5.73-.11-3.52.08-6.96.71-10.38,1.52-6.88,1.62-13.79,3.12-20.69,4.7-3.97.91-7.93,1.9-11.9,2.83-1.43.34-2.86.62-4.3.9-.36.07-.73.05-1.21.07-.04-.65-.09-1.21-.1-1.77-.2-7.84-.42-15.68-.6-23.52-.09-4.02-.12-8.03-.17-12.05-.05-4.72-.09-9.44-.13-14.16-.02-2.3-.06-4.59-.02-6.88.02-1.03-.33-1.71-1.3-2.08-.59-.23-1.17-.49-1.71-.72-.34-1.81-.41-6.87-.16-11.32.36-.62,1.07-.63,1.64-.84.93-.34,1.51-.96,1.71-1.89.2-.93.36-1.88.44-2.82.1-1.08-.13-2.06-1.35-2.46.1-.71.19-1.33.28-1.95.05-.32.12-.63.13-.95.05-1.42-.19-2.69-1.79-3.2-.15-1.98-.03-3.88.37-5.76.13-.61.42-1.2.7-1.76.4-.8.86-1.56,1.28-2.35.86-1.62.97-3.3.19-4.97-.97-2.08-1.92-4.17-3-6.19-1.6-2.97-2.44-3.53-5.71-4.16-.36-1.39-.31-3.07.48-7.34.37-2.01,1.46-3.78,2.36-5.59.4-.05.71-.12,1.03-.12,2.87-.01,5.73-.2,8.58-.59,1.09-.15,2.08,0,3.1.58,2.18,1.22,5.48.59,7.24-1.21.13-.13.27-.26.32-.3,3.64.38,7.18.75,10.73,1.11.25.03.51.06.76.07,3.12.16,6.24.36,9.36.45,5.93.16,11.86.1,17.78-.4,4.22-.35,8.32-1.15,12.12-3.16,2.14-1.13,4.35-2.13,6.57-3.1,1.52-.66,3.1-1.15,4.67-1.69,2.29-.8,4.64-.82,6.98-.31,6.42,1.41,12.91,2.35,19.45,2.97,2.98.28,5.97.49,8.96.69,4.01.27,8.02.49,12.02.78.69.05,1.41.18,2.03.47,3.43,1.62,7.08,2.48,10.74,3.35,2.55.6,18.31.98,20.9,1.29.88.1,1.75.27,2.72.42.07-.36.18-.71.19-1.07.04-1.47.06-2.93.07-4.4.06-8.99.11-17.99.17-26.98,0-.19-.02-.39,0-.57.13-.97-.34-1.5-1.18-1.92-5.83-2.88-24.82-5.78-30.63-8.7-1.72-.86-3.51-1.04-5.39-.81-2.47.3-4.92.7-7.33,1.32-4.69,1.2-9.37,2.43-14.05,3.68-7.2,1.93-14.39,3.88-21.69,5.4-1.12.23-2.26.37-3.4.55-1.21.19-2.23-.13-3.16-.97-1.18-1.07-2.46-2.03-3.66-3.07-2.44-2.09-5.21-2.53-8.24-1.72-1.29.34-2.57.73-3.85,1.12-1.16.35-2.31.72-3.47,1.08-.49.15-.96.33-1.45.48-1.66.51-2.51,1.69-2.68,3.36-.1,1.01-.16,2.04-.11,3.06.07,1.41-.47,2.42-1.57,3.27-1.56,1.21-3.06,2.5-4.58,3.76-.86.71-1.84,1.09-2.96,1.18-4.51.38-9.01.85-13.53,1.17-5.6.4-11.2.68-16.8,1-1.26.07-2.46-.01-3.71-.54-1.56-.65-3.26-.3-4.82.42-.4.18-.77.44-1.17.68-2.39-1.14-4.84-.99-7.3-.45-2.83-1.19-5.63-1.51-8.47.34-.5-.12-1.12-.24-1.72-.43-1.25-.39-2.52-.33-3.79-.26-1.09.06-1.89.68-2.42,1.49-2.62.31-5.1.22-7.58.16-.89-.02-1.79-.15-2.68-.09-2.51.17-4.62-.71-6.5-2.29-.88-.74-1.77-1.46-2.66-2.18s-1.77-1.46-2.69-2.15c-1.57-1.18-3.32-1.62-5.23-1.05-1.09.33-2.23.62-3.22,1.17-1.5.82-3.03.93-4.63.6-2.5-.51-4.98-1.08-7.47-1.61-1-.21-1.99-.44-2.99-.62-1.47-.26-2.81-.8-4.03-1.65-2.02-1.4-3.66-3.18-4.92-5.28-1.53-2.53-2.63-5.23-3.13-8.16-.19-1.13-.45-2.25-.72-3.36-.27-1.11-.95-1.91-1.89-2.54-1.79-1.21-3.81-1.44-5.86-1.33-2.65.15-5.07,1.18-7.4,2.39-.48.25-.68.67-.85,1.19-1.28,3.99-1.4,7.99-.43,12.07Zm77.64,14.76c.29.34.58.67.87,1,.82.91,1.78,1.61,2.94,2.01.35.12.69.26,1.1.41.06,1.62.19,3.18.01,4.83-1.78.12-3.32-.28-4.7-1.26-.28-.2-.52-.57-.63-.91-.48-1.5-.93-3.02-1.36-4.54-.08-.3-.08-.63-.05-.94.05-.49.36-.79.81-.96.43-.16.73.05.99.36Zm4.83,2.5c-1.82-.12-2.96-.89-4.33-3.05,1.7-.19,3.06.25,4.46.77.12.81.09,1.55-.13,2.28Zm.41,9.97c.02.45-.27.74-.68.78-1.14.09-2.16-.32-2.85-1.19-.41-.52-.6-1.25-.8-1.92-.19-.64-.59-1.25-.44-2.02,1.49.31,2.89.6,4.57.95.07,1.15.16,2.28.21,3.41Zm8.01-11.74c-.03,1.13-.04,2.29-.66,3.35-2.52-.81-3.76-2.69-4.64-5.09,1.48-.22,2.78-.26,4.07.2.73.26,1.25.78,1.23,1.54Zm1.85-1.11c.57,1.27.96,2.42,1.58,3.43.62,1.01,1.46,1.89,2.26,2.91-.63.87-.94,1.92-1.73,2.7-1.42-.49-2.44-1.4-3.22-2.59-.29-.43-.42-.88-.33-1.43.27-1.61.48-3.24.73-4.92.22-.03.45-.06.72-.1Zm5.79,2.21c-.29,1.17-.82,2.22-1.63,3.36-1.34-1.13-2.22-2.27-2.8-3.64-.27-.63-.56-1.26-.34-2.08.52-.03,1.02-.12,1.51-.07.88.1,1.78.14,2.55.66.71.48.91.93.71,1.77Zm6.54,1.06c-1.88.12-3.22-.52-4.48-1.37-.5-.34-1.14-.61-1.09-1.44.54-.79,1.42-.98,2.28-1.11.85-.13,1.74-.36,2.59.23.22,1.16.44,2.33.69,3.69Zm.1.62c.5.87.75,1.7.86,2.63-2.49,1.37-4.68.79-6.77-.6-.47-2.01-.43-2.26.62-3.77,1.62,1.05,3.33,1.85,5.29,1.74Zm-2.23,3.91c1.11.04,2.23-.29,3.43-.47.64,1.21,1.13,2.49,1.62,3.9-2.76,1.3-5.12.5-7.41-.72-.39-1.19-.88-2.22-.99-3.48,1.27.31,2.3.73,3.35.77Zm118.11-.11c.46-1.98.96-3.96,1.49-5.93,1.56-5.91,2.15-11.9,1.35-17.99-.36-2.74-1.06-5.37-2.63-7.7-.09-.13-.07-.33-.12-.55.79-.26,1.54-.38,2.29-.17.85.24,1.73.47,2.52.85,5.71,2.81,24.58,5.67,30.28,8.51.23.11.43.26.78.48.03.47.07.85.07,1.23-.04,10.01-.08,20.02-.14,30.02,0,.37-.11.73-.17,1.14-.9.13-1.72.02-2.53-.08-3.48-.42-20.07-1.2-23.48-2.04-2.3-.57-4.52-1.32-6.68-2.27-.58-.25-1.18-.47-1.8-.61-.64-.15-.98-.5-1.15-1.12-.35-1.26-.38-2.52-.08-3.78Zm-79.54,1.93c-2.14-2.93-3.49-6.21-4.41-9.68-.14-.53-.14-1.11-.22-1.76.59-.1,1.08-.23,1.57-.25,1.75-.06,3.17-.86,4.45-1.97,1.5-1.29,3.04-2.53,4.51-3.85.71-.63,1.41-1,2.4-.87,1.15.16,2.3.02,3.38-.43,1.47-.61,2.92-1.27,4.37-1.93.18-.08.3-.29.49-.47-.55-.26-.83.1-1.16.24-1.18.49-2.33,1.03-3.5,1.52-1.07.45-2.18.7-3.35.61-.92-.07-1.39-.52-1.41-1.45-.02-.89,0-1.79.07-2.68.2-2.48.64-3.01,3.04-3.78,1.76-.56,3.51-1.14,5.28-1.66,1.16-.34,2.34-.62,3.52-.87,2.11-.45,4.05-.02,5.78,1.28.81.61,1.62,1.24,2.41,1.88.69.56,1.37,1.15,2.02,1.75.9.82,1.95,1.18,3.16,1.05,1.01-.11,2.04-.15,3.03-.37,3.79-.83,7.6-1.65,11.36-2.62,7.09-1.82,14.15-3.78,21.25-5.61,3.08-.79,6.21-1.42,9.32-2.09.42-.09.87-.01,1.25-.01,1.62,1.47,2.6,4.56,2.97,6.59.77,4.24.73,8.5.24,12.77-.38,3.37-1.24,6.64-2.18,9.88-.69,2.37-.98,4.74-.47,7.43-.57,0-.94.02-1.31,0-1.97-.11-3.95-.23-5.92-.36-4.01-.26-8.03-.4-12.02-.81-4.63-.47-9.24-1.12-13.84-1.79-2.65-.39-5.26-.99-7.89-1.47-1.58-.29-3.16-.24-4.74.15-2.49.61-4.89,1.44-7.2,2.52-2.37,1.1-4.72,2.24-7.08,3.36-1.97.94-4,1.55-6.22,1.64-5.34.21-9.74-1.49-12.96-5.9Zm-30.33,5.23c-2.45-3.32-5.52-11.54-5.49-14.61.05-.03.1-.09.15-.09,10.05-.36,20.09-.98,30.12-1.96.18.25.24.3.25.35.15.62.29,1.24.46,1.85,1.02,3.72,2.49,7.23,4.96,10.25,1.94,2.37,4.28,4.18,7.35,4.85.48.1.95.27,1.55.44-.27.2-.41.38-.56.39-13.01.95-25.96.34-38.79-1.47Zm-6.19,1.78c1.69-.45,3.4-.9,5.12-1.36.4.6.42.83.02,1.02-1.56.78-3.18,1.18-4.9.59-.1-.03-.16-.17-.24-.25Zm-3.7-4.94c1.18.27,2.34.69,3.51.74,1.17.05,2.35-.27,3.6-.43.39.77.79,1.56,1.18,2.33-.18.22-.27.41-.42.5-1.67.98-3.5,1.07-5.37.88-.23-.02-.47-.19-.65-.35-.72-.66-1.6-2.42-1.86-3.68Zm-6.37,2.02c.54-2.48,1.21-4.92,2.59-7.11.17-.26.3-.56.7-.45.53,1.63.98,3.28,1.6,4.87.61,1.57,1.4,3.08,2.11,4.61-1.53.59-5.41.94-7.29.66-.23-.89.12-1.74.3-2.58Zm-3.17-1.04c-.38-.34-.7-.73-1.02-1.12-.12-.14-.21-.34-.23-.52-.02-.31.01-.63.05-.95.08-.7.15-1.39.27-2.08.05-.3.19-.58.3-.91,1.17.93,2.24,1.79,3.4,2.71-.49,1.13-1.07,2.22-1.88,3.31-.35-.16-.66-.24-.88-.44Zm-.87,3.7c-.61-.17-.89-.48-.85-.99.08-.94.2-1.87.33-3.12.59.49.89.72,1.17.96.26.23.52.47.79.72-.54.88-.72,1.85-1.44,2.43Zm-1.23,2.13c.18-.75.29-1.19.4-1.66.21.1.4.14.41.21.12.52-.06.93-.81,1.45Zm-1.18,2.46c-.03.29-.11.58-.17.93-.29-.07-.5-.06-.63-.17-2.27-1.91-3.97-4.12-3.78-7.3.01-.19,0-.38,0-.57,0-.25,0-.51.44-.57,1.17,1.55,2.82,2.63,4.6,3.67-.15,1.38-.3,2.7-.45,4.02Zm-3.9,5.57c1.14.92,2.02,1.63,2.89,2.34v1.86c-.94.23-1.79.36-2.77.13-.15-1.36-.11-2.67-.12-4.34Zm-.3-3.17c.02-1.2-.07-2.4-.1-3.6,0-.22-.09-.53.23-.59,1.23,1.28,2.44,2.54,3.73,3.88.04,1.53-.19,3.14-.56,4.97-.91-.37-1.44-.89-1.97-1.43-.88-.9-1.36-1.94-1.33-3.23Zm10.72,38.53h-1.66c.1-1.52.19-2.97.29-4.61.3-.11.53-.23.77-.27.85-.14,1.23.12,1.31.92.14,1.35-.04,2.65-.71,3.96Zm-.27,1.01c.38-.04.69-.12.98-.1.65.04.93.29.98.93.09,1.22-.11,2.4-.57,3.53-.17.44-.48.73-1.1.69,0-.91.04-1.73-.01-2.55-.05-.8-.18-1.6-.28-2.5Zm-3.32,6.54c-.3.11-.59.26-.74.06.24-2.02.47-3.9.7-5.88.74-.32,1.56-.6,2.53-.45.93,1.77.82,3.51,0,5.34-.84.31-1.67.62-2.5.93Zm-10.29-2.82c.26,2.24-.35,4.22-1.17,6.16-.12.29-.54.52-.88.64-.59.22-1.22.35-1.84.47-.27.05-.56-.01-.83-.03.21-1.06.47-1.99.56-2.93.09-.94.02-1.89.02-2.98,1.44-.56,2.64-1.27,4.14-1.34Zm-2.9-.55c-.09.21-.3.42-.51.52-.54.27-1.08.58-1.8.53.16-1.3.3-2.54.45-3.77.78-.53,1.58-.77,2.53-.86.24,1.37-.19,2.49-.67,3.58Zm-2.04,11.89c-.03-.92-.49-1.87-.08-2.62,5.56-1.75,10.95-3.44,16.5-5.19.32,2.32.24,6.24-.16,7.48-1.31.07-2.64.09-3.97.22-1.33.14-2.65.35-3.96.61-1.37.28-2.72.67-4.08.99-1.28.3-2.44,1.01-3.77,1.16-.64-.85-.44-1.79-.48-2.64Zm10.75-13.2c1.13-.46,2.28-.89,3.66-.82.36,2.07-.14,3.94-.87,5.78-.06.16-.23.33-.39.39-.91.36-1.81.8-2.91.9.18-1.14.41-2.12.49-3.11.08-1,.02-2.01.02-3.13Zm-7.85.96c.22-1.18.44-2.35.68-3.65,1.01-.36,2.07-.74,3.27-1.16.75,1.32.24,2.4-.11,3.45-.26.79-1.1.77-1.72,1.03-.41.17-.84.3-1.27.41-.29.08-.61.24-.86-.09Zm7-.7c.74,2.29.25,4.33-.64,6.42-1.27.41-2.52.84-3.8,1.22-.26.08-.56-.02-.78-.03.4-2.23.78-4.33,1.16-6.47,1.3-.49,2.58-.98,4.05-1.14Zm-2.35-.64c.08-1.27.15-2.4.23-3.76,1.57-.52,3.01-1.29,4.78-1.6-.03,1.67-.65,2.97-1.38,4.22-.06.11-.16.23-.26.27-.53.2-1.07.39-1.62.55-.58.18-1.15.46-1.75.31Zm5.82-5.79c1.02-.34,2.09-.7,3.41-1.15.19,1.83.09,3.31-.6,4.83-1.14.29-2.3.58-3.47.86-.16.04-.36-.05-.55-.08.4-1.48.8-2.92,1.21-4.45Zm9.54,105.86c2.48-.13,4.97-.16,7.43-.42,2.99-.31,5.98-.36,8.96-.22,2.08.1,4.19.18,6.31.85-.14.35-.22.65-.37.91-7.03,12.04-14.36,23.9-22.4,35.3-.05.07-.22.05-.35.07-.33-.21-.21-.56-.23-.85-.16-4.13-.27-8.27-.46-12.4-.15-3.31-.38-6.61-.56-9.91-.22-3.94-.43-7.88-.63-11.82-.02-.42.07-.84.12-1.34.8-.06,1.49-.12,2.18-.15Zm45.04,46.36c-4.16-1.24-8.06-.79-11.59,1.86-1.12.84-2.22,1.7-3.29,2.61-1.02.86-2.02,1.76-2.97,2.7-2.27,2.21-5.02,3.16-8.13,3.22-.89.02-1.78,0-2.67.03-2.56.05-4.9.79-6.92,2.38-1.25.99-2.45,2.04-3.57,3.16-1.49,1.48-2.88,3.07-4.31,4.6-.91.98-1.83,1.95-2.76,2.91-.14.15-.33.42-.71.11.15-.24.28-.51.46-.74,2.26-2.92,4.48-5.88,6.8-8.75,1.28-1.58,2.7-3.05,4.12-4.51,1.12-1.14,2.44-2.03,3.87-2.77,1.45-.76,2.96-1.14,4.6-.86,2.07.35,3.87-.23,5.52-1.52,1.7-1.33,3.46-2.61,5.25-3.82,2.65-1.79,5.48-3.23,8.56-4.15,1.16-.35,2.34-.69,3.56-.52,2.78.37,4.98,1.84,6.89,3.79.16.17.09.55.17,1.14-1.18-.35-2.03-.6-2.88-.86Zm-73.24,12.5c-.02-.27-.07-.58-.08-.89-.01-.37,0-.74,0-1.31,1.08-.09,1.9-.19,2.72-.21,1.78-.05,3.56-.06,5.34-.08,3.56-.04,7.13.02,10.69-.14,5.53-.24,11.05-.62,16.58-.93.41-.02.85-.23,1.23.1-.03.16,0,.31-.07.39-.99,1.08-1.98,2.14-2.91,3.14-5.62.64-11.16.61-16.69.65-8.45.06-15.13-.26-16.81-.72Zm.29,1.33c3.58-.16,7.12.16,10.67.23,3.5.07,7,.11,10.5.05,3.55-.06,7.11-.24,11.06-.39-.42.63-.61.94-.82,1.23-.88,1.17-1.74,2.36-2.66,3.49-1.84,2.28-3.69,4.55-5.58,6.78-1.53,1.81-3.35,3.3-5.39,4.49-1.69.99-3.5,1.55-5.47,1.28-2.44-.33-4.69-1.17-6.55-2.85-2.16-1.96-3.82-4.27-4.59-7.13-.41-1.53-.79-3.08-1.08-4.64-.15-.78-.38-1.6-.09-2.55Zm59.77,107.33c.09-4.78.21-9.56.67-14.32.45-4.63,1.02-9.25,2.01-13.8.57-2.61,1.17-5.22,2.25-7.69.49-1.12,1.09-2.13,1.96-3.02,1.11-1.14,2.15-2.35,3.17-3.57.32-.38.54-.85.75-1.31,1.82-4.15,3.81-8.22,6.23-12.04,2.39-3.76,4.83-7.52,8.37-10.36.14-.12.27-.28.36-.44.04-.09,0-.25-.05-.34-.07-.09-.24-.19-.31-.16-.29.12-.56.27-.82.43-2,1.24-4,2.48-5.99,3.74-.63.4-1.28.53-2,.35-.43-.1-.87-.17-1.31-.26-2.31-.47-4.61-.95-6.92-1.42-.69-.14-1.38-.26-2.06-.41-.61-.13-1.03-.49-1.19-1.1-.08-.31-.14-.62-.18-.94-.21-1.84-.43-3.67-.59-5.51-.4-4.57.14-9.03,1.74-13.35.1-.28.26-.53.43-.86.58.24,1.05.41,1.51.62,2.8,1.24,5.67,2.27,8.55,3.29,6.62,2.33,13.12,4.93,19,8.85.21.14.43.31.67.35.77.13,1.2.69,1.67,1.2,1.54,1.65,2.66,3.57,3.67,5.57,1.31,2.58,1.35,5.12-.24,7.63-2.12,3.34-3.77,6.93-5.52,10.48-4.19,8.52-8.18,17.13-12.01,25.81-1.62,3.68-3.42,7.27-5.49,10.71-1.31,2.18-2.81,4.25-4.24,6.35-.55.8-1.29,1.41-2.15,1.86-3.68,1.9-7.4,3.71-11.25,5.24-.11.04-.24,0-.65,0,0-.57,0-1.07,0-1.58Zm6.11-63.71c4,.79,7.99,1.6,11.98,2.41.37.07.72.22,1.22.37-.3.5-.55.93-.81,1.34-1.23,1.93-2.58,3.8-3.67,5.81-1.67,3.08-3.19,6.23-4.71,9.38-.7,1.45-1.73,2.59-3.12,3.96-.97-7.98-2.13-15.52-2.76-23.05.64-.65,1.28-.34,1.88-.22Zm-16.91,107.39c.19-.23.3-.38.44-.51,1.37-1.34,1.36-2.83-.05-4.1-.33-.29-.73-.5-1.09-.77-.2-.15-.48-.3-.55-.5-.42-1.24-.89-2.48-.99-3.82,1.82-.09,3.13.53,4.16,1.94.78,1.06,1.2,2.26,1.17,3.57-.04,1.52.42,2.88,1.17,4.17.35.6.69,1.23.94,1.88.57,1.49.52,2.99-.07,4.47-.22.55-.59.98-1.16,1.21-.48.19-.96.35-1.51-.13-.56-2.5-.84-5.19-2.47-7.41Zm-.25,1.73c1.46,2.51,2.34,8.1,1.74,10.22-.74-.34-1.47-.67-2.2-1.02-.68-.32-.77-.57-.64-1.37.25-1.57.48-3.13.7-4.7.13-.94.24-1.88.41-3.13Zm-.42-6.26c.93.37,1.38.93,1.51,1.73.11.64.09,1.27-.58,1.65-.63-1.04-.77-1.54-.94-3.38Zm1.18,25.3c-.67-.6-.8-1.37-1.02-2.09-.53-1.7-1.51-3.05-2.99-4.06-.38-.26-.71-.59-1.34-1.12,1.98.14,2.63-1.03,3.17-2.24,1.92.59,2.27.73,2.92,1.48.28.32.61.74.62,1.12.05,1.9.03,3.81-.01,5.71-.02.73-.45,1.16-1.34,1.19Zm-3.91,7.69c-.54-1.91-.62-3.89-.73-5.85-.11-1.89-.55-3.64-1.92-4.98v-3.46c.17-.03.31-.1.41-.07,2.03.81,3.6,2.11,4.43,4.2.4,1,.84,1.98,1.23,2.99.11.28.19.62.16.91-.25,2.52-.48,5.04-1.02,7.61-.43-.15-.77-.31-1.13-.37-.34-.06-.71-.01-1.08-.01-.14-.37-.26-.66-.35-.96Zm-6.17,4.66c-.06-2.11.43-4.17.59-6.26.08-.94.08-1.9-.01-2.84-.25-2.42-1.38-4.47-2.81-6.37-.3-.39-.59-.79-.99-1.32.43-.02.67-.07.9-.04,1.45.21,2.85.61,4.22,1.13,1.6.61,2.44,1.78,2.75,3.38.19,1,.32,2.01.36,3.02.08,1.98.29,3.93.98,5.8.19.52.16.95-.03,1.46-.38,1.01-.65,2.06-1,3.08-.45,1.32-.93,2.63-1.43,3.94-.1.25-.35.44-.59.72-.38-.53-.61-1-.98-1.32-.41-.35-.94-.56-1.45-.85-.41-1.12-.47-2.32-.51-3.53Zm-6.08,8.06c.17-.41.24-.86.37-1.28.75-2.4.97-4.85.85-7.35-.15-3.28-.94-6.4-2.2-9.42-.37-.88-.78-1.74-1.14-2.63-.45-1.13-.78-2.28-.53-3.63.88-.54,1.72-.73,2.63-.79,1.19-.09,2.08.32,2.84,1.21,1.34,1.56,2.4,3.28,3,5.26.59,1.94.44,3.9.13,5.86-.43,2.72-.68,5.43-.04,8.15.06.25.09.5.12.64-.59,1.1-1.17,2.09-1.65,3.12-.48,1.04-.86,2.12-1.3,3.18-.37.88-.75,1.75-1.18,2.6-.12.24-.41.4-.58.55-.2-.09-.28-.1-.31-.14-1.17-1.61-1.83-3.31-1.01-5.31Zm-7.33,4.15c.05-2.44.63-4.8,1.02-7.18.9-5.46.48-10.79-1.43-15.98-.35-.96-.76-1.89-1.12-2.84-.31-.83-.57-1.68-.42-2.66.86-.4,1.72-.8,2.62-1.22,1.06.47,2.1.93,3.09,1.37.27,1.19.44,2.33.79,3.41.37,1.15.91,2.24,1.38,3.35.02.06.06.11.08.17,1.28,3.29,2.04,6.68,2.08,10.23.03,3.18-1.17,6.11-1.74,9.16-.77.94-.76,2.12-1.02,3.22-.19.8-.45,1.6-.8,2.34-.84,1.75-1.92,3.4-1.93,5.78-.36-.48-.56-.64-.63-.85-.28-.84-.55-1.69-.77-2.55-.3-1.17-.48-2.38-.87-3.52-.26-.75-.35-1.46-.33-2.23Zm-5.48-2.01c-.95-2.53-.75-5.21-.45-7.87.3-2.66.85-5.28,1.2-7.94.48-3.62.62-7.24-.6-10.78-.04-.11,0-.24,0-.54,1.07.04,1.83.49,2.46.72.62,1.73,1.13,3.3,1.75,4.83,1.92,4.79,2.41,9.76,1.83,14.84-.31,2.72-.8,5.42-1.22,8.12-.05.34-.2.67-.28.94-1.93-.19-3.33-1.14-4.68-2.33Zm-6.88-11.83c.56-2.42,1.27-4.8,1.82-7.22.55-2.43.96-4.89.27-7.37-.03-.1.07-.23.14-.43,1.25-.31,2.55-.47,3.85-.2.57.81.8,1.67.98,2.54.5,2.46.55,4.94.21,7.42-.48,3.54-.99,7.07-1.48,10.6-.28,2.04-.21,4.08.42,6.06.46,1.44.03,2.6-.95,3.82-.96-.56-1.17-1.39-1.49-2.13-.61-1.4-1.12-2.85-1.71-4.26-.44-1.06-.92-2.12-1.81-2.9-.37-.33-.48-.72-.53-1.18-.17-1.6-.07-3.2.29-4.75Zm-6.13-6.26c.34-.54.69-1.08,1.09-1.56,1.42-1.69,2.53-3.51,2.51-5.84,1.26-.43,2.35-1.12,3.6-1.15.72.63.74,1.41.76,2.17.07,2.05-.15,4.07-.7,6.05-.39,1.41-.8,2.82-1.16,4.24-.64,2.48-1.13,4.97-.83,7.5-.61.73-1.17,1.4-1.95,2.35-.46-1.11-.87-1.96-1.18-2.85-.42-1.2-.76-2.43-1.12-3.65-.39-1.29-.88-2.52-1.93-3.34-.24-1.49.18-2.74.91-3.9Zm-3.42-5.27c.44-.69.92-1.37,1.49-1.97,1.03-1.1,1.81-2.29,1.89-3.85,0-.18.12-.35.2-.59.94-.07,1.87-.14,2.74.41.04.21.11.39.1.58-.08,1.33-.21,2.66-.06,4,.09.84-.16,1.65-.6,2.37-.43.7-.87,1.41-1.39,2.05-1.5,1.82-2.59,3.78-2.56,6.22,0,.19-.19.39-.39.79-.22-.41-.39-.61-.42-.82-.18-1.13-.3-2.27-.47-3.4-.23-1.57-.51-3.13-.72-4.7-.05-.35.01-.78.19-1.07Zm-1.37-8.73c.17-1.36.82-2.69,2.58-3.11.47,1.51.83,2.85,1.3,4.16.66,1.81.31,3.4-.95,4.78-.91.99-1.73,2.03-2.46,3.14-.05.07-.22.06-.4.1-.07-.23-.18-.46-.2-.69-.26-2.8-.21-5.61.13-8.38Zm1.58-12.22c-.89-.66-.94-1.35-.71-2.04.24-.71.65-1.32,1.65-1.52-.21,1.25-.5,2.31-.94,3.56Zm.72,5.77c.21,2.46.2,2.46-1.81,3.82-.07.05-.21,0-.4-.02.27-2.26.54-4.51,1.66-6.77.53,1.08.47,2.04.55,2.97Zm1.73-14.48c-.39,1.43-.74,2.71-1.06,3.89-.66.48-1.25.87-1.78,1.31-.62.52-.89,1.21-.9,2.02-.02.82.21,1.5.93,1.96.15.1.25.28.49.57-1.78,2.28-1.82,5.06-2.6,7.54-1.01.07-1.3.09-1.54-.13-.37-.33-.79-.68-.98-1.11-.63-1.39-.65-2.84-.16-4.27.24-.71.61-1.4.99-2.05.72-1.23,1.18-2.52,1.18-3.97,0-.63.09-1.28.26-1.88.58-2.06,1.9-3.42,4-3.93.33-.08.7.03,1.2.06Zm7.6-17.51c2.6-2.12,5.56-3.59,8.62-4.86,2.53-1.05,5.14-1.04,7.62.08,2.31,1.05,4.56,2.27,6.76,3.53,2.62,1.5,4.15,3.85,4.94,6.75,1.76,6.45,3.59,12.88,5.37,19.33.18.66.3,1.39.24,2.07-.24,2.73-.49,5.46-.89,8.17-.23,1.55-.51,3.14-1.41,4.41-.22.08-.33.15-.45.17-.56.11-1.13.2-1.69.3-1.41.26-1.67.59-1.55,2.08.03.38.1.76.11,1.14,0,.17-.1.34-.18.58-.27-.07-.52-.11-.74-.2-2.41-.95-4.95-1.18-7.5-1.23-.69-.01-1.45.05-2.05.34-1.13.54-2.09.32-3.07-.27-.33-.2-.65-.4-.97-.6-.54-.32-1.08-.31-1.63,0-.55.31-1.1.62-1.66.92-.66.35-1.31.4-2.01.06-.94-.46-1.97-.52-2.99-.45-2.35.15-4.71.34-6.93,1.23-.22.09-.47.13-.68.18-.08-.12-.15-.17-.15-.22,0-.57,0-1.13.02-1.7.02-1.28-.22-1.6-1.42-1.83-.44-.08-.88-.16-1.32-.2-.79-.07-1.24-.46-1.5-1.23-.53-1.58-.92-3.18-1.09-4.84-.19-1.77-.28-3.56-.57-5.32-.24-1.49-.11-2.9.3-4.33,1.68-5.94,3.32-11.9,5-17.85.29-1.04.68-2.06,1.08-3.06.51-1.26,1.33-2.29,2.4-3.16Zm-10.72-12.4c.95-2.11,1.8-3.95,2.62-5.81,1.52-3.42,3.68-6.4,6.13-9.19.29-.33.56-.67.81-.99-.19-.98-.88-1.76-.74-2.93.97.44,1.82.82,2.67,1.2.24-.18.44-.34.64-.49,3.64-2.87,7.28-5.74,10.93-8.62.72.6,1.37,1.21,2.09,1.71.71.5,1.32,1.17,2.11,1.46.19-.14.35-.19.39-.29,1.15-2.92,3.29-5.13,5.33-7.4.21-.24.46-.46.84-.22,0,.93.04,1.88,0,2.82-.09,1.91-.27,3.81-.34,5.72-.04,1.14.03,2.3.16,3.43.06.54.25,1.17.6,1.55.9.97,1.93,1.82,2.89,2.7.84-.51.94-1.65,2.06-1.86.13.7.28,1.36.36,2.04.06.57.11,1.16,0,1.71-.14.7.04,1.22.47,1.76,1.23,1.56,2.23,3.26,3.07,5.05.89,1.9,1.77,3.81,2.64,5.73.12.27.15.58.24.92-.77.37-1.45.69-2.13,1.04-.73.38-1.47.77-2.18,1.19-.66.39-1.27.85-1.93,1.24-.67.4-1.17,1.12-2.14,1.29-.2-1.76.29-3.41-.03-4.99-.49-.2-.72.07-.76.38-.1.76-.14,1.52-.15,2.29-.04,2.8-.06,5.61-.09,8.41,0,.3.08.65-.46.84-.42-.72-.88-1.47-1.3-2.23-2.42-4.3-6.19-6.64-10.95-7.55-.43-.08-.9-.11-1.32-.03-3.53.65-6.73,2.01-9.13,4.78-.91,1.05-1.62,2.28-2.4,3.44-.35.52-.64,1.07-1.12,1.88-.13-.64-.26-.98-.27-1.32-.06-2.74-.09-5.48-.14-8.22,0-.57-.02-1.15-.06-1.72-.04-.75-.25-1.12-.56-1.01-.49.17-.34.6-.33.96.03,1.08.08,2.17.1,3.25,0,.29.09.65-.48.86-2.35-1.89-5.02-3.48-8.12-4.77Zm-14.34-73.16c-.11,1.07-.46,2.11-.71,3.16-.2.85-.77,1.26-1.61,1.4-1.13.18-2.26.38-3.39.61-1.81.37-3.62.74-5.41,1.19-1.43.36-2.71.3-3.98-.58-1.78-1.23-3.63-2.36-5.46-3.52-.2-.13-.44-.19-.72-.3-.06.26-.2.5-.13.59.22.3.49.58.77.83,1.55,1.34,2.9,2.86,4.14,4.49,4.12,5.41,7.28,11.37,10.01,17.57.18.4.35.83.63,1.16.9,1.08,1.77,2.18,2.78,3.15,1.33,1.27,2.23,2.77,2.81,4.49.36,1.09.75,2.17,1.05,3.27.92,3.45,1.54,6.96,2.05,10.5,1.04,7.15,1.43,14.33,1.43,21.54,0,.37-.06.73-.1,1.23-.58-.2-1.06-.32-1.51-.52-2.84-1.3-5.64-2.69-8.5-3.92-2.27-.97-3.96-2.51-5.26-4.54-.14-.21-.28-.42-.43-.63-2.78-4.14-5.16-8.5-7.21-13.04-3.67-8.13-7.27-16.29-11.24-24.29-2.26-4.57-4.26-9.27-7.02-13.58-.17-.27-.3-.56-.45-.84-.94-1.73-1.07-3.52-.4-5.36.79-2.18,1.99-4.12,3.35-5.98.88-1.21,2.02-2.03,3.36-2.7,1.48-.74,2.83-1.72,4.28-2.52,4.54-2.49,9.34-4.39,14.21-6.09,3.19-1.11,6.35-2.27,9.45-3.63.33-.14.69-.2,1.13-.32.33.93.68,1.75.92,2.6,1.39,4.78,1.64,9.66,1.14,14.59Zm-3.04,28.31c-1.12-1.13-2.16-2.28-2.83-3.77-2.44-5.39-5.08-10.68-8.62-15.47-.18-.24-.29-.54-.49-.92,1.73-.6,3.45-.72,5.1-1.13,1.6-.4,3.23-.68,4.85-1.02,1.66-.34,3.31-.69,4.97-1.04.19,2.2-2.06,21.02-2.79,23.35-.06,0-.15.03-.18,0Zm5.83-81.69c1.33.59,2.55,1.44,3.81,2.19,1,.6,1.58,1.49,1.54,2.68-.05,1.52-.03,3.07-.26,4.57-.42,2.71-1.04,5.38-1.49,8.08-.45,2.71-.73,5.44-.23,8.18.72,3.96,2.71,6.94,6.47,8.64,1.96.88,4,1.32,6.12,1.29,2.04-.03,4.07-.3,5.95-1.22,5.45-2.64,10.32-6.07,14.41-10.57,1.54-1.7,3.07-3.42,4.67-5.06,1.34-1.36,2.73-2.69,4.18-3.92,1.96-1.65,4.23-2.55,6.84-2.57,1.4-.01,2.8-.12,4.2-.21,2.58-.16,4.82-1.11,6.73-2.85,1.13-1.03,2.23-2.1,3.41-3.07,1.38-1.13,2.79-2.23,4.25-3.24,1.9-1.3,4.04-1.79,6.35-1.72,2.12.07,4.12.53,6.14,1.48-.19.36-.3.65-.49.89-1.08,1.34-2.1,2.74-3.28,3.99-2.07,2.2-3.73,4.68-5.21,7.29-1.43,2.52-2.46,5.18-2.92,8.04-.32,1.95-.6,3.91-.79,5.87-.79,8.15-.54,16.31.09,24.45.37,4.7.88,9.39,1.4,14.08.4,3.61.92,7.2,1.37,10.81.21,1.64.38,3.28.57,4.87-1.13,1.16-1.77,2.47-2.29,3.85-.42,1.13-.83,2.28-1.15,3.44-1.74,6.49-2.57,13.12-3.14,19.8-.34,4.01-.39,8.02-.43,12.04,0,.88-.11,1.76-.18,2.69-2.44,1.22-4.82,2.41-7.22,3.61-2.31-5.22-4.2-10.59-7.78-15.03-.1-1.69.13-3.35-.62-4.86-1.19-.09-1.39,1.16-2.32,1.41-.69-.63-1.38-1.29-2.11-1.9-.52-.44-.73-.99-.88-1.64-.39-1.71-.24-3.42-.14-5.14.1-1.65.25-3.31.34-4.96.04-.75.11-1.52-.21-2.18-.69-.34-1.04.1-1.38.46-1.75,1.86-3.44,3.76-4.77,5.96-.23.37-.48.73-.8,1.23-.92-.7-1.84-1.25-2.64-1.98-1.31-1.21-1.77-1.21-3.02-.07-.37.34-.78.65-1.18.96-2.86,2.23-5.73,4.47-8.6,6.7-.25.19-.51.36-.69.48-1.19-.08-1.93-1.12-3.12-1.13,0,.35-.05.6.01.83.15.55.34,1.09.53,1.64.21.6.09,1.12-.34,1.59-.22.23-.44.47-.64.71-1.82,2.22-3.63,4.46-4.88,7.06-1.47,3.04-2.99,6.06-4.09,9.26-.08.22-.26.4-.44.65-2.28-1.51-4.87-2.31-7.13-3.76-.06-1.29-.16-2.49-.18-3.7-.07-5.42-.28-10.83-.93-16.22-.61-5-1.35-9.98-2.72-14.84-.71-2.52-1.53-5-3.37-7.05.35-2.78.7-5.56,1.05-8.33.4-3.16.87-6.31,1.18-9.48.5-5.07.95-10.15,1.32-15.24.59-8.28.57-16.56-.54-24.81-.42-3.12-1.14-6.14-2.61-8.94-1.55-2.94-3.3-5.74-5.57-8.2-1.34-1.45-2.52-3.04-3.78-4.56-.68-.82-.99-1.72-.98-2.81.02-2.44.35-4.83.83-7.21.13-.66.3-1.38.96-1.84.17.04.38.04.52.14.53.35,1.06.71,1.54,1.12,3.28,2.86,6.71,5.47,10.73,7.24Zm-10.48-77.12c-.4.48-.91.89-1.44,1.21-1.85,1.14-3.91,1.56-6.03,1.31-2.52-.29-2.52-.19-2.68-2.7-.02-.25-.03-.51-.05-.76-.02-.75.02-1.49.12-2.21.05-.4.12-.79.22-1.18.09-.37.2-.74.33-1.1.65-1.82,1.97-2.59,3.87-2.23,2.1.4,3.79,1.43,4.85,3.34.37.67.7,1.35,1.07,2.02.47.83.31,1.63-.25,2.3Zm11.19,10.13c-.4,3.22-.8,6.44-1.21,9.66-.04.31-.13.62-.21.93-.69,2.71-1.38,5.42-2.07,8.13-.06.22-.19.41-.31.65-.7-.41-.81-1.08-1.17-1.58-.71-.98-1.34-2.03-2.18-2.87-.93-.94-2.02-1.75-3.11-2.51-1.46-1.02-2.98-1.95-4.47-2.92-2.18-1.41-3.56-3.4-4.39-5.83-1.1-3.22-1.65-6.53-1.92-9.9-.03-.35.08-.72.13-1.12.35.06.6.13.85.14,1.4.04,2.82.23,4.18.05,2.31-.32,4.35-1.31,5.88-3.52,1.15,2.26,2.43,4.24,4.26,5.75,1.81,1.49,3.71,2.88,5.75,4.45,0,.13.02.32,0,.5Zm12.24-60.26c5.12-1.54,10.32-1.52,15.53-.68,1.48.24,2.99.62,4.24,1.56.03.24.08.43.08.61.02,3.32.02,6.63.06,9.95.13,9.88.26,19.77.42,29.65.09,5.48.3,10.96.38,16.45.05,3.44.12,6.89-.48,10.3-.76,4.36-.89,8.75-.71,13.15.14,3.5.34,7,.52,10.51.12,2.36.2,4.72.38,7.07.51,6.61.77,13.24.92,19.87.05,2.01.31,3.93,1.27,5.72,1.05,1.97,1.17,4,.53,6.11-.46,1.51-.84,3.05-1.26,4.57.56.2.83.17.92-.14.49-1.71.97-3.43,1.43-5.15.44-1.66.32-3.28-.39-4.86-.31-.7-.59-1.41-.92-2.1-.46-.94-.47-1.79.19-2.68.68-.92,1.25-1.92,1.89-2.88,2.21-3.28,4.51-6.49,6.63-9.83,3.59-5.65,7.08-11.36,10.57-17.08.65-1.07,1.39-1.95,2.53-2.48,2.13-1,4.26-2.03,6.38-3.05,1.32-.63,2.59-1.41,3.97-1.87,1.38-.47,2.86-.63,4.29-.94.5-.11.99-.24,1.48-.37,2.96-.78,5.87-1.72,8.56-3.23.33-.18.63-.42.91-.66.07-.06.07-.26.03-.35-.04-.09-.21-.21-.29-.19-.36.1-.72.23-1.06.38-1.57.69-3.1,1.53-4.73,2.05-2.48.79-5.02,1.47-7.57,2-3.14.65-6.32.72-9.51.2-2.07-.34-4.16-.66-6.25-.85-4.14-.37-8.28-.23-12.41.25-.69.08-1.38.07-2.01.1-1.81-3.25-4.5-16.9-3.97-20.08,1.26-.26,2.57-.5,3.86-.81,4.53-1.06,9.04-2.18,13.57-3.22,6.89-1.58,13.8-3.09,20.68-4.7,4.24-.99,8.52-1.59,12.88-1.38.81.04,1.65.43,2.42.3,1.74-.28,3.29.27,4.83.83,2.54.91,4.7,2.36,5.78,4.96,1.62,3.91,2.38,7.91,1.08,12.11-2.7,8.71-5.48,17.38-8.78,25.88-3.46,8.91-7.4,17.63-10.63,26.63-.1.27-.29.51-.47.81-2.66-1.28-5.18-.9-7.65.25-1.21.57-2.42,1.16-3.55,1.87-3.57,2.23-7.17,4.41-10.3,7.25-1.49,1.36-3.19,2.08-5.25,1.76-.25-.04-.51-.01-.76-.04-1.58-.17-3.04.21-4.41.96-.67.37-1.36.72-1.96,1.18-.7.53-1.45.75-2.3.8-1.59.08-3.18.18-4.77.28-3.25.2-6.49.5-9.74.59-7.14.2-14.28.3-21.42.43-.36,0-.72-.09-1.07-.14-.11-1.24-.23-2.38-.32-3.52-.22-2.67-1.39-4.73-3.81-6.01-1.86-.99-3.7-1.99-5.55-2.99-1.29-.7-2.62-1.32-3.87-2.54.29-4.29.54-8.55.87-12.8.49-6.42.97-12.84,1.57-19.25.52-5.59,1.46-11.12,2.9-16.56.87-3.27,1.98-6.46,3.47-9.5,1.03-2.09,1.68-4.24,1.75-6.58.06-1.97.23-3.95.45-5.91.34-3.1.74-6.2,1.15-9.3.54-4.05.72-8.13.98-12.2.27-4.26.59-8.52.96-12.78.39-4.44.9-8.88,1.32-13.32.3-3.19.52-3.46,3.52-4.37Zm-2.84-9.62c.69-.94,1.15-1.95,1.32-3.11.13-.85.73-1.07,1.65-1.16.45,2.09,0,3.84-.76,5.54-.31.68-1.37.91-1.98.53-.61-.37-.75-1.1-.23-1.8Zm.68-2.87c-.12.73-.25,1.47-1.09,2.18-.02-1.56-.04-1.58.31-2.09.17-.25.45-.48.78-.1Zm1.56-6.01c.02,2.61-.23,3.44-1.17,4.02-.58-.44-.59-1.09-.64-1.71-.11-1.36.16-1.7,1.8-2.31Zm-1.72-18.79c-.02-.63.24-1.09.72-1.48,1.14-.93,2.36-1.71,3.75-2.23,2.79-1.06,5.66-1.42,8.62-1.11,3.32.35,6.03,1.89,8.28,4.29.39.42.75.87.79,1.58-.67,1.47-1.79,2.83-1.88,4.65-.08,1.77-.31,3.54-.49,5.41-5.88,2.37-16.41,5.93-18.15,6.13-.07-.3-.15-.6-.2-.91-.73-4.33-1.14-8.7-1.39-13.09-.06-1.08-.02-2.16-.04-3.24Zm15.6-13.3c1.07-.05,1.97.47,2.65,1.3.36.44.75.88,1.01,1.39,1.18,2.32,2.33,4.66,3.47,7,.4.83.42,1.73.27,2.62-.04.27-.24.51-.44.9-.51-.52-.89-.93-1.3-1.32-1.78-1.68-3.75-3.03-6.19-3.58-4.82-1.09-9.34-.36-13.55,2.23-.32.2-.64.39-.96.59-.08-.18-.18-.3-.17-.4.03-.25.06-.53.2-.72.46-.61.9-1.24,1.46-1.75,2.18-1.96,4.24-4.03,5.87-6.5.14-.21.29-.44.49-.58.41-.28.85-.65,1.31-.71,1.96-.22,3.92-.39,5.89-.49Zm-5.58-24.87c.84.76,1.62,1.61,2.54,2.25.92.64,2,1.06,3.05,1.6-.14,1.63-.28,3.21-.43,4.79-.02.17-.14.33-.27.62-2.03-.99-2.65-1.5-3.88-2.94-.76-.9-1.33-1.82-1.24-3.08.07-.88-.07-1.78-.12-2.67-.01-.25-.03-.51.32-.56Zm-.15-6.14c.15-.51.33-.97,1.06-1.04.69,1.08,1.36,2.23,2.14,3.29.81,1.1,2.09,1.62,3.33,2.33-.24,1.51-.48,3-.72,4.55-1.3-.19-2.35-.7-3.18-1.46-.98-.89-1.8-1.96-2.68-2.97-.11-.13-.19-.35-.19-.53-.02-1.4-.17-2.81.23-4.18Zm-1.78,17.79c.59-.17,1.04-.18,1.12.42.09.59.21,1.2-.17,1.99-.52-.87-.93-1.56-.96-2.41Zm-1.83-4.6c.44.09.85.2,1.27.26.48.07.97.09,1.56.15.02,1.16.21,2.21-.02,3.27-.73.3-1.27,0-1.73-.47-.39-.41-.98-2.21-1.09-3.2Zm-20.44-.34c-1.11-2.3-1.43-4.75-1.06-7.25.29-1.98,1.14-3.73,2.52-5.14,1.64.1,3.16.22,4.68.28,1.46.06,2.93.01,4.39.08,1.51.07,3.03-.19,4.54.05.52,1.73.99,3.37,1.51,4.99.54,1.7,1.13,3.37,1.69,5.06.52,1.61,1.37,3.11,1.78,4.9-.49.1-.85.23-1.2.24-1.46.04-2.92.06-4.39.06-2.92,0-5.85.01-8.77,0-.88,0-1.77.05-2.63-.28-1.47-.56-2.39-1.65-3.04-3Zm-50.26-13.07c.47-1.03,1-2.03,1.51-3.06,1.24-.31,2.38.1,3.52.5,1.16.41,2.2,1.06,3.06,1.91.85.85,1.7,1.74,2.34,2.75.6.96.92,2.09,1.48,3.41-.01-1.57-.05-2.02-.53-2.86-1.95-3.45-4.65-5.93-8.78-6.28-1.15-.1-1.74-.61-2.07-1.61-.14-.42-.29-.84-.41-1.27-.72-2.62-.83-5.25-.44-7.95.62-4.31,2.4-8.02,5.28-11.24.24-.27.56-.47,1.12-.93.36,1.78.62,3.22.95,4.64.96,4.04,2.7,7.69,5.6,10.71,2.03,2.11,4.36,3.72,7.38,4.06.75.09,1.49.35,2.24.5,2.99.62,5.99,1.23,8.98,1.84.42.09.85.17,1.29.26.33,2.61,1.96,3.96,4.26,4.36,2.5.44,5.06.58,7.59.84.25.03.5-.07.41-.49-.29-.03-.6-.07-.91-.1-1.78-.15-3.56-.28-5.33-.46-1.27-.13-2.54-.37-3.62-1.1-1.1-.74-1.84-1.7-1.72-3.17,1.71-.81,3.33-1.67,5.15-2.1,1.45-.34,2.79-.18,4.02.65.74.5,1.46,1.03,2.13,1.61,1.99,1.7,3.97,3.4,6.22,4.75.1.06.15.2.28.39-1.59,1.97-2.45,4.28-2.51,6.84-.06,2.59.71,5,1.95,7.31-.96,0-1.78.03-2.6,0-2.42-.1-4.84-.19-7.26-.35-2.65-.18-5.16-.71-7.21-2.63-.96-.89-2.21-1.14-3.55-1.15-3.89-.02-7.77-.31-11.63-.82-2.26-.3-4.56-.48-6.48-2.01-.76-.61-1.73-.4-2.47.25-.38.33-.65.77-.97,1.16-.28.33-.56.66-.86,1.02-1.04-.31-2.02-.58-2.98-.9-1.08-.37-2.14-.82-3.22-1.19-1.47-.51-2.03-1.59-2.13-3.07-.12-1.76.19-3.43.92-5.02Zm-9.07-21.89c.1-1.44.53-2.87.85-4.29.18-.79.68-1.35,1.47-1.62,1.56-.54,3.08-1.21,4.68-1.61,1.68-.42,3.42-.3,5.09.25,1.02.34,1.98.82,2.54,1.7-.02.2,0,.28-.04.32-.11.15-.22.31-.36.44-3.31,3.38-5.36,7.4-5.99,12.09-.47,3.45-.31,6.86,1.1,10.12.1.23.25.46.28.7.03.16-.05.41-.17.51-.11.09-.39.1-.51.01-1.64-1.1-3.16-2.34-4.44-3.88-3.58-4.29-4.89-9.28-4.51-14.76Z"/><path class="cls-6" d="m345.11,347.6c-.92-.2-1.83-.48-2.73-.76-.19-.06-.47-.23-.24-.62,2.4,1.03,4.97,1.13,7.52,1.37-1.54.28-3.05.32-4.55,0Z"/><path class="cls-6" d="m393.23,480.06c.28.14.56.33.74.57.1.13,0,.41-.03.76-.9-.42-1.63-.79-2.39-1.09-.77-.31-1.55-.58-2.35-.8-.8-.22-1.61-.39-2.42-.52-.82-.13-1.64-.18-2.47-.27-.77-.09-1.61.21-2.7-.51.62-.2.85-.33,1.09-.34,3.7-.2,7.21.56,10.53,2.19Z"/><path class="cls-6" d="m334.33,480.6c.51-.36,1.04-.72,1.62-.97,2.84-1.22,5.79-1.88,8.9-1.81,1.02.02,1.59.25,1.38.55-.35.51-.91.32-1.38.32-3.37,0-6.54.78-9.55,2.27-.27.14-.57.23-1.04.41.02-.38-.04-.7.07-.78Z"/><path class="cls-6" d="m367.87,556.86c1.04-.43,2.23-.49,3.26-1.18-.71-1.74-.94-3.55-1.1-5.37-.07-.78-.33-1.48-.81-2.1-.43-.55-.86-1.1-1.28-1.66-.84-1.09-1.95-1.57-3.31-1.5-.31.02-.63.02-.94,0-1.36-.07-2.48.39-3.31,1.49-.35.46-.67.93-1.05,1.35-.71.8-1.03,1.74-1.1,2.78-.12,1.7-.37,3.38-1.09,5,1.37.74,2.8,1.02,4.2,1.39.4.11.88-.03,1.31-.13,1.01-.24,2.01-.28,3.01.01.76.23,1.49.21,2.23-.09Zm-.67-10.05c-2.16-.55-4.03-.44-6.03-.09.39-.78.99-1.01,1.61-1.06.88-.07,1.78-.07,2.66,0,.63.04,1.24.25,1.76,1.15Zm1.91,8c-1.16.23-2.21-.48-3.35-.44-1.08.04-2.16-.06-3.23.03-1.12.09-2.22.33-3.39.51.4-1.54.65-1.82,1.78-1.94.44-.05.89-.04,1.33-.04,1.26,0,2.52,0,3.78,0,.44,0,.9-.03,1.33.05.42.08.88.22,1.2.47.38.3.65.75.55,1.37Zm.16.91c-1.57.76-2.79,1-4.18.51-.61-.22-1.41-.15-2.05.05-1.36.42-2.55.21-3.98-.63,3.48-1.03,6.68-1.15,10.21.07Z"/><path class="cls-6" d="m348.75,581.27c-1.12.16-2.21.47-3.22,1.38.35.17.55.34.76.36,1.84.13,3.68.23,5.52.35,1.84.12,3.54-.26,5.06-1.35,1.39-1,2.71-2.07,3.94-3.35-.2-.43-.3-.81-.52-1.1-.51-.69-1.08-.84-1.83-.48-.57.27-1.13.6-1.64.97-2.41,1.79-5.12,2.79-8.06,3.22Zm10.01-3.65c.22-.29.56-.2.83,0,.65.5.58.91-.41,1.63-.18-.4-.34-.67-.42-.97-.06-.21-.11-.52,0-.66Zm-2.64,1.54c.6-.37,1.11-.7,1.63-1.02.67.47.92,1.04.67,1.68-.25.65-.77,1.1-1.54,1.21-.24-.59-.45-1.1-.77-1.87Zm-2.14,1.26c.51-.27.95-.5,1.49-.79,1.14,1.79.99,2.27-.77,2.81-.1.03-.23-.04-.45-.08-.09-.62-.18-1.27-.27-1.94Zm-3.04,1.06c.81-.26,1.49-.74,2.35-.55.41.62.41,1.18-.1,1.82-.61.03-1.28.23-2-.18-.07-.31-.15-.66-.25-1.08Zm-3.18.56c.66-.13,1.31-.29,1.98-.38.34-.05.58.17.69.5.08.24-.27.52-.63.48-.67-.08-1.34-.18-2.01-.27,0-.11-.01-.21-.02-.32Z"/><path class="cls-6" d="m367.7,578.27c-.04.28.06.69.25.86,1.46,1.32,2.88,2.69,4.67,3.57,1.11.54,2.3.73,3.52.66,2.03-.11,4.05-.26,6.07-.4.1,0,.19-.14.47-.37-.87-.81-1.87-1.02-2.83-1.28-.37-.1-.75-.11-1.13-.18-2.47-.44-4.76-1.32-6.81-2.79-.67-.48-1.38-.92-2.12-1.27-.95-.45-1.96.14-2.1,1.2Zm10.19,4.12c0-.17.02-.41.13-.49.18-.14.45-.26.66-.23.67.1,1.32.27,1.98.42-.84.34-1.66.56-2.51.52-.09,0-.26-.14-.26-.22Zm-3.17-.9c0-.41.39-.71.76-.61.59.16,1.17.37,1.84.58-.12.48-.21.87-.31,1.29h-2.06c-.08-.44-.22-.85-.22-1.26Zm-2.2-1.53c.05-.09.21-.12.42-.25.37.19.8.41,1.36.7-.08.79-.14,1.4-.21,2.01-2.13-.28-2.44-.78-1.58-2.46Zm-1.87-1.81c.47.34.96.69,1.47,1.06-.27.69-.49,1.26-.72,1.84-1.9-.95-2.1-1.65-.75-2.9Zm-2.37,0c.27-.56.56-.66,1.43-.43-.2.51-.39,1-.59,1.51-.93-.55-1.03-.7-.84-1.07Z"/><path class="cls-6" d="m379.88,576.73c-.35-.81-.69-1.64-1.13-2.4-.55-.94-1.44-1.42-2.53-1.46-1.08-.05-2.15-.06-3.2.3-1.31.45-2.63.86-4.19,1.37.51,1.34,1.43,2.05,2.6,2.45.59.2,1.24.28,1.87.3,1.08.04,2.16-.07,3.24-.02,1.06.05,2.12.24,3.13.36.37-.27.34-.61.21-.89Zm-1.7-.65c0,.17-.14.33-.25.59-1.71.01-3.42.03-5.13.04-.25,0-.51-.04-.76-.09-.56-.11-.92-.45-.95-1.04-.02-.31.04-.62.08-1.02,1.61-.82,3.13-1.24,4.33-1.23,2.09.03,2.72.67,2.68,2.76Z"/><path class="cls-6" d="m352.05,572.89c-.6.07-1.29.27-1.74.65-1.2,1.01-1.77,2.39-2,4.04.35.02.6.1.82.04,1.5-.39,3.01-.37,4.54-.34.94.02,1.9-.05,2.83-.2,1.12-.18,1.97-.85,2.61-1.76.14-.19.16-.46.31-.89-.88-.21-1.56-.35-2.22-.55-.61-.18-1.19-.44-1.78-.66-1.1-.41-2.25-.46-3.38-.33Zm.14.51c1.55-.18,3.02.18,4.41.85.79.38.94,1.54.26,2.06-.28.22-.69.36-1.04.37-1.82.04-3.65.02-5.63.02-.05-.48-.11-.73-.1-.98.05-1.63.46-2.12,2.1-2.31Z"/><path class="cls-6" d="m360.36,562.5c-.21-.07-.39-.21-.69-.39.25-.29.37-.57.56-.63.77-.26,1.57-.46,2.36-.68,2.02-.55,3.86.19,5.69.85.09.03.1.45.04.65-.03.1-.32.19-.48.17-.17-.02-.36-.14-.48-.26-.72-.74-1.63-.93-2.6-.97-1.48-.06-2.93-.04-4.06,1.15-.07.08-.25.14-.35.11Z"/><path class="cls-6" d="m355.14,562.19c-.96-1.55-1.57-3.48-1.45-5.15.58,2.21,1.35,4.29,2.89,6.31-1.06-.53-1.05-.54-1.44-1.16Z"/><path class="cls-6" d="m372.06,563.09c.51-1.01,1.01-2.01,1.51-3,.5-1,.48-2.2,1.34-3.52-.15,2.2-.77,3.82-1.61,5.36-.42.78-.45.77-1.24,1.16Z"/><path class="cls-6" d="m361.98,567.06c.52,2.08.54,5.26.03,6.58-.09-1.81-.18-3.43-.26-5.05-.02-.31-.02-.63-.01-.94,0-.11.09-.22.24-.59Z"/><path class="cls-6" d="m369.96,560.68c1.02.96,1.08,1.82.23,3.03-.18.26-.43.45-.76.17q1-1.53-.02-3.35c.22.06.44.05.55.16Z"/><path class="cls-6" d="m358.38,563.94c-1.06-.83-1.15-2.47-.06-3.27.18-.13.42-.31.63,0-1.12,1.42-1.13,1.57-.09,3.18-.19.04-.41.16-.48.09Z"/><path class="cls-6" d="m358.4,522.73c1.33-.41,2.42-.97,2.91-2.45.43-1.32,1.53-2.14,2.9-2.11,1.27.03,2.34.81,2.74,2.06.47,1.47,1.54,2.1,2.88,2.48.43.12.86.24,1.28.38,2,.63,4.01,1.26,6.01,1.91.27.09.5.28.76.42-.37.17-.67.13-.94.05-2.43-.75-4.87-1.5-7.29-2.27-.42-.13-.84-.3-1.25-.48-.8-.34-1.4-.85-1.68-1.72-.11-.36-.28-.72-.49-1.03-1.22-1.75-3.11-1.62-4.21.08-.17.26-.32.56-.41.86-.27.94-.93,1.5-1.8,1.85-.29.12-.59.25-.89.35-2.67.85-5.34,1.69-8.02,2.52-.1.03-.23-.04-.83-.16.67-.28.94-.42,1.22-.51,2.37-.75,4.73-1.51,7.11-2.23Z"/><path class="cls-6" d="m338.19,578.51c.08.72.16,1.44.25,2.24-.9-1.01-.94-1.48-.25-2.24Z"/><path class="cls-6" d="m389.9,581.03c.06-1.11.1-1.83.14-2.55.73.74.59,1.46-.14,2.55Z"/><g class="cls-4"><g class="cls-2"><text class="cls-16" transform="translate(778.29 378.02)"><tspan x="0" y="0">404</tspan></text></g><text class="cls-15" transform="translate(800.4 374.35) scale(1.05 1)"><tspan x="0" y="0">404</tspan></text></g><text class="cls-3" transform="translate(789.48 465.3)"><tspan x="0" y="0">ERROR!</tspan></text><text class="cls-5" transform="translate(716.82 502.94)"><tspan x="0" y="0">No e</tspan><tspan class="cls-17" x="55.34" y="0">n</tspan><tspan class="cls-14" x="71.64" y="0">c</tspan><tspan class="cls-13" x="84.93" y="0">ont</tspan><tspan class="cls-1" x="125.97" y="0">r</tspan><tspan x="135.38" y="0">a</tspan><tspan class="cls-17" x="149.54" y="0">m</tspan><tspan x="175.05" y="0">os la </tspan><tspan class="cls-18" x="235.03" y="0">p</tspan><tspan class="cls-17" x="251.23" y="0"></tspan><tspan x="265.44" y="0">gina que buscas! </tspan></text></g></g></svg>