<?xml version="1.0" encoding="UTF-8"?>
<svg xmlns="http://www.w3.org/2000/svg" xmlns:xlink="http://www.w3.org/1999/xlink" width="px" height="px" viewBox="0 0 22 21" version="1.1">
<g id="surface1">
<path style="fill:none;stroke-width:2;stroke-linecap:butt;stroke-linejoin:miter;stroke:rgb(0%,0%,0%);stroke-opacity:1;stroke-miterlimit:4;" d="M 19.272017 9.510417 C 19.272017 12.166667 17.114702 14.322917 14.462003 14.317708 L 11.255327 14.317708 M 19.26669 9.510417 L 19.26669 6.5 C 19.26669 3.739583 17.029474 1.5 14.270241 1.5 L 5.997869 1.5 C 3.238636 1.5 1.00142 3.739583 1.00142 6.5 L 1.00142 11.255208 C 1.00142 12.640625 2.029474 13.817708 3.403764 14 C 4.778054 14.182292 5.806108 15.359375 5.806108 16.744792 L 5.806108 17.755208 C 5.806108 17.921875 5.997869 18.015625 6.12571 17.911458 L 10.115412 14.71875 C 10.440341 14.463542 10.839844 14.322917 11.255327 14.322917 M 19.26669 9.510417 L 23.884943 9.510417 C 26.644176 9.510417 28.886719 11.75 28.886719 14.510417 L 28.886719 19.333333 C 28.886719 20.890625 27.784091 22.234375 26.255327 22.536458 C 24.939631 22.802083 23.92223 23.838542 23.682528 25.161458 L 23.528054 25.994792 M 11.255327 14.322917 L 11.255327 17.973958 C 11.255327 20.734375 13.492543 22.973958 16.257102 22.973958 L 17.215909 22.973958 C 18.339844 22.973958 19.426491 23.348958 20.305398 24.041667 L 22.792969 25.994792 M 22.792969 25.994792 L 23.03267 26.182292 C 23.117898 26.25 23.229759 26.270833 23.330966 26.229167 C 23.432173 26.192708 23.506747 26.104167 23.528054 25.994792 M 22.792969 25.994792 L 23.528054 25.994792 " transform="matrix(0.733333,0,0,0.75,0,0)"/>
</g>
</svg>
