<?xml version="1.0" encoding="UTF-8"?>
<svg xmlns="http://www.w3.org/2000/svg" xmlns:xlink="http://www.w3.org/1999/xlink" width="px" height="px" viewBox="0 0 113 113" version="1.1">
<g id="surface1">
<path style=" stroke:none;fill-rule:nonzero;fill:rgb(0%,0%,0%);fill-opacity:1;" d="M 112.625 56.5 C 112.625 87.496094 87.496094 112.625 56.5 112.625 C 25.503906 112.625 0.375 87.496094 0.375 56.5 C 0.375 25.503906 25.503906 0.375 56.5 0.375 C 87.496094 0.375 112.625 25.503906 112.625 56.5 Z M 112.625 56.5 "/>
<path style=" stroke:none;fill-rule:nonzero;fill:rgb(100%,100%,100%);fill-opacity:1;" d="M 68.78125 66.4375 L 59.851562 75.421875 C 54.660156 72.359375 50.285156 68.046875 47.097656 62.746094 C 43.882812 57.394531 42.132812 51.492188 41.886719 45.433594 L 54.519531 40.371094 L 48.515625 18.449219 C 48.515625 18.449219 30.828125 23 27.933594 31.355469 C 24.566406 44.824219 26.652344 58.804688 33.816406 70.722656 C 40.972656 82.640625 52.335938 91.039062 65.828125 94.414062 C 74.761719 96.09375 86.632812 80.523438 86.632812 80.523438 Z M 68.78125 66.4375 "/>
</g>
</svg>
