<?xml version="1.0" encoding="UTF-8"?>
<svg xmlns="http://www.w3.org/2000/svg" xmlns:xlink="http://www.w3.org/1999/xlink" width="px" height="px" viewBox="0 0 19 14" version="1.1">
<g id="surface1">
<path style="fill:none;stroke-width:1.42;stroke-linecap:butt;stroke-linejoin:miter;stroke:rgb(0%,0%,0%);stroke-opacity:1;stroke-miterlimit:4;" d="M 26.561472 15.63365 L 24.896176 15.63365 M 17.119243 15.63365 L 17.119243 10.077846 M 17.119243 15.63365 L 9.342311 15.63365 M 17.119243 15.63365 L 19.062089 15.63365 M 17.119243 5.073382 L 17.119243 2.608259 C 17.119243 1.823661 16.48088 1.1875 15.698191 1.1875 L 2.98088 1.1875 C 2.198191 1.1875 1.559827 1.823661 1.559827 2.608259 L 1.559827 14.212891 C 1.559827 14.997489 2.198191 15.63365 2.98088 15.63365 L 4.340872 15.63365 M 17.119243 5.073382 L 20.311061 5.073382 C 20.749589 5.073382 21.165913 5.280134 21.43236 5.624721 L 24.896176 10.077846 M 17.119243 5.073382 L 17.119243 10.077846 M 24.896176 15.63365 L 23.785979 15.63365 M 24.896176 15.63365 L 24.896176 10.077846 M 24.896176 10.077846 L 17.119243 10.077846 " transform="matrix(0.703704,0,0,0.736842,0,0)"/>
<path style="fill:none;stroke-width:1.42;stroke-linecap:butt;stroke-linejoin:miter;stroke:rgb(0%,0%,0%);stroke-opacity:1;stroke-miterlimit:4;" d="M 9.741982 15.63365 C 9.741982 17.080915 8.565173 18.257812 7.116365 18.257812 C 5.667558 18.257812 4.496299 17.080915 4.496299 15.63365 C 4.496299 14.181083 5.667558 13.009487 7.116365 13.009487 C 8.565173 13.009487 9.741982 14.181083 9.741982 15.63365 Z M 24.18565 15.63365 C 24.202303 16.582589 23.708265 17.467913 22.886719 17.945033 C 22.070724 18.427455 21.054893 18.427455 20.233347 17.945033 C 19.417352 17.467913 18.917763 16.582589 18.939967 15.63365 C 18.967722 14.202288 20.133429 13.057199 21.560033 13.057199 C 22.992188 13.057199 24.157895 14.202288 24.18565 15.63365 Z M 24.18565 15.63365 " transform="matrix(0.703704,0,0,0.736842,0,0)"/>
</g>
</svg>
