<svg width="27" height="19" viewBox="0 0 27 19" fill="none" xmlns="http://www.w3.org/2000/svg">
<path d="M26.5625 15.6319H24.8958M17.1181 15.6319V10.0764M17.1181 15.6319H9.34028M17.1181 15.6319H19.0625M17.1181 5.07639V2.60714C17.1181 1.8231 16.4825 1.1875 15.6984 1.1875H2.98214C2.1981 1.1875 1.5625 1.8231 1.5625 2.60714V14.2123C1.5625 14.9963 2.1981 15.6319 2.98214 15.6319H4.34028M17.1181 5.07639H20.3126C20.7507 5.07639 21.1643 5.27865 21.4332 5.62446L24.8958 10.0764M17.1181 5.07639V10.0764M24.8958 15.6319H23.7847M24.8958 15.6319V10.0764M24.8958 10.0764H17.1181" stroke="black" stroke-width="1.41964"/>
<path d="M9.74151 15.6319C9.74151 17.0808 8.56693 18.2554 7.118 18.2554C5.66908 18.2554 4.49449 17.0808 4.49449 15.6319C4.49449 14.183 5.66908 13.0084 7.118 13.0084C8.56693 13.0084 9.74151 14.183 9.74151 15.6319Z" stroke="black" stroke-width="1.41964"/>
<path d="M24.1861 15.6319C24.1861 17.0808 23.0115 18.2554 21.5626 18.2554C20.1137 18.2554 18.9391 17.0808 18.9391 15.6319C18.9391 14.183 20.1137 13.0084 21.5626 13.0084C23.0115 13.0084 24.1861 14.183 24.1861 15.6319Z" stroke="black" stroke-width="1.41964"/>
</svg>
