<?xml version="1.0" encoding="UTF-8"?>
<svg xmlns="http://www.w3.org/2000/svg" xmlns:xlink="http://www.w3.org/1999/xlink" width="px" height="px" viewBox="0 0 60 60" version="1.1">
<g id="surface1">
<path style=" stroke:none;fill-rule:nonzero;fill:rgb(20%,49.803922%,100%);fill-opacity:1;" d="M 30 0 C 46.570312 0 60 13.429688 60 30 C 60 46.570312 46.570312 60 30 60 C 13.429688 60 0 46.570312 0 30 C 0 13.429688 13.429688 0 30 0 Z M 30 0 "/>
<path style=" stroke:none;fill-rule:nonzero;fill:rgb(100%,100%,100%);fill-opacity:1;" d="M 37.339844 31.953125 L 38.195312 26.523438 L 32.929688 26.523438 L 32.929688 22.992188 C 32.929688 21.507812 33.664062 20.054688 36.015625 20.054688 L 38.445312 20.054688 L 38.445312 15.429688 C 37.03125 15.203125 35.601562 15.082031 34.167969 15.066406 C 29.835938 15.066406 27.003906 17.671875 27.003906 22.378906 L 27.003906 26.523438 L 22.199219 26.523438 L 22.199219 31.953125 L 27.003906 31.953125 L 27.003906 45.089844 L 32.929688 45.089844 L 32.929688 31.953125 Z M 37.339844 31.953125 "/>
</g>
</svg>
