<?xml version="1.0" encoding="UTF-8"?>
<svg xmlns="http://www.w3.org/2000/svg" xmlns:xlink="http://www.w3.org/1999/xlink" width="px" height="px" viewBox="0 0 15 22" version="1.1">
<g id="surface1">
<path style="fill:none;stroke-width:1.333;stroke-linecap:butt;stroke-linejoin:miter;stroke:rgb(85.098039%,85.098039%,85.098039%);stroke-opacity:1;stroke-miterlimit:4;" d="M 6 1.00142 L 6 27.666903 " transform="matrix(0.75,0,0,0.733333,0,0)"/>
<path style="fill-rule:nonzero;fill:rgb(85.098039%,85.098039%,85.098039%);fill-opacity:1;stroke-width:1.333;stroke-linecap:butt;stroke-linejoin:miter;stroke:rgb(85.098039%,85.098039%,85.098039%);stroke-opacity:1;stroke-miterlimit:4;" d="M 6 28.99858 L 2 24.998224 L 10 24.998224 Z M 6 28.99858 " transform="matrix(0.75,0,0,0.733333,0,0)"/>
<path style="fill-rule:nonzero;fill:rgb(85.098039%,85.098039%,85.098039%);fill-opacity:1;stroke-width:1.333;stroke-linecap:butt;stroke-linejoin:miter;stroke:rgb(85.098039%,85.098039%,85.098039%);stroke-opacity:1;stroke-miterlimit:4;" d="M 6 28.99858 L 2 24.998224 L 10 24.998224 Z M 6 28.99858 " transform="matrix(0.75,0,0,0.733333,0,0)"/>
<path style="fill:none;stroke-width:1.333;stroke-linecap:butt;stroke-linejoin:miter;stroke:rgb(85.098039%,85.098039%,85.098039%);stroke-opacity:1;stroke-miterlimit:4;" d="M 14 28.99858 L 14 2.333097 " transform="matrix(0.75,0,0,0.733333,0,0)"/>
<path style="fill-rule:nonzero;fill:rgb(85.098039%,85.098039%,85.098039%);fill-opacity:1;stroke-width:1.333;stroke-linecap:butt;stroke-linejoin:miter;stroke:rgb(85.098039%,85.098039%,85.098039%);stroke-opacity:1;stroke-miterlimit:4;" d="M 14 1.00142 L 18 5.001776 L 10 5.001776 Z M 14 1.00142 " transform="matrix(0.75,0,0,0.733333,0,0)"/>
<path style="fill-rule:nonzero;fill:rgb(85.098039%,85.098039%,85.098039%);fill-opacity:1;stroke-width:1.333;stroke-linecap:butt;stroke-linejoin:miter;stroke:rgb(85.098039%,85.098039%,85.098039%);stroke-opacity:1;stroke-miterlimit:4;" d="M 14 1.00142 L 18 5.001776 L 10 5.001776 Z M 14 1.00142 " transform="matrix(0.75,0,0,0.733333,0,0)"/>
</g>
</svg>
