<?xml version="1.0" encoding="UTF-8"?>
<svg xmlns="http://www.w3.org/2000/svg" xmlns:xlink="http://www.w3.org/1999/xlink" width="px" height="px" viewBox="0 0 18 20" version="1.1">
<g id="surface1">
<path style="fill:none;stroke-width:2;stroke-linecap:butt;stroke-linejoin:miter;stroke:rgb(0%,0%,0%);stroke-opacity:1;stroke-miterlimit:4;" d="M 7.770833 25.998047 L 2 25.998047 C 1.447917 25.998047 1 25.549805 1 25.001367 L 1 10.372852 C 1 10.066992 1.140625 9.776953 1.380208 9.587109 L 11.645833 1.497656 C 12.015625 1.207617 12.541667 1.212891 12.90625 1.513477 L 22.635417 9.587109 C 22.869792 9.776953 23 10.061719 23 10.357031 L 23 25.001367 C 23 25.549805 22.552083 25.998047 22 25.998047 L 16.229167 25.998047 M 7.770833 25.998047 L 7.770833 15.8625 C 7.770833 15.593555 7.875 15.34043 8.067708 15.150586 L 9.734375 13.510547 C 9.921875 13.325977 10.171875 13.220508 10.4375 13.220508 L 13.5625 13.220508 C 13.828125 13.220508 14.078125 13.325977 14.265625 13.510547 L 15.932292 15.150586 C 16.125 15.34043 16.229167 15.593555 16.229167 15.8625 L 16.229167 25.998047 M 7.770833 25.998047 L 16.229167 25.998047 " transform="matrix(0.75,0,0,0.740741,0,0)"/>
</g>
</svg>
