<?xml version="1.0" encoding="UTF-8"?>
<svg xmlns="http://www.w3.org/2000/svg" xmlns:xlink="http://www.w3.org/1999/xlink" width="px" height="px" viewBox="0 0 60 60" version="1.1">
<defs>
<linearGradient id="linear0" gradientUnits="userSpaceOnUse" x1="78.462" y1="80" x2="-1.538" y2="0" gradientTransform="matrix(0.75,0,0,0.75,0,0)">
<stop offset="0" style="stop-color:rgb(98.431373%,88.235294%,54.117647%);stop-opacity:1;"/>
<stop offset="0.21" style="stop-color:rgb(98.823529%,73.333333%,27.058824%);stop-opacity:1;"/>
<stop offset="0.38" style="stop-color:rgb(96.862745%,32.156863%,45.490196%);stop-opacity:1;"/>
<stop offset="0.52" style="stop-color:rgb(83.529412%,21.176471%,57.254902%);stop-opacity:1;"/>
<stop offset="0.74" style="stop-color:rgb(56.078431%,22.352941%,80.784314%);stop-opacity:1;"/>
<stop offset="1" style="stop-color:rgb(35.686275%,30.980392%,91.372549%);stop-opacity:1;"/>
</linearGradient>
</defs>
<g id="surface1">
<path style=" stroke:none;fill-rule:nonzero;fill:url(#linear0);" d="M 30 0 C 46.570312 0 60 13.429688 60 30 C 60 46.570312 46.570312 60 30 60 C 13.429688 60 0 46.570312 0 30 C 0 13.429688 13.429688 0 30 0 Z M 30 0 "/>
<path style=" stroke:none;fill-rule:nonzero;fill:rgb(100%,100%,100%);fill-opacity:1;" d="M 25.007812 30.078125 C 24.976562 28.269531 25.921875 26.585938 27.484375 25.671875 C 29.042969 24.757812 30.976562 24.757812 32.535156 25.671875 C 34.097656 26.585938 35.042969 28.269531 35.011719 30.078125 C 35.042969 31.882812 34.097656 33.570312 32.535156 34.480469 C 30.976562 35.394531 29.042969 35.394531 27.484375 34.480469 C 25.921875 33.570312 24.976562 31.882812 25.007812 30.078125 Z M 22.300781 30.078125 C 22.300781 34.335938 25.753906 37.785156 30.007812 37.785156 C 34.265625 37.785156 37.714844 34.335938 37.714844 30.078125 C 37.714844 25.820312 34.265625 22.367188 30.007812 22.367188 C 25.753906 22.367188 22.300781 25.820312 22.300781 30.078125 Z M 36.21875 22.0625 C 36.21875 22.789062 36.660156 23.445312 37.332031 23.726562 C 38.003906 24.003906 38.777344 23.851562 39.292969 23.335938 C 39.808594 22.820312 39.964844 22.046875 39.683594 21.375 C 39.40625 20.703125 38.75 20.261719 38.023438 20.261719 L 38.019531 20.261719 C 37.027344 20.261719 36.21875 21.066406 36.21875 22.0625 Z M 23.945312 42.296875 C 22.484375 42.230469 21.6875 41.988281 21.160156 41.78125 C 20.457031 41.507812 19.957031 41.183594 19.433594 40.660156 C 18.90625 40.132812 18.582031 39.632812 18.308594 38.933594 C 18.101562 38.402344 17.859375 37.609375 17.792969 36.144531 C 17.71875 34.5625 17.707031 34.085938 17.707031 30.078125 C 17.707031 26.066406 17.722656 25.59375 17.792969 24.007812 C 17.859375 22.546875 18.105469 21.753906 18.308594 21.222656 C 18.582031 20.519531 18.90625 20.019531 19.433594 19.496094 C 19.957031 18.96875 20.457031 18.644531 21.160156 18.371094 C 21.6875 18.164062 22.480469 17.921875 23.945312 17.855469 C 25.527344 17.78125 26.003906 17.769531 30.007812 17.769531 C 34.015625 17.769531 34.492188 17.785156 36.074219 17.855469 C 37.539062 17.921875 38.332031 18.167969 38.863281 18.371094 C 39.515625 18.613281 40.105469 18.996094 40.585938 19.496094 C 41.113281 20.019531 41.4375 20.519531 41.710938 21.222656 C 41.917969 21.75 42.160156 22.546875 42.226562 24.007812 C 42.300781 25.59375 42.3125 26.066406 42.3125 30.078125 C 42.3125 34.085938 42.300781 34.558594 42.226562 36.144531 C 42.160156 37.605469 41.914062 38.402344 41.710938 38.933594 C 41.4375 39.632812 41.113281 40.132812 40.589844 40.65625 C 40.0625 41.183594 39.5625 41.507812 38.863281 41.78125 C 38.332031 41.988281 37.539062 42.230469 36.074219 42.296875 C 34.492188 42.371094 34.015625 42.382812 30.007812 42.382812 C 26 42.382812 25.527344 42.371094 23.945312 42.296875 Z M 23.820312 15.15625 C 22.222656 15.226562 21.132812 15.480469 20.179688 15.851562 C 19.175781 16.230469 18.269531 16.820312 17.519531 17.582031 C 16.753906 18.332031 16.164062 19.242188 15.789062 20.242188 C 15.417969 21.195312 15.164062 22.289062 15.089844 23.886719 C 15.015625 25.488281 15 26 15 30.078125 C 15 34.152344 15.015625 34.664062 15.089844 36.265625 C 15.164062 37.867188 15.417969 38.957031 15.789062 39.910156 C 16.164062 40.914062 16.753906 41.820312 17.519531 42.570312 C 18.269531 43.332031 19.175781 43.925781 20.179688 44.300781 C 21.132812 44.671875 22.222656 44.925781 23.820312 45 C 25.421875 45.070312 25.933594 45.089844 30.007812 45.089844 C 34.085938 45.089844 34.597656 45.074219 36.195312 45 C 37.792969 44.925781 38.886719 44.671875 39.839844 44.300781 C 40.839844 43.925781 41.75 43.332031 42.5 42.570312 C 43.335938 41.734375 43.847656 40.898438 44.230469 39.910156 C 44.601562 38.957031 44.855469 37.863281 44.925781 36.265625 C 45 34.664062 45.015625 34.152344 45.015625 30.078125 C 45.015625 26 45 25.488281 44.925781 23.886719 C 44.855469 22.289062 44.601562 21.195312 44.230469 20.242188 C 43.851562 19.242188 43.261719 18.335938 42.5 17.582031 C 41.75 16.820312 40.84375 16.226562 39.839844 15.851562 C 38.886719 15.480469 37.792969 15.226562 36.199219 15.152344 C 34.597656 15.082031 34.085938 15.0625 30.011719 15.0625 C 25.933594 15.0625 25.421875 15.082031 23.820312 15.152344 Z M 23.820312 15.15625 "/>
</g>
</svg>
