<?xml version="1.0" encoding="UTF-8"?><svg id="Capa_1" xmlns="http://www.w3.org/2000/svg" viewBox="0 0 150 150"><defs><style>.cls-1,.cls-2{stroke-width:0px;}.cls-2{fill:#fff;}</style></defs><circle class="cls-1" cx="75" cy="75" r="74.5"/><polygon class="cls-2" points="117.5 100.04 117.5 53.01 91.47 72.92 117.33 100.75 117.5 100.04"/><path class="cls-2" d="m33.56,47.53l41.43,31.54,41.35-31.65c-.81-.79-1.95-1.32-3.26-1.32H36.91c-1.37,0-2.54.58-3.35,1.42Z"/><polygon class="cls-2" points="32.5 53.18 32.5 100.04 32.7 100.89 58.59 73.03 32.5 53.18"/><polygon class="cls-2" points="114.97 103.48 88.6 75.11 76.56 84.34 75 84.86 73.44 84.34 61.46 75.22 35.11 103.55 36.91 103.89 113.08 103.89 114.97 103.48"/></svg>