<?xml version="1.0" encoding="UTF-8"?>
<svg xmlns="http://www.w3.org/2000/svg" xmlns:xlink="http://www.w3.org/1999/xlink" width="px" height="px" viewBox="0 0 113 113" version="1.1">
<g id="surface1">
<path style=" stroke:none;fill-rule:nonzero;fill:rgb(0%,0%,0%);fill-opacity:1;" d="M 112.625 56.5 C 112.625 87.496094 87.496094 112.625 56.5 112.625 C 25.503906 112.625 0.375 87.496094 0.375 56.5 C 0.375 25.503906 25.503906 0.375 56.5 0.375 C 87.496094 0.375 112.625 25.503906 112.625 56.5 Z M 112.625 56.5 "/>
<path style=" stroke:none;fill-rule:nonzero;fill:rgb(100%,100%,100%);fill-opacity:1;" d="M 88.515625 75.363281 L 88.515625 39.933594 L 68.90625 54.933594 L 88.386719 75.898438 Z M 25.28125 35.804688 L 56.492188 59.566406 L 87.644531 35.722656 C 86.984375 35.082031 86.105469 34.726562 85.1875 34.730469 L 27.804688 34.730469 C 26.773438 34.730469 25.890625 35.164062 25.28125 35.796875 Z M 24.484375 40.0625 L 24.484375 75.363281 L 24.632812 76.003906 L 44.136719 55.015625 Z M 24.484375 40.0625 "/>
<path style=" stroke:none;fill-rule:nonzero;fill:rgb(100%,100%,100%);fill-opacity:1;" d="M 86.609375 77.953125 L 66.746094 56.582031 L 57.675781 63.535156 L 56.5 63.929688 L 55.324219 63.535156 L 46.300781 56.664062 L 26.449219 78.007812 L 27.804688 78.265625 L 85.1875 78.265625 Z M 86.609375 77.953125 "/>
</g>
</svg>
