<?xml version="1.0" encoding="UTF-8"?>
<svg xmlns="http://www.w3.org/2000/svg" xmlns:xlink="http://www.w3.org/1999/xlink" width="px" height="px" viewBox="0 0 21 20" version="1.1">
<g id="surface1">
<path style="fill:none;stroke-width:2;stroke-linecap:butt;stroke-linejoin:miter;stroke:rgb(0%,0%,0%);stroke-opacity:1;stroke-miterlimit:4;" d="M 26.598958 23.080078 C 26.598958 24.141406 25.734375 24.999609 24.677083 24.999609 C 23.614583 24.999609 22.75 24.141406 22.75 23.080078 C 22.75 22.01875 23.614583 21.155469 24.677083 21.155469 C 25.734375 21.155469 26.598958 22.01875 26.598958 23.080078 Z M 0 1.000391 L 1.895833 1.000391 C 3.807292 1.000391 5.442708 2.366406 5.78125 4.245312 M 25.322917 20.805078 L 12.942708 20.805078 C 10.526042 20.805078 8.453125 19.073437 8.026042 16.691797 L 7.828125 15.610156 M 5.78125 4.245312 L 21.625 4.245312 C 24.385417 4.245312 26.625 6.484766 26.625 9.247266 L 26.625 13.609375 C 26.625 14.716406 25.729167 15.610156 24.625 15.610156 L 7.828125 15.610156 M 5.78125 4.245312 L 7.828125 15.610156 M 12.958333 23.080078 C 12.958333 24.141406 12.098958 24.999609 11.036458 24.999609 C 9.973958 24.999609 9.114583 24.141406 9.114583 23.080078 C 9.114583 22.01875 9.973958 21.155469 11.036458 21.155469 C 12.098958 21.155469 12.958333 22.01875 12.958333 23.080078 Z M 12.958333 23.080078 " transform="matrix(0.75,0,0,0.769231,0,0)"/>
</g>
</svg>
