<?xml version="1.0" encoding="UTF-8"?>
<svg xmlns="http://www.w3.org/2000/svg" xmlns:xlink="http://www.w3.org/1999/xlink" width="px" height="px" viewBox="0 0 60 60" version="1.1">
<g id="surface1">
<path style=" stroke:none;fill-rule:nonzero;fill:rgb(20%,80%,100%);fill-opacity:1;" d="M 30 0 C 46.570312 0 60 13.429688 60 30 C 60 46.570312 46.570312 60 30 60 C 13.429688 60 0 46.570312 0 30 C 0 13.429688 13.429688 0 30 0 Z M 30 0 "/>
<path style=" stroke:none;fill-rule:nonzero;fill:rgb(100%,100%,100%);fill-opacity:1;" d="M 44.890625 20.5 C 43.902344 20.929688 42.859375 21.226562 41.792969 21.382812 C 42.289062 21.300781 43.023438 20.402344 43.316406 20.039062 C 43.761719 19.488281 44.097656 18.863281 44.316406 18.191406 C 44.316406 18.140625 44.363281 18.070312 44.316406 18.035156 C 44.261719 18.003906 44.203125 18.003906 44.148438 18.035156 C 42.992188 18.660156 41.761719 19.140625 40.480469 19.460938 C 40.390625 19.488281 40.292969 19.464844 40.226562 19.394531 C 40.125 19.277344 40.019531 19.164062 39.90625 19.058594 C 39.382812 18.59375 38.792969 18.210938 38.152344 17.925781 C 37.289062 17.574219 36.355469 17.417969 35.425781 17.476562 C 34.519531 17.535156 33.636719 17.777344 32.832031 18.191406 C 32.035156 18.625 31.339844 19.21875 30.777344 19.929688 C 30.191406 20.664062 29.765625 21.515625 29.53125 22.425781 C 29.339844 23.292969 29.320312 24.1875 29.46875 25.0625 C 29.46875 25.214844 29.46875 25.234375 29.339844 25.214844 C 24.261719 24.464844 20.09375 22.660156 16.6875 18.789062 C 16.539062 18.617188 16.460938 18.617188 16.339844 18.789062 C 14.859375 21.042969 15.578125 24.609375 17.429688 26.371094 C 17.679688 26.605469 17.933594 26.832031 18.207031 27.046875 C 17.355469 26.984375 16.527344 26.757812 15.769531 26.371094 C 15.628906 26.277344 15.550781 26.328125 15.542969 26.496094 C 15.519531 26.734375 15.519531 26.972656 15.542969 27.210938 C 15.84375 29.523438 17.367188 31.496094 19.53125 32.371094 C 19.789062 32.484375 20.058594 32.566406 20.335938 32.621094 C 19.550781 32.777344 18.742188 32.800781 17.949219 32.691406 C 17.777344 32.65625 17.714844 32.75 17.777344 32.914062 C 18.824219 35.765625 21.097656 36.636719 22.765625 37.121094 C 22.992188 37.15625 23.222656 37.15625 23.476562 37.214844 L 23.433594 37.257812 C 22.941406 38.15625 20.957031 38.761719 20.042969 39.074219 C 18.378906 39.671875 16.605469 39.902344 14.84375 39.746094 C 14.566406 39.703125 14.5 39.710938 14.429688 39.746094 C 14.359375 39.78125 14.429688 39.859375 14.507812 39.929688 C 14.863281 40.164062 15.222656 40.371094 15.589844 40.570312 C 16.695312 41.175781 17.859375 41.652344 19.066406 41.996094 C 25.324219 43.722656 32.359375 42.453125 37.054688 37.785156 C 40.746094 34.117188 42.042969 29.0625 42.042969 24 C 42.042969 23.808594 42.277344 23.695312 42.414062 23.59375 C 43.347656 22.867188 44.167969 22.007812 44.855469 21.042969 C 44.976562 20.898438 45.035156 20.714844 45.027344 20.53125 C 45.027344 20.421875 45.027344 20.445312 44.890625 20.5 Z M 44.890625 20.5 "/>
</g>
</svg>
