<?xml version="1.0" encoding="UTF-8"?>
<svg xmlns="http://www.w3.org/2000/svg" xmlns:xlink="http://www.w3.org/1999/xlink" width="px" height="px" viewBox="0 0 113 113" version="1.1">
<g id="surface1">
<path style=" stroke:none;fill-rule:nonzero;fill:rgb(0%,0%,0%);fill-opacity:1;" d="M 112.625 56.5 C 112.625 87.496094 87.496094 112.625 56.5 112.625 C 25.503906 112.625 0.375 87.496094 0.375 56.5 C 0.375 25.503906 25.503906 0.375 56.5 0.375 C 87.496094 0.375 112.625 25.503906 112.625 56.5 Z M 112.625 56.5 "/>
<path style=" stroke:none;fill-rule:nonzero;fill:rgb(100%,100%,100%);fill-opacity:1;" d="M 68.167969 41.710938 C 68.167969 35.316406 62.964844 30.109375 56.566406 30.109375 C 50.171875 30.109375 44.964844 35.316406 44.964844 41.710938 C 44.964844 48.109375 50.171875 53.304688 56.566406 53.304688 C 62.964844 53.304688 68.167969 48.101562 68.167969 41.710938 Z M 68.167969 41.710938 "/>
<path style=" stroke:none;fill-rule:nonzero;fill:rgb(100%,100%,100%);fill-opacity:1;" d="M 82.867188 41.320312 C 82.867188 27.894531 68.628906 16.210938 56.507812 16.210938 C 44.386719 16.210938 30.132812 27.886719 30.132812 41.320312 C 30.132812 54.753906 56.507812 96.789062 56.507812 96.789062 C 56.507812 96.789062 82.867188 54.234375 82.867188 41.320312 Z M 35.875 41.710938 C 35.875 30.300781 45.164062 21.011719 56.574219 21.011719 C 67.988281 21.011719 77.277344 30.300781 77.277344 41.710938 C 77.277344 53.125 67.988281 62.414062 56.574219 62.414062 C 45.164062 62.414062 35.875 53.125 35.875 41.710938 Z M 35.875 41.710938 "/>
</g>
</svg>
