<?xml version="1.0" encoding="UTF-8"?><svg id="Capa_1" xmlns="http://www.w3.org/2000/svg" viewBox="0 0 150 150"><defs><style>.cls-1,.cls-2{stroke-width:0px;}.cls-2{fill:#fff;}</style></defs><circle class="cls-1" cx="75" cy="75" r="74.5"/><path class="cls-2" d="m90.49,55.37c0-8.49-6.91-15.4-15.4-15.4s-15.4,6.91-15.4,15.4,6.91,15.39,15.4,15.39,15.4-6.91,15.4-15.39Z"/><path class="cls-2" d="m110,54.85c0-17.82-18.9-33.33-34.99-33.33s-35.01,15.5-35.01,33.33,35.01,73.63,35.01,73.63c0,0,34.99-56.49,34.99-73.63Zm-62.38.52c0-15.15,12.33-27.48,27.48-27.48s27.48,12.33,27.48,27.48-12.33,27.48-27.48,27.48-27.48-12.33-27.48-27.48Z"/></svg>